<svg width="140" height="43" viewBox="0 0 140 43" fill="none" xmlns="http://www.w3.org/2000/svg">
<path d="M15.7991 2.54395H37.2017C41.808 2.54395 45.5419 6.27785 45.5419 10.8841V32.2867C45.5419 36.8929 41.808 40.6268 37.2017 40.6268H15.7991C11.1929 40.6268 7.45898 36.8929 7.45898 32.2867V10.8841C7.45898 6.27785 11.1929 2.54395 15.7991 2.54395Z" fill="url(#paint0_linear_4362_17045)"/>
<path d="M19.6622 30.1853L19.6658 30.1865L18.3637 32.4417C17.8884 33.2649 16.8358 33.547 16.0125 33.0717C15.1894 32.5964 14.9072 31.5438 15.3825 30.7205L16.3417 29.0591L16.4338 28.8997C16.5982 28.6634 17.0039 28.2555 17.8154 28.3323C17.8154 28.3323 19.725 28.5395 19.8632 29.5321C19.8632 29.5321 19.882 29.8586 19.6622 30.1853ZM38.1299 24.4252H34.0696C33.7931 24.4066 33.6724 24.3079 33.6248 24.2504L33.6219 24.2452L29.2755 16.717L29.2698 16.7207L29.0092 16.347C28.582 15.6937 27.9036 17.3646 27.9036 17.3646C27.0936 19.2265 28.0186 21.3432 28.341 21.983L34.378 32.4394C34.8532 33.2625 35.9058 33.5447 36.7292 33.0693C37.5523 32.594 37.8345 31.5414 37.359 30.7181L35.8496 28.1035C35.8203 28.0401 35.7694 27.8682 36.0789 27.8674H38.1299C39.0805 27.8674 39.8511 27.0968 39.8511 26.1462C39.8511 25.1957 39.0805 24.4251 38.1299 24.4251V24.4252ZM30.2435 26.7649C30.2435 26.7649 30.4602 27.8674 29.6217 27.8674H14.6118C13.6612 27.8674 12.8906 27.0968 12.8906 26.1462C12.8906 25.1957 13.6612 24.4251 14.6118 24.4251H18.4707C19.0937 24.3891 19.2412 24.0294 19.2412 24.0294L19.2448 24.0312L24.2819 15.3066L24.2804 15.3063C24.3722 15.1378 24.2957 14.9784 24.2825 14.9533L22.6189 12.0719C22.1436 11.2488 22.4256 10.1961 23.2489 9.72091C24.0721 9.24562 25.1248 9.52752 25.6 10.3508L26.3715 11.6871L27.1417 10.3531C27.617 9.53005 28.6696 9.24785 29.4928 9.72329C30.3161 10.1986 30.5981 11.2511 30.1228 12.0743L23.1135 24.2147C23.0829 24.2887 23.0735 24.4047 23.3015 24.4251H27.4913L27.4921 24.466C27.4921 24.466 29.9137 24.5036 30.2435 26.7649Z" fill="white"/>
<path d="M68.6924 17.1372H66.5654V20.5854H64.0732V17.1372H56.9297V15.2251L64.1055 4.8374H66.5654V15.0425H68.6924V17.1372ZM64.0732 15.0425V11.1431C64.0732 10.8208 64.0768 10.495 64.084 10.1655C64.0983 9.82894 64.1126 9.50667 64.127 9.19873C64.1413 8.89079 64.1556 8.60791 64.1699 8.3501C64.1842 8.08512 64.195 7.8667 64.2021 7.69482H64.1162C63.9801 7.98128 63.8298 8.2749 63.665 8.57568C63.5003 8.8693 63.3249 9.15576 63.1387 9.43506L59.2715 15.0425H64.0732ZM70.5293 19.2534C70.5293 18.6662 70.6797 18.2544 70.9805 18.0181C71.2884 17.7746 71.6608 17.6528 72.0977 17.6528C72.5345 17.6528 72.9069 17.7746 73.2148 18.0181C73.5299 18.2544 73.6875 18.6662 73.6875 19.2534C73.6875 19.8263 73.5299 20.2417 73.2148 20.4995C72.9069 20.7502 72.5345 20.8755 72.0977 20.8755C71.6608 20.8755 71.2884 20.7502 70.9805 20.4995C70.6797 20.2417 70.5293 19.8263 70.5293 19.2534ZM81.4111 4.66553C82.3206 4.66553 83.1406 4.80876 83.8711 5.09521C84.6016 5.37451 85.1816 5.79346 85.6113 6.35205C86.041 6.91064 86.2559 7.60173 86.2559 8.42529C86.2559 9.06266 86.1234 9.61768 85.8584 10.0903C85.6006 10.563 85.2497 10.9784 84.8057 11.3364C84.3617 11.6873 83.8639 11.9989 83.3125 12.271C83.9284 12.5718 84.4941 12.9191 85.0098 13.313C85.5326 13.6997 85.9515 14.1545 86.2666 14.6772C86.5889 15.2 86.75 15.8123 86.75 16.5142C86.75 17.395 86.5244 18.1577 86.0732 18.8022C85.6292 19.4396 85.0098 19.9338 84.2148 20.2847C83.4199 20.6284 82.4925 20.8003 81.4326 20.8003C80.2939 20.8003 79.3236 20.632 78.5215 20.2954C77.7194 19.9588 77.1107 19.479 76.6953 18.856C76.2799 18.2257 76.0723 17.4738 76.0723 16.6001C76.0723 15.8768 76.2155 15.2502 76.502 14.7202C76.7884 14.1903 77.1715 13.7319 77.6514 13.3452C78.1383 12.9585 78.6719 12.6326 79.252 12.3677C78.7578 12.0741 78.3066 11.7446 77.8984 11.3794C77.4902 11.007 77.1644 10.5809 76.9209 10.1011C76.6846 9.6141 76.5664 9.05192 76.5664 8.41455C76.5664 7.59814 76.7848 6.91423 77.2217 6.36279C77.6585 5.8042 78.2422 5.38167 78.9727 5.09521C79.7103 4.80876 80.5231 4.66553 81.4111 4.66553ZM78.4785 16.5034C78.4785 17.1909 78.722 17.7567 79.209 18.2007C79.696 18.6447 80.4229 18.8667 81.3896 18.8667C82.3493 18.8667 83.0798 18.6483 83.5811 18.2114C84.0824 17.7746 84.333 17.1981 84.333 16.4819C84.333 16.0236 84.2041 15.619 83.9463 15.2681C83.6956 14.9172 83.3555 14.6056 82.9258 14.3335C82.5033 14.0542 82.0342 13.7964 81.5186 13.5601L81.1748 13.4204C80.6162 13.6567 80.1364 13.9253 79.7354 14.2261C79.3343 14.5197 79.0228 14.8527 78.8008 15.2251C78.5859 15.5975 78.4785 16.0236 78.4785 16.5034ZM81.3896 6.60986C80.695 6.60986 80.1221 6.78174 79.6709 7.12549C79.2269 7.46208 79.0049 7.94906 79.0049 8.58643C79.0049 9.0376 79.1123 9.42432 79.3271 9.74658C79.5492 10.0688 79.8464 10.3481 80.2188 10.5845C80.5911 10.8136 81.0029 11.0285 81.4541 11.229C81.891 11.0356 82.2848 10.8244 82.6357 10.5952C82.9938 10.3589 83.2767 10.0796 83.4844 9.75732C83.6992 9.4279 83.8066 9.03402 83.8066 8.57568C83.8066 7.94548 83.5811 7.46208 83.1299 7.12549C82.6859 6.78174 82.1058 6.60986 81.3896 6.60986Z" fill="#868583"/>
<path d="M101.501 2.41878L104.333 8.15711L110.667 9.08295L106.084 13.5471L107.166 19.8538L101.501 16.8746L95.8357 19.8538L96.9173 13.5471L92.334 9.08295L98.6682 8.15711L101.501 2.41878Z" fill="#FFE234"/>
<path d="M61.0879 36.5854H59.7051V31.0718C59.7051 30.8882 59.707 30.7046 59.7109 30.521C59.7148 30.3374 59.7188 30.1577 59.7227 29.9819C59.7305 29.8062 59.7402 29.6382 59.752 29.478C59.6699 29.5679 59.5684 29.6655 59.4473 29.771C59.3301 29.8765 59.2051 29.9858 59.0723 30.0991L58.0879 30.8843L57.3965 30.0112L59.9395 28.019H61.0879V36.5854ZM65.7402 35.1909L65.8223 35.3257C65.752 35.6069 65.6621 35.9097 65.5527 36.2339C65.4434 36.5581 65.3242 36.8823 65.1953 37.2065C65.0664 37.5347 64.9355 37.8433 64.8027 38.1323H63.7949C63.877 37.8159 63.9551 37.4839 64.0293 37.1362C64.1074 36.7925 64.1777 36.4526 64.2402 36.1167C64.3066 35.7769 64.3594 35.4683 64.3984 35.1909H65.7402ZM72.9766 36.5854H67.1758V35.5483L69.3965 33.2983C69.8262 32.8608 70.1797 32.4839 70.457 32.1675C70.7344 31.8472 70.9395 31.5444 71.0723 31.2593C71.209 30.9741 71.2773 30.6636 71.2773 30.3276C71.2773 29.9136 71.1582 29.6011 70.9199 29.3901C70.6816 29.1753 70.3672 29.0679 69.9766 29.0679C69.6055 29.0679 69.2617 29.1421 68.9453 29.2905C68.6328 29.4351 68.3086 29.6421 67.9727 29.9116L67.2168 29.0034C67.4551 28.8003 67.709 28.6147 67.9785 28.4468C68.252 28.2788 68.5566 28.146 68.8926 28.0483C69.2285 27.9468 69.6113 27.896 70.041 27.896C70.584 27.896 71.0527 27.9937 71.4473 28.189C71.8418 28.3804 72.1445 28.6479 72.3555 28.9917C72.5703 29.3354 72.6777 29.7358 72.6777 30.1929C72.6777 30.6538 72.5859 31.0796 72.4023 31.4702C72.2188 31.8608 71.957 32.2476 71.6172 32.6304C71.2773 33.0093 70.873 33.4214 70.4043 33.8667L68.9219 35.314V35.3784H72.9766V36.5854ZM76.9316 27.9019C77.4277 27.9019 77.875 27.98 78.2734 28.1362C78.6719 28.2886 78.9883 28.5171 79.2227 28.8218C79.457 29.1265 79.5742 29.5034 79.5742 29.9526C79.5742 30.3003 79.502 30.603 79.3574 30.8608C79.2168 31.1187 79.0254 31.3452 78.7832 31.5405C78.541 31.7319 78.2695 31.9019 77.9688 32.0503C78.3047 32.2144 78.6133 32.4038 78.8945 32.6187C79.1797 32.8296 79.4082 33.0776 79.5801 33.3628C79.7559 33.6479 79.8438 33.9819 79.8438 34.3647C79.8438 34.8452 79.7207 35.2612 79.4746 35.6128C79.2324 35.9604 78.8945 36.23 78.4609 36.4214C78.0273 36.6089 77.5215 36.7026 76.9434 36.7026C76.3223 36.7026 75.793 36.6108 75.3555 36.4272C74.918 36.2437 74.5859 35.9819 74.3594 35.6421C74.1328 35.2983 74.0195 34.8882 74.0195 34.4116C74.0195 34.0171 74.0977 33.6753 74.2539 33.3862C74.4102 33.0972 74.6191 32.8472 74.8809 32.6362C75.1465 32.4253 75.4375 32.2476 75.7539 32.103C75.4844 31.9429 75.2383 31.7632 75.0156 31.564C74.793 31.3608 74.6152 31.1284 74.4824 30.8667C74.3535 30.6011 74.2891 30.2944 74.2891 29.9468C74.2891 29.5015 74.4082 29.1284 74.6465 28.8276C74.8848 28.5229 75.2031 28.2925 75.6016 28.1362C76.0039 27.98 76.4473 27.9019 76.9316 27.9019ZM75.332 34.3589C75.332 34.7339 75.4648 35.0425 75.7305 35.2847C75.9961 35.5269 76.3926 35.6479 76.9199 35.6479C77.4434 35.6479 77.8418 35.5288 78.1152 35.2905C78.3887 35.0522 78.5254 34.7378 78.5254 34.3472C78.5254 34.0972 78.4551 33.8765 78.3145 33.6851C78.1777 33.4937 77.9922 33.3237 77.7578 33.1753C77.5273 33.0229 77.2715 32.8823 76.9902 32.7534L76.8027 32.6772C76.498 32.8062 76.2363 32.9526 76.0176 33.1167C75.7988 33.2769 75.6289 33.4585 75.5078 33.6616C75.3906 33.8647 75.332 34.0972 75.332 34.3589ZM76.9199 28.9624C76.541 28.9624 76.2285 29.0562 75.9824 29.2437C75.7402 29.4272 75.6191 29.6929 75.6191 30.0405C75.6191 30.2866 75.6777 30.4976 75.7949 30.6733C75.916 30.8491 76.0781 31.0015 76.2812 31.1304C76.4844 31.2554 76.709 31.3726 76.9551 31.4819C77.1934 31.3765 77.4082 31.2612 77.5996 31.1362C77.7949 31.0073 77.9492 30.855 78.0625 30.6792C78.1797 30.4995 78.2383 30.2847 78.2383 30.0347C78.2383 29.6909 78.1152 29.4272 77.8691 29.2437C77.627 29.0562 77.3105 28.9624 76.9199 28.9624ZM84.959 36.5854H83.5762V31.0718C83.5762 30.8882 83.5781 30.7046 83.582 30.521C83.5859 30.3374 83.5898 30.1577 83.5938 29.9819C83.6016 29.8062 83.6113 29.6382 83.623 29.478C83.541 29.5679 83.4395 29.6655 83.3184 29.771C83.2012 29.8765 83.0762 29.9858 82.9434 30.0991L81.959 30.8843L81.2676 30.0112L83.8105 28.019H84.959V36.5854ZM93.8887 28.019C94.627 28.019 95.2363 28.1089 95.7168 28.2886C96.2012 28.4683 96.5605 28.7417 96.7949 29.1089C97.0332 29.4761 97.1523 29.9429 97.1523 30.5093C97.1523 30.9312 97.0742 31.2905 96.918 31.5874C96.7617 31.8843 96.5566 32.1304 96.3027 32.3257C96.0488 32.521 95.7773 32.6772 95.4883 32.7944L97.9199 36.5854H96.332L94.2637 33.1519H92.8867V36.5854H91.4805V28.019H93.8887ZM93.7949 29.1909H92.8867V31.9917H93.8594C94.5117 31.9917 94.9844 31.8706 95.2773 31.6284C95.5742 31.3862 95.7227 31.0288 95.7227 30.5562C95.7227 30.0601 95.5645 29.7085 95.248 29.5015C94.9355 29.2944 94.4512 29.1909 93.7949 29.1909ZM101.547 29.9761C102.367 29.9761 102.986 30.1577 103.404 30.521C103.826 30.8843 104.037 31.4507 104.037 32.2202V36.5854H103.059L102.795 35.6655H102.748C102.564 35.8999 102.375 36.0933 102.18 36.2456C101.984 36.3979 101.758 36.5112 101.5 36.5854C101.246 36.6636 100.936 36.7026 100.568 36.7026C100.182 36.7026 99.8359 36.6323 99.5312 36.4917C99.2266 36.3472 98.9863 36.1284 98.8105 35.8354C98.6348 35.5425 98.5469 35.1714 98.5469 34.7222C98.5469 34.0542 98.7949 33.5522 99.291 33.2163C99.791 32.8804 100.545 32.6948 101.553 32.6597L102.678 32.6187V32.2788C102.678 31.8296 102.572 31.5093 102.361 31.3179C102.154 31.1265 101.861 31.0308 101.482 31.0308C101.158 31.0308 100.844 31.0776 100.539 31.1714C100.234 31.2651 99.9375 31.3804 99.6484 31.5171L99.2031 30.5444C99.5195 30.3765 99.8789 30.2397 100.281 30.1343C100.688 30.0288 101.109 29.9761 101.547 29.9761ZM102.672 33.4858L101.834 33.5151C101.146 33.5386 100.664 33.6558 100.387 33.8667C100.109 34.0776 99.9707 34.3667 99.9707 34.7339C99.9707 35.0542 100.066 35.2886 100.258 35.437C100.449 35.5815 100.701 35.6538 101.014 35.6538C101.49 35.6538 101.885 35.519 102.197 35.2495C102.514 34.9761 102.672 34.5757 102.672 34.0483V33.4858ZM108.379 35.5894C108.559 35.5894 108.736 35.5737 108.912 35.5425C109.088 35.5073 109.248 35.4663 109.393 35.4194V36.4624C109.24 36.5288 109.043 36.5854 108.801 36.6323C108.559 36.6792 108.307 36.7026 108.045 36.7026C107.678 36.7026 107.348 36.6421 107.055 36.521C106.762 36.396 106.529 36.1831 106.357 35.8823C106.186 35.5815 106.1 35.1655 106.1 34.6343V31.1479H105.215V30.5327L106.164 30.0464L106.615 28.6577H107.482V30.0991H109.34V31.1479H107.482V34.6167C107.482 34.9448 107.564 35.189 107.729 35.3491C107.893 35.5093 108.109 35.5894 108.379 35.5894ZM112.088 30.0991V36.5854H110.711V30.0991H112.088ZM111.408 27.6147C111.619 27.6147 111.801 27.6714 111.953 27.7847C112.109 27.8979 112.188 28.0933 112.188 28.3706C112.188 28.644 112.109 28.8394 111.953 28.9565C111.801 29.0698 111.619 29.1265 111.408 29.1265C111.189 29.1265 111.004 29.0698 110.852 28.9565C110.703 28.8394 110.629 28.644 110.629 28.3706C110.629 28.0933 110.703 27.8979 110.852 27.7847C111.004 27.6714 111.189 27.6147 111.408 27.6147ZM117.443 29.9761C118.174 29.9761 118.742 30.1655 119.148 30.5444C119.559 30.9194 119.764 31.5229 119.764 32.355V36.5854H118.387V32.6128C118.387 32.1089 118.283 31.7319 118.076 31.4819C117.869 31.228 117.549 31.1011 117.115 31.1011C116.486 31.1011 116.049 31.2944 115.803 31.6812C115.561 32.0679 115.439 32.6284 115.439 33.3628V36.5854H114.062V30.0991H115.135L115.328 30.978H115.404C115.545 30.7515 115.719 30.5659 115.926 30.4214C116.137 30.2729 116.371 30.1616 116.629 30.0874C116.891 30.0132 117.162 29.9761 117.443 29.9761ZM123.543 39.4683C122.664 39.4683 121.99 39.3101 121.521 38.9937C121.053 38.6772 120.818 38.2339 120.818 37.6636C120.818 37.2651 120.943 36.9272 121.193 36.6499C121.443 36.3765 121.801 36.187 122.266 36.0815C122.09 36.0034 121.938 35.8823 121.809 35.7183C121.684 35.5503 121.621 35.3647 121.621 35.1616C121.621 34.9194 121.689 34.7124 121.826 34.5405C121.963 34.3687 122.168 34.2026 122.441 34.0425C122.102 33.8979 121.828 33.6636 121.621 33.3394C121.418 33.0112 121.316 32.6265 121.316 32.1851C121.316 31.7163 121.416 31.3179 121.615 30.9897C121.814 30.6577 122.105 30.4058 122.488 30.2339C122.871 30.0581 123.334 29.9702 123.877 29.9702C123.994 29.9702 124.121 29.978 124.258 29.9937C124.398 30.0054 124.527 30.021 124.645 30.0405C124.766 30.0562 124.857 30.0737 124.92 30.0933H127.164V30.8608L126.062 31.0659C126.168 31.2144 126.252 31.3843 126.314 31.5757C126.377 31.7632 126.408 31.9683 126.408 32.1909C126.408 32.8628 126.176 33.3921 125.711 33.7788C125.25 34.1616 124.613 34.353 123.801 34.353C123.605 34.3452 123.416 34.3296 123.232 34.3062C123.092 34.3921 122.984 34.4878 122.91 34.5933C122.836 34.6948 122.799 34.8101 122.799 34.939C122.799 35.0444 122.836 35.1304 122.91 35.1968C122.984 35.2593 123.094 35.3062 123.238 35.3374C123.387 35.3687 123.566 35.3843 123.777 35.3843H124.896C125.607 35.3843 126.15 35.5347 126.525 35.8354C126.9 36.1362 127.088 36.5776 127.088 37.1597C127.088 37.8979 126.783 38.4663 126.174 38.8647C125.564 39.2671 124.688 39.4683 123.543 39.4683ZM123.596 38.5015C124.076 38.5015 124.48 38.4546 124.809 38.3608C125.137 38.2671 125.385 38.1323 125.553 37.9565C125.721 37.7847 125.805 37.5796 125.805 37.3413C125.805 37.1304 125.752 36.9683 125.646 36.855C125.541 36.7417 125.383 36.6636 125.172 36.6206C124.961 36.5776 124.699 36.5562 124.387 36.5562H123.367C123.113 36.5562 122.889 36.5952 122.693 36.6733C122.498 36.7554 122.346 36.8726 122.236 37.0249C122.131 37.1772 122.078 37.3608 122.078 37.5757C122.078 37.8726 122.209 38.1011 122.471 38.2612C122.736 38.4214 123.111 38.5015 123.596 38.5015ZM123.865 33.4507C124.268 33.4507 124.566 33.3413 124.762 33.1226C124.957 32.8999 125.055 32.5874 125.055 32.1851C125.055 31.7476 124.953 31.4194 124.75 31.2007C124.551 30.9819 124.254 30.8726 123.859 30.8726C123.473 30.8726 123.178 30.9839 122.975 31.2065C122.775 31.4292 122.676 31.7593 122.676 32.1968C122.676 32.5913 122.775 32.8999 122.975 33.1226C123.178 33.3413 123.475 33.4507 123.865 33.4507ZM132.707 34.7339C132.707 35.1597 132.604 35.519 132.396 35.812C132.189 36.105 131.887 36.3276 131.488 36.48C131.094 36.6284 130.609 36.7026 130.035 36.7026C129.582 36.7026 129.191 36.6694 128.863 36.603C128.539 36.5405 128.232 36.4429 127.943 36.3101V35.1206C128.252 35.2651 128.598 35.3901 128.98 35.4956C129.367 35.6011 129.732 35.6538 130.076 35.6538C130.529 35.6538 130.855 35.5835 131.055 35.4429C131.254 35.2983 131.354 35.1069 131.354 34.8687C131.354 34.728 131.312 34.603 131.23 34.4937C131.152 34.3804 131.004 34.2651 130.785 34.1479C130.57 34.0269 130.254 33.8823 129.836 33.7144C129.426 33.5503 129.08 33.3862 128.799 33.2222C128.518 33.0581 128.305 32.8608 128.16 32.6304C128.016 32.396 127.943 32.0972 127.943 31.7339C127.943 31.1597 128.17 30.7241 128.623 30.4272C129.08 30.1265 129.684 29.9761 130.434 29.9761C130.832 29.9761 131.207 30.0171 131.559 30.0991C131.914 30.1772 132.262 30.2925 132.602 30.4448L132.168 31.4819C131.875 31.353 131.58 31.2476 131.283 31.1655C130.99 31.0796 130.691 31.0366 130.387 31.0366C130.031 31.0366 129.76 31.0913 129.572 31.2007C129.389 31.3101 129.297 31.4663 129.297 31.6694C129.297 31.8218 129.342 31.9507 129.432 32.0562C129.521 32.1616 129.676 32.2671 129.895 32.3726C130.117 32.478 130.426 32.6089 130.82 32.7651C131.207 32.9136 131.541 33.0698 131.822 33.2339C132.107 33.394 132.326 33.5913 132.479 33.8257C132.631 34.0601 132.707 34.3628 132.707 34.7339Z" fill="#868583"/>
<defs>
<linearGradient id="paint0_linear_4362_17045" x1="26.5004" y1="2.54395" x2="26.5004" y2="40.6268" gradientUnits="userSpaceOnUse">
<stop stop-color="#17C9FB"/>
<stop offset="1" stop-color="#1A74E8"/>
</linearGradient>
</defs>
</svg>
