<svg width="113" height="40" viewBox="0 0 113 40" fill="none" xmlns="http://www.w3.org/2000/svg">
<path d="M9.87242 1.09H31.1273C35.7017 1.09 39.4098 4.79813 39.4098 9.37258V30.6274C39.4098 35.2019 35.7017 38.91 31.1273 38.91H9.87242C5.29798 38.91 1.58984 35.2019 1.58984 30.6274V9.37258C1.58984 4.79813 5.29798 1.09 9.87242 1.09Z" fill="url(#paint0_linear_4362_18512)"/>
<path d="M20.6853 10.2537L21.4168 8.94691C21.8684 8.13014 22.8754 7.85477 23.6656 8.32149C24.4559 8.78822 24.7223 9.82902 24.2707 10.6458L17.2218 23.2567H22.32C23.9727 23.2567 24.8984 25.2637 24.1804 26.6545H9.23355C8.32138 26.6545 7.58984 25.8984 7.58984 24.9556C7.58984 24.0128 8.32138 23.2567 9.23355 23.2567H13.4241L18.7887 13.6468L17.1134 10.6411C16.6618 9.82435 16.9282 8.79289 17.7185 8.31683C18.5087 7.8501 19.5067 8.12547 19.9673 8.94224L20.6853 10.2537ZM14.3453 28.4047L12.7648 31.2378C12.3132 32.0545 11.3062 32.3299 10.516 31.8632C9.72576 31.3964 9.45933 30.3556 9.9109 29.5389L11.085 27.4386C12.4126 27.0139 13.4918 27.3406 14.3453 28.4047ZM27.9555 23.2661H32.2319C33.144 23.2661 33.8756 24.0222 33.8756 24.965C33.8756 25.9077 33.144 26.6638 32.2319 26.6638H29.8566L31.4597 29.5389C31.9112 30.3556 31.6448 31.3871 30.8546 31.8632C30.0643 32.3299 29.0664 32.0545 28.6058 31.2378C25.9054 26.3978 23.8779 22.776 22.5322 20.363C21.1549 17.9081 22.1393 15.4437 23.1102 14.6083C24.1894 16.5219 25.8015 19.4109 27.9555 23.2661Z" fill="white"/>
<path d="M56.2588 16.3057H54.9053V18.5H53.3193V16.3057H48.7734V15.0889L53.3398 8.47852H54.9053V14.9727H56.2588V16.3057ZM53.3193 14.9727V12.4912C53.3193 12.2861 53.3216 12.0788 53.3262 11.8691C53.3353 11.6549 53.3444 11.4499 53.3535 11.2539C53.3626 11.0579 53.3717 10.8779 53.3809 10.7139C53.39 10.5452 53.3968 10.4062 53.4014 10.2969H53.3467C53.2601 10.4792 53.1644 10.666 53.0596 10.8574C52.9548 11.0443 52.8431 11.2266 52.7246 11.4043L50.2637 14.9727H53.3193ZM57.4277 17.6523C57.4277 17.2786 57.5234 17.0166 57.7148 16.8662C57.9108 16.7113 58.1478 16.6338 58.4258 16.6338C58.7038 16.6338 58.9408 16.7113 59.1367 16.8662C59.3372 17.0166 59.4375 17.2786 59.4375 17.6523C59.4375 18.0169 59.3372 18.2812 59.1367 18.4453C58.9408 18.6048 58.7038 18.6846 58.4258 18.6846C58.1478 18.6846 57.9108 18.6048 57.7148 18.4453C57.5234 18.2812 57.4277 18.0169 57.4277 17.6523ZM64.3525 8.36914C64.9313 8.36914 65.4531 8.46029 65.918 8.64258C66.3828 8.82031 66.752 9.08691 67.0254 9.44238C67.2988 9.79785 67.4355 10.2376 67.4355 10.7617C67.4355 11.1673 67.3512 11.5205 67.1826 11.8213C67.0186 12.1221 66.7952 12.3864 66.5127 12.6143C66.2301 12.8376 65.9134 13.0358 65.5625 13.209C65.9544 13.4004 66.3145 13.6214 66.6426 13.8721C66.9753 14.1182 67.2419 14.4076 67.4424 14.7402C67.6475 15.0729 67.75 15.4626 67.75 15.9092C67.75 16.4697 67.6064 16.9551 67.3193 17.3652C67.0368 17.7708 66.6426 18.0853 66.1367 18.3086C65.6309 18.5273 65.0407 18.6367 64.3662 18.6367C63.6416 18.6367 63.0241 18.5296 62.5137 18.3154C62.0033 18.1012 61.6159 17.7959 61.3516 17.3994C61.0872 16.9984 60.9551 16.5199 60.9551 15.9639C60.9551 15.5036 61.0462 15.1048 61.2285 14.7676C61.4108 14.4303 61.6546 14.1387 61.96 13.8926C62.2699 13.6465 62.6094 13.4391 62.9785 13.2705C62.6641 13.0837 62.377 12.874 62.1172 12.6416C61.8574 12.4046 61.6501 12.1335 61.4951 11.8281C61.3447 11.5182 61.2695 11.1605 61.2695 10.7549C61.2695 10.2354 61.4085 9.80013 61.6865 9.44922C61.9645 9.09375 62.3359 8.82487 62.8008 8.64258C63.2702 8.46029 63.7874 8.36914 64.3525 8.36914ZM62.4863 15.9023C62.4863 16.3398 62.6413 16.6999 62.9512 16.9824C63.2611 17.265 63.7236 17.4062 64.3389 17.4062C64.9495 17.4062 65.4144 17.2673 65.7334 16.9893C66.0524 16.7113 66.2119 16.3444 66.2119 15.8887C66.2119 15.597 66.1299 15.3395 65.9658 15.1162C65.8063 14.8929 65.5898 14.6947 65.3164 14.5215C65.0475 14.3438 64.749 14.1797 64.4209 14.0293L64.2021 13.9404C63.8467 14.0908 63.5413 14.2617 63.2861 14.4531C63.0309 14.64 62.8327 14.8519 62.6914 15.0889C62.5547 15.3258 62.4863 15.597 62.4863 15.9023ZM64.3389 9.60645C63.8968 9.60645 63.5322 9.71582 63.2451 9.93457C62.9626 10.1488 62.8213 10.4587 62.8213 10.8643C62.8213 11.1514 62.8896 11.3975 63.0264 11.6025C63.1676 11.8076 63.3568 11.9854 63.5938 12.1357C63.8307 12.2816 64.0928 12.4183 64.3799 12.5459C64.6579 12.4229 64.9085 12.2884 65.1318 12.1426C65.3597 11.9922 65.5397 11.8145 65.6719 11.6094C65.8086 11.3997 65.877 11.1491 65.877 10.8574C65.877 10.4564 65.7334 10.1488 65.4463 9.93457C65.1637 9.71582 64.7946 9.60645 64.3389 9.60645Z" fill="#868583"/>
<path d="M77.8607 6.5L80.1351 11.1078L85.2213 11.8512L81.541 15.4359L82.4096 20.5L77.8607 18.1078L73.3118 20.5L74.1803 15.4359L70.5 11.8512L75.5862 11.1078L77.8607 6.5Z" fill="#FFE234"/>
<path d="M52.3232 33.5H51.1709V28.9053C51.1709 28.7523 51.1725 28.5993 51.1758 28.4463C51.179 28.2933 51.1823 28.1436 51.1855 27.9971C51.1921 27.8506 51.2002 27.7106 51.21 27.5771C51.1416 27.652 51.057 27.7334 50.9561 27.8213C50.8584 27.9092 50.7542 28.0003 50.6436 28.0947L49.8232 28.749L49.2471 28.0215L51.3662 26.3613H52.3232V33.5ZM56.2002 32.3379L56.2686 32.4502C56.21 32.6846 56.1351 32.9368 56.0439 33.207C55.9528 33.4772 55.8535 33.7474 55.7461 34.0176C55.6387 34.291 55.5296 34.5482 55.4189 34.7891H54.5791C54.6475 34.5254 54.7126 34.2487 54.7744 33.959C54.8395 33.6725 54.8981 33.3893 54.9502 33.1094C55.0055 32.8262 55.0495 32.569 55.082 32.3379H56.2002ZM62.2305 33.5H57.3965V32.6357L59.2471 30.7607C59.6051 30.3962 59.8997 30.082 60.1309 29.8184C60.362 29.5514 60.5329 29.2992 60.6436 29.0615C60.7575 28.8239 60.8145 28.5651 60.8145 28.2852C60.8145 27.9401 60.7152 27.6797 60.5166 27.5039C60.318 27.3249 60.056 27.2354 59.7305 27.2354C59.4212 27.2354 59.1348 27.2972 58.8711 27.4209C58.6107 27.5413 58.3405 27.7139 58.0605 27.9385L57.4307 27.1816C57.6292 27.0124 57.8408 26.8577 58.0654 26.7178C58.2933 26.5778 58.5472 26.4671 58.8271 26.3857C59.1071 26.3011 59.4261 26.2588 59.7842 26.2588C60.2367 26.2588 60.6273 26.3402 60.9561 26.5029C61.2848 26.6624 61.5371 26.8854 61.7129 27.1719C61.8919 27.4583 61.9814 27.792 61.9814 28.1729C61.9814 28.557 61.9049 28.9118 61.752 29.2373C61.599 29.5628 61.3809 29.8851 61.0977 30.2041C60.8145 30.5199 60.4775 30.8633 60.0869 31.2344L58.8516 32.4404V32.4941H62.2305V33.5ZM65.5264 26.2637C65.9398 26.2637 66.3125 26.3288 66.6445 26.459C66.9766 26.5859 67.2402 26.7764 67.4355 27.0303C67.6309 27.2842 67.7285 27.5983 67.7285 27.9727C67.7285 28.2624 67.6683 28.5146 67.5479 28.7295C67.4307 28.9443 67.2712 29.1331 67.0693 29.2959C66.8675 29.4554 66.6413 29.597 66.3906 29.7207C66.6706 29.8574 66.9277 30.0153 67.1621 30.1943C67.3997 30.3701 67.5902 30.5768 67.7334 30.8145C67.8799 31.0521 67.9531 31.3304 67.9531 31.6494C67.9531 32.0498 67.8506 32.3965 67.6455 32.6895C67.4437 32.9792 67.1621 33.2038 66.8008 33.3633C66.4395 33.5195 66.0179 33.5977 65.5361 33.5977C65.0186 33.5977 64.5775 33.5212 64.2129 33.3682C63.8483 33.2152 63.5716 32.9971 63.3828 32.7139C63.194 32.4274 63.0996 32.0856 63.0996 31.6885C63.0996 31.3597 63.1647 31.0749 63.2949 30.834C63.4251 30.5931 63.5993 30.3848 63.8174 30.209C64.0387 30.0332 64.2812 29.8851 64.5449 29.7646C64.3203 29.6312 64.1152 29.4814 63.9297 29.3154C63.7441 29.1462 63.596 28.9525 63.4854 28.7344C63.3779 28.513 63.3242 28.2575 63.3242 27.9678C63.3242 27.5967 63.4235 27.2858 63.6221 27.0352C63.8206 26.7812 64.0859 26.5892 64.418 26.459C64.7533 26.3288 65.1227 26.2637 65.5264 26.2637ZM64.1934 31.6445C64.1934 31.957 64.304 32.2142 64.5254 32.416C64.7467 32.6178 65.0771 32.7188 65.5166 32.7188C65.9528 32.7188 66.2848 32.6195 66.5127 32.4209C66.7406 32.2223 66.8545 31.9603 66.8545 31.6348C66.8545 31.4264 66.7959 31.2425 66.6787 31.083C66.5648 30.9235 66.4102 30.7819 66.2148 30.6582C66.0228 30.5312 65.8096 30.4141 65.5752 30.3066L65.4189 30.2432C65.165 30.3506 64.9469 30.4727 64.7646 30.6094C64.5824 30.7428 64.4408 30.8942 64.3398 31.0635C64.2422 31.2327 64.1934 31.4264 64.1934 31.6445ZM65.5166 27.1475C65.2008 27.1475 64.9404 27.2256 64.7354 27.3818C64.5335 27.5348 64.4326 27.7562 64.4326 28.0459C64.4326 28.251 64.4814 28.4268 64.5791 28.5732C64.68 28.7197 64.8151 28.8467 64.9844 28.9541C65.1536 29.0583 65.3408 29.1559 65.5459 29.2471C65.7445 29.1592 65.9235 29.0632 66.083 28.959C66.2458 28.8516 66.3743 28.7246 66.4688 28.5781C66.5664 28.4284 66.6152 28.2493 66.6152 28.041C66.6152 27.7546 66.5127 27.5348 66.3076 27.3818C66.1058 27.2256 65.8421 27.1475 65.5166 27.1475ZM72.2158 33.5H71.0635V28.9053C71.0635 28.7523 71.0651 28.5993 71.0684 28.4463C71.0716 28.2933 71.0749 28.1436 71.0781 27.9971C71.0846 27.8506 71.0928 27.7106 71.1025 27.5771C71.0342 27.652 70.9495 27.7334 70.8486 27.8213C70.751 27.9092 70.6468 28.0003 70.5361 28.0947L69.7158 28.749L69.1396 28.0215L71.2588 26.3613H72.2158V33.5ZM79.6572 26.3613C80.2725 26.3613 80.7803 26.4362 81.1807 26.5859C81.5843 26.7357 81.8838 26.9635 82.0791 27.2695C82.2777 27.5755 82.377 27.9645 82.377 28.4365C82.377 28.7881 82.3118 29.0876 82.1816 29.335C82.0514 29.5824 81.8805 29.7874 81.6689 29.9502C81.4574 30.113 81.2311 30.2432 80.9902 30.3408L83.0166 33.5H81.6934L79.9697 30.6387H78.8223V33.5H77.6504V26.3613H79.6572ZM79.5791 27.3379H78.8223V29.6719H79.6328C80.1764 29.6719 80.5703 29.571 80.8145 29.3691C81.0618 29.1673 81.1855 28.8695 81.1855 28.4756C81.1855 28.0622 81.0537 27.7692 80.79 27.5967C80.5296 27.4242 80.126 27.3379 79.5791 27.3379ZM86.0391 27.9922C86.7227 27.9922 87.2386 28.1436 87.5869 28.4463C87.9385 28.749 88.1143 29.221 88.1143 29.8623V33.5H87.2988L87.0791 32.7334H87.04C86.887 32.9287 86.7292 33.0898 86.5664 33.2168C86.4036 33.3438 86.2148 33.4382 86 33.5C85.7884 33.5651 85.5296 33.5977 85.2236 33.5977C84.9014 33.5977 84.6133 33.5391 84.3594 33.4219C84.1055 33.3014 83.9053 33.1191 83.7588 32.875C83.6123 32.6309 83.5391 32.3216 83.5391 31.9473C83.5391 31.3906 83.7458 30.9723 84.1592 30.6924C84.5758 30.4124 85.2041 30.2578 86.0439 30.2285L86.9814 30.1943V29.9111C86.9814 29.5368 86.8936 29.2699 86.7178 29.1104C86.5452 28.9508 86.3011 28.8711 85.9854 28.8711C85.7152 28.8711 85.4531 28.9102 85.1992 28.9883C84.9453 29.0664 84.6979 29.1624 84.457 29.2764L84.0859 28.4658C84.3496 28.3258 84.6491 28.2119 84.9844 28.124C85.3229 28.0361 85.6745 27.9922 86.0391 27.9922ZM86.9766 30.917L86.2783 30.9414C85.7054 30.9609 85.3034 31.0586 85.0723 31.2344C84.8411 31.4102 84.7256 31.651 84.7256 31.957C84.7256 32.224 84.8053 32.4193 84.9648 32.543C85.1243 32.6634 85.3343 32.7236 85.5947 32.7236C85.9919 32.7236 86.3206 32.6113 86.5811 32.3867C86.8447 32.1589 86.9766 31.8252 86.9766 31.3857V30.917ZM91.7324 32.6699C91.8822 32.6699 92.0303 32.6569 92.1768 32.6309C92.3232 32.6016 92.4567 32.5674 92.5771 32.5283V33.3975C92.4502 33.4528 92.2858 33.5 92.084 33.5391C91.8822 33.5781 91.6722 33.5977 91.4541 33.5977C91.1481 33.5977 90.873 33.5472 90.6289 33.4463C90.3848 33.3421 90.1911 33.1647 90.0479 32.9141C89.9046 32.6634 89.833 32.3167 89.833 31.874V28.9688H89.0957V28.4561L89.8867 28.0508L90.2627 26.8936H90.9854V28.0947H92.5332V28.9688H90.9854V31.8594C90.9854 32.1328 91.0537 32.3363 91.1904 32.4697C91.3271 32.6032 91.5078 32.6699 91.7324 32.6699ZM94.8232 28.0947V33.5H93.6758V28.0947H94.8232ZM94.2568 26.0244C94.4326 26.0244 94.584 26.0716 94.7109 26.166C94.8411 26.2604 94.9062 26.4232 94.9062 26.6543C94.9062 26.8822 94.8411 27.0449 94.7109 27.1426C94.584 27.237 94.4326 27.2842 94.2568 27.2842C94.0745 27.2842 93.9199 27.237 93.793 27.1426C93.6693 27.0449 93.6074 26.8822 93.6074 26.6543C93.6074 26.4232 93.6693 26.2604 93.793 26.166C93.9199 26.0716 94.0745 26.0244 94.2568 26.0244ZM99.2861 27.9922C99.8949 27.9922 100.368 28.1501 100.707 28.4658C101.049 28.7783 101.22 29.2812 101.22 29.9746V33.5H100.072V30.1895C100.072 29.7695 99.986 29.4554 99.8135 29.2471C99.641 29.0355 99.374 28.9297 99.0127 28.9297C98.4886 28.9297 98.124 29.0908 97.9189 29.4131C97.7171 29.7354 97.6162 30.2025 97.6162 30.8145V33.5H96.4688V28.0947H97.3623L97.5234 28.8271H97.5869C97.7041 28.6383 97.849 28.4837 98.0215 28.3633C98.1973 28.2396 98.3926 28.1468 98.6074 28.085C98.8255 28.0231 99.0518 27.9922 99.2861 27.9922ZM104.369 35.9023C103.637 35.9023 103.075 35.7705 102.685 35.5068C102.294 35.2432 102.099 34.8737 102.099 34.3984C102.099 34.0664 102.203 33.7848 102.411 33.5537C102.619 33.3258 102.917 33.168 103.305 33.0801C103.158 33.015 103.031 32.9141 102.924 32.7773C102.82 32.6374 102.768 32.4827 102.768 32.3135C102.768 32.1117 102.825 31.9391 102.938 31.7959C103.052 31.6527 103.223 31.5143 103.451 31.3809C103.168 31.2604 102.94 31.0651 102.768 30.7949C102.598 30.5215 102.514 30.2008 102.514 29.833C102.514 29.4424 102.597 29.1104 102.763 28.8369C102.929 28.5602 103.171 28.3503 103.49 28.207C103.809 28.0605 104.195 27.9873 104.647 27.9873C104.745 27.9873 104.851 27.9938 104.965 28.0068C105.082 28.0166 105.189 28.0296 105.287 28.0459C105.388 28.0589 105.465 28.0736 105.517 28.0898H107.387V28.7295L106.469 28.9004C106.557 29.0241 106.627 29.1657 106.679 29.3252C106.731 29.4814 106.757 29.6523 106.757 29.8379C106.757 30.3978 106.563 30.8389 106.176 31.1611C105.792 31.4801 105.261 31.6396 104.584 31.6396C104.421 31.6331 104.263 31.6201 104.11 31.6006C103.993 31.6722 103.904 31.752 103.842 31.8398C103.78 31.9245 103.749 32.0205 103.749 32.1279C103.749 32.2158 103.78 32.2874 103.842 32.3428C103.904 32.3949 103.995 32.4339 104.115 32.46C104.239 32.486 104.389 32.499 104.564 32.499H105.497C106.09 32.499 106.542 32.6243 106.854 32.875C107.167 33.1257 107.323 33.4935 107.323 33.9785C107.323 34.5938 107.069 35.0674 106.562 35.3994C106.054 35.7347 105.323 35.9023 104.369 35.9023ZM104.413 35.0967C104.813 35.0967 105.15 35.0576 105.424 34.9795C105.697 34.9014 105.904 34.7891 106.044 34.6426C106.184 34.4993 106.254 34.3285 106.254 34.1299C106.254 33.9541 106.21 33.819 106.122 33.7246C106.034 33.6302 105.902 33.5651 105.727 33.5293C105.551 33.4935 105.333 33.4756 105.072 33.4756H104.223C104.011 33.4756 103.824 33.5081 103.661 33.5732C103.498 33.6416 103.371 33.7393 103.28 33.8662C103.192 33.9932 103.148 34.1462 103.148 34.3252C103.148 34.5726 103.257 34.763 103.476 34.8965C103.697 35.0299 104.009 35.0967 104.413 35.0967ZM104.638 30.8877C104.973 30.8877 105.222 30.7965 105.385 30.6143C105.548 30.4287 105.629 30.1683 105.629 29.833C105.629 29.4684 105.544 29.195 105.375 29.0127C105.209 28.8304 104.962 28.7393 104.633 28.7393C104.311 28.7393 104.065 28.832 103.896 29.0176C103.729 29.2031 103.646 29.4782 103.646 29.8428C103.646 30.1715 103.729 30.4287 103.896 30.6143C104.065 30.7965 104.312 30.8877 104.638 30.8877ZM112.006 31.957C112.006 32.3118 111.92 32.6113 111.747 32.8555C111.575 33.0996 111.322 33.2852 110.99 33.4121C110.661 33.5358 110.258 33.5977 109.779 33.5977C109.402 33.5977 109.076 33.57 108.803 33.5146C108.533 33.4626 108.277 33.3812 108.036 33.2705V32.2793C108.293 32.3997 108.581 32.5039 108.9 32.5918C109.223 32.6797 109.527 32.7236 109.813 32.7236C110.191 32.7236 110.463 32.665 110.629 32.5479C110.795 32.4274 110.878 32.2679 110.878 32.0693C110.878 31.9521 110.844 31.848 110.775 31.7568C110.71 31.6624 110.587 31.5664 110.404 31.4688C110.225 31.3678 109.962 31.2474 109.613 31.1074C109.271 30.9707 108.983 30.834 108.749 30.6973C108.515 30.5605 108.337 30.3962 108.217 30.2041C108.096 30.0088 108.036 29.7598 108.036 29.457C108.036 28.9785 108.225 28.6156 108.603 28.3682C108.983 28.1175 109.486 27.9922 110.111 27.9922C110.443 27.9922 110.756 28.0264 111.049 28.0947C111.345 28.1598 111.635 28.2559 111.918 28.3828L111.557 29.2471C111.312 29.1396 111.067 29.0518 110.819 28.9834C110.575 28.9118 110.326 28.876 110.072 28.876C109.776 28.876 109.55 28.9215 109.394 29.0127C109.241 29.1038 109.164 29.234 109.164 29.4033C109.164 29.5303 109.201 29.6377 109.276 29.7256C109.351 29.8135 109.48 29.9014 109.662 29.9893C109.848 30.0771 110.105 30.1862 110.434 30.3164C110.756 30.4401 111.034 30.5703 111.269 30.707C111.506 30.8405 111.688 31.0049 111.815 31.2002C111.942 31.3955 112.006 31.6478 112.006 31.957Z" fill="#868583"/>
<defs>
<linearGradient id="paint0_linear_4362_18512" x1="20.4998" y1="1.09" x2="20.4998" y2="38.91" gradientUnits="userSpaceOnUse">
<stop stop-color="#17C9FB"/>
<stop offset="1" stop-color="#1A74E8"/>
</linearGradient>
</defs>
</svg>
