<svg width="40" height="41" viewBox="0 0 40 41" fill="none" xmlns="http://www.w3.org/2000/svg">
<rect y="0.670898" width="40" height="40" rx="10" fill="#0082D2" fill-opacity="0.05"/>
<g clip-path="url(#clip0_4308_2047)">
<path d="M27.2394 8.85392C27.5019 8.59151 27.8578 8.44409 28.229 8.44409C28.6001 8.44409 28.956 8.59151 29.2185 8.85392L31.3222 10.9578C31.5846 11.2202 31.732 11.5762 31.732 11.9474C31.732 12.3185 31.5846 12.6745 31.3222 12.937L29.2185 15.0408C28.956 15.3033 28.6001 15.4507 28.229 15.4507C27.8578 15.4507 27.5019 15.3033 27.2394 15.0408L25.1343 12.937C24.8719 12.6745 24.7245 12.3185 24.7245 11.9474C24.7245 11.5762 24.8719 11.2202 25.1343 10.9578L27.238 8.85392H27.2394ZM12.8312 30.8441H14.9307V25.2451H9.33203V27.3447C9.33203 28.2728 9.70069 29.1629 10.3569 29.8191C11.0131 30.4754 11.9032 30.8441 12.8312 30.8441ZM14.9307 18.2463V23.8453H9.33203V18.2463H14.9307ZM21.9291 23.8453H16.3304V18.2463H21.9291V23.8453ZM16.3304 25.2451H21.9291V30.8441H16.3304V25.2451ZM23.3287 18.2463V23.8453H28.9274V18.2463H23.3287ZM23.3287 25.2451H28.9274V27.3447C28.9274 28.2728 28.5587 29.1629 27.9025 29.8191C27.2463 30.4754 26.3563 30.8441 25.4282 30.8441H23.3287V25.2451ZM9.33203 16.8465H14.9307V11.2475H12.8312C11.9032 11.2475 11.0131 11.6162 10.3569 12.2725C9.70069 12.9287 9.33203 13.8188 9.33203 14.7469V16.8465ZM16.3304 16.8465V11.2475H21.9291V16.8465H16.3304Z" fill="#0082D2"/>
</g>
<defs>
<clipPath id="clip0_4308_2047">
<rect width="24" height="24" fill="white" transform="translate(8 8.6709)"/>
</clipPath>
</defs>
</svg>
