<svg width="40" height="41" viewBox="0 0 40 41" fill="none" xmlns="http://www.w3.org/2000/svg">
<rect y="0.670898" width="40" height="40" rx="10" fill="#0082D2" fill-opacity="0.05"/>
<path d="M26.0641 14.6709C26.0641 17.985 23.3487 20.6709 19.9555 20.6709C16.6477 20.6709 13.8896 17.985 13.8896 14.6709C13.8896 11.3573 16.6477 8.6709 19.9555 8.6709C23.3487 8.6709 26.0641 11.3573 26.0641 14.6709ZM22.9885 25.6396C21.7232 25.9725 20.7138 27.149 20.7138 28.5459V29.6709C20.7138 29.8678 20.837 30.06 20.9792 30.2006L21.7374 30.9506C22.0312 31.2459 22.5146 31.2459 22.8084 30.9506C23.107 30.66 23.107 30.1818 22.8084 29.8912L22.2303 29.3615V28.5459C22.2303 27.7162 22.9506 27.0459 23.7468 27.0459C24.6282 27.0459 25.3059 27.7162 25.3059 28.5459V29.3615L24.7704 29.8912C24.4718 30.1818 24.4718 30.66 24.7704 30.9506C25.0642 31.2459 25.5476 31.2459 25.8414 30.9506L26.5996 30.2006C26.7418 30.06 26.8224 29.8678 26.8224 29.6709V28.5459C26.8224 27.149 25.8556 25.9725 24.5476 25.6396V23.1459C28.0308 23.985 30.6136 27.0506 30.6136 30.7959V31.1709C30.6136 32.0006 29.9359 32.6709 29.0971 32.6709H10.8993C10.0619 32.6709 9.38281 32.0006 9.38281 31.1709V30.7959C9.38281 27.0928 11.967 23.985 15.4487 23.1459V26.0287C14.354 26.3521 13.5531 27.3553 13.5531 28.5459C13.5531 29.9943 14.7426 31.1709 16.207 31.1709C17.6713 31.1709 18.8608 29.9943 18.8608 28.5459C18.8608 27.3553 18.0599 26.3521 16.9652 26.0287V22.9303C17.0932 22.9256 17.2164 22.9209 17.3444 22.9209H22.652C22.78 22.9209 22.9032 22.9256 23.0312 22.9303L22.9885 25.6396ZM17.3017 28.5459C17.3017 29.1693 16.8373 29.6709 16.1643 29.6709C15.5767 29.6709 15.027 29.1693 15.027 28.5459C15.027 27.9225 15.5767 27.4209 16.1643 27.4209C16.8373 27.4209 17.3017 27.9225 17.3017 28.5459Z" fill="#0082D2"/>
</svg>
