<svg width="40" height="41" viewBox="0 0 40 41" fill="none" xmlns="http://www.w3.org/2000/svg">
<rect y="0.670898" width="40" height="40" rx="10" fill="#0082D2" fill-opacity="0.05"/>
<path d="M10.0703 11.6709V29.6709C10.0703 30.4665 10.3874 31.2296 10.9517 31.7922C11.5161 32.3548 12.2816 32.6709 13.0797 32.6709H29.0296C29.269 32.6709 29.4986 32.5761 29.668 32.4073C29.8373 32.2385 29.9324 32.0096 29.9324 31.7709C29.9324 31.5322 29.8373 31.3033 29.668 31.1345C29.4986 30.9657 29.269 30.8709 29.0296 30.8709H13.0797C12.7605 30.8709 12.4543 30.7445 12.2285 30.5194C12.0028 30.2944 11.876 29.9892 11.876 29.6709H29.0296C29.269 29.6709 29.4986 29.5761 29.668 29.4073C29.8373 29.2385 29.9324 29.0096 29.9324 28.7709V11.6709C29.9324 11.2769 29.8545 10.8868 29.7033 10.5228C29.5521 10.1589 29.3304 9.82815 29.051 9.54958C28.7715 9.271 28.4397 9.05002 28.0746 8.89926C27.7095 8.7485 27.3182 8.6709 26.923 8.6709H13.0797C12.2816 8.6709 11.5161 8.98697 10.9517 9.54958C10.3874 10.1122 10.0703 10.8752 10.0703 11.6709ZM18.4966 15.8925C18.491 16.1274 18.3934 16.3508 18.2247 16.515C18.056 16.6791 17.8296 16.771 17.5938 16.7709C16.691 16.7709 16.691 15.8697 16.691 15.8697V15.8589C16.6916 15.8052 16.6949 15.7515 16.7006 15.6981C16.7539 15.2346 16.9282 14.7931 17.2062 14.4177C17.7527 13.6821 18.735 13.1433 20.3179 13.1709C21.4615 13.1913 22.4763 13.6689 23.1119 14.4549C23.7583 15.2553 23.9762 16.3389 23.5476 17.4057C23.1119 18.4917 22.126 18.9237 21.559 19.1709L21.4988 19.1985C21.1618 19.3461 21.0017 19.4229 20.9054 19.4997L20.9042 19.5009V20.3697C20.9043 20.6084 20.8094 20.8374 20.6402 21.0063C20.471 21.1752 20.2414 21.2701 20.002 21.2703C19.7625 21.2705 19.5328 21.1758 19.3634 21.0071C19.194 20.8384 19.0987 20.6096 19.0985 20.3709V19.4709C19.0985 18.8433 19.4019 18.3945 19.7762 18.0945C20.0772 17.8545 20.4564 17.6889 20.7224 17.5713L20.7681 17.5509C21.4206 17.2641 21.7312 17.0865 21.872 16.7361C21.9547 16.5477 21.9829 16.34 21.9536 16.1365C21.9242 15.933 21.8384 15.7416 21.7059 15.5841C21.4386 15.2541 20.9487 14.9817 20.2866 14.9709C19.1611 14.9517 18.788 15.3129 18.658 15.4893C18.5719 15.6058 18.5164 15.7419 18.4966 15.8853V15.8925ZM21.2051 23.6709C21.2051 23.9892 21.0783 24.2944 20.8525 24.5194C20.6268 24.7445 20.3206 24.8709 20.0013 24.8709C19.6821 24.8709 19.3759 24.7445 19.1502 24.5194C18.9244 24.2944 18.7976 23.9892 18.7976 23.6709C18.7976 23.3526 18.9244 23.0474 19.1502 22.8224C19.3759 22.5973 19.6821 22.4709 20.0013 22.4709C20.3206 22.4709 20.6268 22.5973 20.8525 22.8224C21.0783 23.0474 21.2051 23.3526 21.2051 23.6709Z" fill="#0082D2"/>
</svg>
