<svg width="40" height="41" viewBox="0 0 40 41" fill="none" xmlns="http://www.w3.org/2000/svg">
<rect y="0.670898" width="40" height="40" rx="10" fill="#0082D2" fill-opacity="0.05"/>
<g clip-path="url(#clip0_4308_1269)">
<path d="M18.0786 8.6709C17.9513 8.6709 17.8292 8.72147 17.7392 8.81149C17.6492 8.9015 17.5986 9.02359 17.5986 9.1509V10.1109C17.5986 10.2382 17.6492 10.3603 17.7392 10.4503C17.8292 10.5403 17.9513 10.5909 18.0786 10.5909H18.7986V11.8617C13.606 12.4593 9.55859 16.8811 9.55859 22.2309C9.55859 27.9868 14.2427 32.6709 19.9986 32.6709C25.7545 32.6709 30.4386 27.9868 30.4386 22.2309C30.4403 20.2608 29.8808 18.331 28.8258 16.6672L29.8429 15.8438L30.296 16.4035C30.3357 16.4525 30.3846 16.4932 30.44 16.5233C30.4954 16.5534 30.5561 16.5723 30.6188 16.5789C30.6815 16.5856 30.7449 16.5798 30.8054 16.5619C30.8658 16.544 30.9221 16.5144 30.9712 16.4747L31.7176 15.8704C31.8164 15.7903 31.8793 15.6741 31.8925 15.5476C31.9058 15.421 31.8682 15.2944 31.7881 15.1955L29.3718 12.2109C29.3321 12.1619 29.2832 12.1212 29.2278 12.0911C29.1725 12.0609 29.1117 12.042 29.049 12.0354C28.9863 12.0288 28.9229 12.0346 28.8625 12.0525C28.802 12.0704 28.7457 12.1 28.6967 12.1396L27.9503 12.7439C27.8515 12.8241 27.7885 12.9402 27.7753 13.0668C27.7621 13.1933 27.7996 13.3199 27.8797 13.4188L28.3331 13.9785L27.3203 14.7979C25.7034 13.2047 23.5705 12.1353 21.1986 11.8622V10.5909H21.9186C22.0459 10.5909 22.168 10.5403 22.258 10.4503C22.348 10.3603 22.3986 10.2382 22.3986 10.1109V9.1509C22.3986 9.02359 22.348 8.9015 22.258 8.81149C22.168 8.72147 22.0459 8.6709 21.9186 8.6709H18.0786ZM19.9986 13.4709C24.8466 13.4709 28.7586 17.3829 28.7586 22.2309C28.7586 27.0789 24.8466 30.9909 19.9986 30.9909C15.1506 30.9909 11.2386 27.0789 11.2386 22.2309C11.2386 17.3829 15.1506 13.4709 19.9986 13.4709ZM19.9991 15.2572L19.9986 22.2309L25.5748 26.4182C26.3526 25.3823 26.8265 24.1503 26.9434 22.8603C27.0603 21.5702 26.8156 20.273 26.2367 19.1143C25.6578 17.9555 24.7675 16.9809 23.6658 16.2997C22.5641 15.6185 21.2944 15.2576 19.9991 15.2575V15.2572Z" fill="#0082D2"/>
</g>
<defs>
<clipPath id="clip0_4308_1269">
<rect width="24" height="24" fill="white" transform="translate(8 8.6709)"/>
</clipPath>
</defs>
</svg>
