<svg width="41" height="41" viewBox="0 0 41 41" fill="none" xmlns="http://www.w3.org/2000/svg">
<g clip-path="url(#clip0_1214_2976)">
<path d="M20.3335 40.6348C31.3792 40.6348 40.3335 31.6805 40.3335 20.6348C40.3335 9.58907 31.3792 0.634766 20.3335 0.634766C9.2878 0.634766 0.333496 9.58907 0.333496 20.6348C0.333496 31.6805 9.2878 40.6348 20.3335 40.6348Z" fill="#1877F2"/>
<path d="M26.8368 6.77368H22.4063C19.7771 6.77368 16.8527 7.87949 16.8527 11.6906C16.8655 13.0186 16.8527 14.2904 16.8527 15.7217H13.811V20.5618H16.9468V34.4957H22.7089V20.4698H26.5121L26.8562 15.7081H22.6096C22.6096 15.7081 22.6191 13.5898 22.6096 12.9747C22.6096 11.4686 24.1767 11.5549 24.271 11.5549C25.0167 11.5549 26.4667 11.557 26.8389 11.5549V6.77368H26.8368Z" fill="white"/>
</g>
<defs>
<clipPath id="clip0_1214_2976">
<rect width="40" height="40" fill="white" transform="translate(0.333496 0.634766)"/>
</clipPath>
</defs>
</svg>
