<svg width="140" height="43" viewBox="0 0 140 43" fill="none" xmlns="http://www.w3.org/2000/svg">
<circle cx="26.5001" cy="21.5854" r="19.8575" fill="url(#paint0_linear_4362_17073)"/>
<path d="M33.8957 27.6584L34.7778 22.0537H29.2597V18.4182C29.2597 16.8845 30.0291 15.3886 32.5006 15.3886H35.011V10.617C35.011 10.617 32.7338 10.2383 30.5576 10.2383C26.011 10.2383 23.0421 12.9232 23.0421 17.7819V22.0537H17.9902V27.6584H23.0421V41.2082C24.0563 41.3635 25.0939 41.443 26.1509 41.443C27.2079 41.443 28.2455 41.3635 29.2597 41.2082V27.6584H33.8957Z" fill="white"/>
<path d="M69.6924 17.1372H67.5654V20.5854H65.0732V17.1372H57.9297V15.2251L65.1055 4.8374H67.5654V15.0425H69.6924V17.1372ZM65.0732 15.0425V11.1431C65.0732 10.8208 65.0768 10.495 65.084 10.1655C65.0983 9.82894 65.1126 9.50667 65.127 9.19873C65.1413 8.89079 65.1556 8.60791 65.1699 8.3501C65.1842 8.08512 65.195 7.8667 65.2021 7.69482H65.1162C64.9801 7.98128 64.8298 8.2749 64.665 8.57568C64.5003 8.8693 64.3249 9.15576 64.1387 9.43506L60.2715 15.0425H65.0732ZM71.5293 19.2534C71.5293 18.6662 71.6797 18.2544 71.9805 18.0181C72.2884 17.7746 72.6608 17.6528 73.0977 17.6528C73.5345 17.6528 73.9069 17.7746 74.2148 18.0181C74.5299 18.2544 74.6875 18.6662 74.6875 19.2534C74.6875 19.8263 74.5299 20.2417 74.2148 20.4995C73.9069 20.7502 73.5345 20.8755 73.0977 20.8755C72.6608 20.8755 72.2884 20.7502 71.9805 20.4995C71.6797 20.2417 71.5293 19.8263 71.5293 19.2534ZM78.9092 20.5854L85.0752 7.09326H76.9219V4.88037H87.793V6.60986L81.627 20.5854H78.9092Z" fill="#868583"/>
<path d="M102.501 2.41878L105.333 8.15711L111.667 9.08295L107.084 13.5471L108.166 19.8538L102.501 16.8746L96.8357 19.8538L97.9173 13.5471L93.334 9.08295L99.6682 8.15711L102.501 2.41878Z" fill="#FFE234"/>
<path d="M62.0879 36.5854H60.7051V31.0718C60.7051 30.8882 60.707 30.7046 60.7109 30.521C60.7148 30.3374 60.7188 30.1577 60.7227 29.9819C60.7305 29.8062 60.7402 29.6382 60.752 29.478C60.6699 29.5679 60.5684 29.6655 60.4473 29.771C60.3301 29.8765 60.2051 29.9858 60.0723 30.0991L59.0879 30.8843L58.3965 30.0112L60.9395 28.019H62.0879V36.5854ZM66.7402 35.1909L66.8223 35.3257C66.752 35.6069 66.6621 35.9097 66.5527 36.2339C66.4434 36.5581 66.3242 36.8823 66.1953 37.2065C66.0664 37.5347 65.9355 37.8433 65.8027 38.1323H64.7949C64.877 37.8159 64.9551 37.4839 65.0293 37.1362C65.1074 36.7925 65.1777 36.4526 65.2402 36.1167C65.3066 35.7769 65.3594 35.4683 65.3984 35.1909H66.7402ZM71.0645 27.9019C71.5605 27.9019 72.0078 27.98 72.4062 28.1362C72.8047 28.2886 73.1211 28.5171 73.3555 28.8218C73.5898 29.1265 73.707 29.5034 73.707 29.9526C73.707 30.3003 73.6348 30.603 73.4902 30.8608C73.3496 31.1187 73.1582 31.3452 72.916 31.5405C72.6738 31.7319 72.4023 31.9019 72.1016 32.0503C72.4375 32.2144 72.7461 32.4038 73.0273 32.6187C73.3125 32.8296 73.541 33.0776 73.7129 33.3628C73.8887 33.6479 73.9766 33.9819 73.9766 34.3647C73.9766 34.8452 73.8535 35.2612 73.6074 35.6128C73.3652 35.9604 73.0273 36.23 72.5938 36.4214C72.1602 36.6089 71.6543 36.7026 71.0762 36.7026C70.4551 36.7026 69.9258 36.6108 69.4883 36.4272C69.0508 36.2437 68.7188 35.9819 68.4922 35.6421C68.2656 35.2983 68.1523 34.8882 68.1523 34.4116C68.1523 34.0171 68.2305 33.6753 68.3867 33.3862C68.543 33.0972 68.752 32.8472 69.0137 32.6362C69.2793 32.4253 69.5703 32.2476 69.8867 32.103C69.6172 31.9429 69.3711 31.7632 69.1484 31.564C68.9258 31.3608 68.748 31.1284 68.6152 30.8667C68.4863 30.6011 68.4219 30.2944 68.4219 29.9468C68.4219 29.5015 68.541 29.1284 68.7793 28.8276C69.0176 28.5229 69.3359 28.2925 69.7344 28.1362C70.1367 27.98 70.5801 27.9019 71.0645 27.9019ZM69.4648 34.3589C69.4648 34.7339 69.5977 35.0425 69.8633 35.2847C70.1289 35.5269 70.5254 35.6479 71.0527 35.6479C71.5762 35.6479 71.9746 35.5288 72.248 35.2905C72.5215 35.0522 72.6582 34.7378 72.6582 34.3472C72.6582 34.0972 72.5879 33.8765 72.4473 33.6851C72.3105 33.4937 72.125 33.3237 71.8906 33.1753C71.6602 33.0229 71.4043 32.8823 71.123 32.7534L70.9355 32.6772C70.6309 32.8062 70.3691 32.9526 70.1504 33.1167C69.9316 33.2769 69.7617 33.4585 69.6406 33.6616C69.5234 33.8647 69.4648 34.0972 69.4648 34.3589ZM71.0527 28.9624C70.6738 28.9624 70.3613 29.0562 70.1152 29.2437C69.873 29.4272 69.752 29.6929 69.752 30.0405C69.752 30.2866 69.8105 30.4976 69.9277 30.6733C70.0488 30.8491 70.2109 31.0015 70.4141 31.1304C70.6172 31.2554 70.8418 31.3726 71.0879 31.4819C71.3262 31.3765 71.541 31.2612 71.7324 31.1362C71.9277 31.0073 72.082 30.855 72.1953 30.6792C72.3125 30.4995 72.3711 30.2847 72.3711 30.0347C72.3711 29.6909 72.248 29.4272 72.002 29.2437C71.7598 29.0562 71.4434 28.9624 71.0527 28.9624ZM80.5156 29.9761C80.5156 30.3628 80.4375 30.6987 80.2812 30.9839C80.125 31.269 79.9102 31.5034 79.6367 31.687C79.3672 31.8667 79.0547 31.9956 78.6992 32.0737V32.1147C79.3828 32.2007 79.8984 32.4155 80.2461 32.7593C80.5977 33.103 80.7734 33.5581 80.7734 34.1245C80.7734 34.6206 80.6543 35.064 80.416 35.4546C80.1777 35.8413 79.8125 36.146 79.3203 36.3687C78.8281 36.5913 78.1953 36.7026 77.4219 36.7026C76.957 36.7026 76.5254 36.6655 76.127 36.5913C75.7324 36.5171 75.3574 36.3979 75.002 36.2339V35.0093C75.3652 35.189 75.752 35.3276 76.1621 35.4253C76.5723 35.5229 76.9609 35.5718 77.3281 35.5718C78.043 35.5718 78.5527 35.439 78.8574 35.1733C79.1621 34.9038 79.3145 34.5327 79.3145 34.0601C79.3145 33.7554 79.2344 33.5054 79.0742 33.3101C78.918 33.1147 78.6738 32.9683 78.3418 32.8706C78.0137 32.7729 77.5898 32.7241 77.0703 32.7241H76.3145V31.6167H77.0762C77.5723 31.6167 77.9707 31.5581 78.2715 31.4409C78.5723 31.3198 78.7891 31.1538 78.9219 30.9429C79.0586 30.7319 79.127 30.4858 79.127 30.2046C79.127 29.8374 79.0078 29.5522 78.7695 29.3491C78.5312 29.1421 78.1777 29.0386 77.709 29.0386C77.4199 29.0386 77.1562 29.0718 76.918 29.1382C76.6836 29.2046 76.4668 29.2886 76.2676 29.3901C76.0684 29.4917 75.8789 29.6011 75.6992 29.7183L75.0371 28.7632C75.3613 28.521 75.748 28.3159 76.1973 28.1479C76.6465 27.98 77.1699 27.896 77.7676 27.896C78.6465 27.896 79.3242 28.0854 79.8008 28.4644C80.2773 28.8394 80.5156 29.3433 80.5156 29.9761ZM81.9219 32.9351C81.9219 32.4312 81.957 31.9351 82.0273 31.4468C82.1016 30.9585 82.2266 30.5015 82.4023 30.0757C82.5781 29.6499 82.8203 29.2749 83.1289 28.9507C83.4414 28.6265 83.834 28.3726 84.3066 28.189C84.7793 28.0015 85.3477 27.9077 86.0117 27.9077C86.1836 27.9077 86.377 27.9155 86.5918 27.9312C86.8066 27.9468 86.9844 27.9722 87.125 28.0073V29.1499C86.9727 29.1069 86.8047 29.0737 86.6211 29.0503C86.4414 29.0269 86.2617 29.0151 86.082 29.0151C85.3633 29.0151 84.8027 29.1519 84.4004 29.4253C83.998 29.6948 83.7109 30.0659 83.5391 30.5386C83.3672 31.0073 83.2676 31.5444 83.2402 32.1499H83.3105C83.4277 31.9546 83.5742 31.7808 83.75 31.6284C83.9258 31.4761 84.1406 31.355 84.3945 31.2651C84.6484 31.1714 84.9434 31.1245 85.2793 31.1245C85.7793 31.1245 86.2148 31.23 86.5859 31.4409C86.957 31.6479 87.2422 31.9487 87.4414 32.3433C87.6445 32.7378 87.7461 33.2163 87.7461 33.7788C87.7461 34.3843 87.6309 34.9058 87.4004 35.3433C87.1738 35.7808 86.8496 36.1167 86.4277 36.3511C86.0098 36.5854 85.5117 36.7026 84.9336 36.7026C84.5078 36.7026 84.1113 36.6245 83.7441 36.4683C83.3809 36.312 83.0625 36.0776 82.7891 35.7651C82.5156 35.4526 82.3027 35.062 82.1504 34.5933C81.998 34.1206 81.9219 33.5679 81.9219 32.9351ZM84.9102 35.5659C85.3555 35.5659 85.7129 35.4214 85.9824 35.1323C86.2559 34.8394 86.3926 34.3921 86.3926 33.7905C86.3926 33.3022 86.2715 32.9155 86.0293 32.6304C85.791 32.3452 85.4316 32.2026 84.9512 32.2026C84.623 32.2026 84.3359 32.2729 84.0898 32.4136C83.8438 32.5542 83.6523 32.7319 83.5156 32.9468C83.3828 33.1616 83.3164 33.3804 83.3164 33.603C83.3164 33.8296 83.3496 34.0581 83.416 34.2886C83.4824 34.519 83.582 34.7319 83.7148 34.9272C83.8477 35.1187 84.0137 35.2729 84.2129 35.3901C84.4121 35.5073 84.6445 35.5659 84.9102 35.5659ZM94.8887 28.019C95.627 28.019 96.2363 28.1089 96.7168 28.2886C97.2012 28.4683 97.5605 28.7417 97.7949 29.1089C98.0332 29.4761 98.1523 29.9429 98.1523 30.5093C98.1523 30.9312 98.0742 31.2905 97.918 31.5874C97.7617 31.8843 97.5566 32.1304 97.3027 32.3257C97.0488 32.521 96.7773 32.6772 96.4883 32.7944L98.9199 36.5854H97.332L95.2637 33.1519H93.8867V36.5854H92.4805V28.019H94.8887ZM94.7949 29.1909H93.8867V31.9917H94.8594C95.5117 31.9917 95.9844 31.8706 96.2773 31.6284C96.5742 31.3862 96.7227 31.0288 96.7227 30.5562C96.7227 30.0601 96.5645 29.7085 96.248 29.5015C95.9355 29.2944 95.4512 29.1909 94.7949 29.1909ZM102.547 29.9761C103.367 29.9761 103.986 30.1577 104.404 30.521C104.826 30.8843 105.037 31.4507 105.037 32.2202V36.5854H104.059L103.795 35.6655H103.748C103.564 35.8999 103.375 36.0933 103.18 36.2456C102.984 36.3979 102.758 36.5112 102.5 36.5854C102.246 36.6636 101.936 36.7026 101.568 36.7026C101.182 36.7026 100.836 36.6323 100.531 36.4917C100.227 36.3472 99.9863 36.1284 99.8105 35.8354C99.6348 35.5425 99.5469 35.1714 99.5469 34.7222C99.5469 34.0542 99.7949 33.5522 100.291 33.2163C100.791 32.8804 101.545 32.6948 102.553 32.6597L103.678 32.6187V32.2788C103.678 31.8296 103.572 31.5093 103.361 31.3179C103.154 31.1265 102.861 31.0308 102.482 31.0308C102.158 31.0308 101.844 31.0776 101.539 31.1714C101.234 31.2651 100.938 31.3804 100.648 31.5171L100.203 30.5444C100.52 30.3765 100.879 30.2397 101.281 30.1343C101.688 30.0288 102.109 29.9761 102.547 29.9761ZM103.672 33.4858L102.834 33.5151C102.146 33.5386 101.664 33.6558 101.387 33.8667C101.109 34.0776 100.971 34.3667 100.971 34.7339C100.971 35.0542 101.066 35.2886 101.258 35.437C101.449 35.5815 101.701 35.6538 102.014 35.6538C102.49 35.6538 102.885 35.519 103.197 35.2495C103.514 34.9761 103.672 34.5757 103.672 34.0483V33.4858ZM109.379 35.5894C109.559 35.5894 109.736 35.5737 109.912 35.5425C110.088 35.5073 110.248 35.4663 110.393 35.4194V36.4624C110.24 36.5288 110.043 36.5854 109.801 36.6323C109.559 36.6792 109.307 36.7026 109.045 36.7026C108.678 36.7026 108.348 36.6421 108.055 36.521C107.762 36.396 107.529 36.1831 107.357 35.8823C107.186 35.5815 107.1 35.1655 107.1 34.6343V31.1479H106.215V30.5327L107.164 30.0464L107.615 28.6577H108.482V30.0991H110.34V31.1479H108.482V34.6167C108.482 34.9448 108.564 35.189 108.729 35.3491C108.893 35.5093 109.109 35.5894 109.379 35.5894ZM113.088 30.0991V36.5854H111.711V30.0991H113.088ZM112.408 27.6147C112.619 27.6147 112.801 27.6714 112.953 27.7847C113.109 27.8979 113.188 28.0933 113.188 28.3706C113.188 28.644 113.109 28.8394 112.953 28.9565C112.801 29.0698 112.619 29.1265 112.408 29.1265C112.189 29.1265 112.004 29.0698 111.852 28.9565C111.703 28.8394 111.629 28.644 111.629 28.3706C111.629 28.0933 111.703 27.8979 111.852 27.7847C112.004 27.6714 112.189 27.6147 112.408 27.6147ZM118.443 29.9761C119.174 29.9761 119.742 30.1655 120.148 30.5444C120.559 30.9194 120.764 31.5229 120.764 32.355V36.5854H119.387V32.6128C119.387 32.1089 119.283 31.7319 119.076 31.4819C118.869 31.228 118.549 31.1011 118.115 31.1011C117.486 31.1011 117.049 31.2944 116.803 31.6812C116.561 32.0679 116.439 32.6284 116.439 33.3628V36.5854H115.062V30.0991H116.135L116.328 30.978H116.404C116.545 30.7515 116.719 30.5659 116.926 30.4214C117.137 30.2729 117.371 30.1616 117.629 30.0874C117.891 30.0132 118.162 29.9761 118.443 29.9761ZM124.543 39.4683C123.664 39.4683 122.99 39.3101 122.521 38.9937C122.053 38.6772 121.818 38.2339 121.818 37.6636C121.818 37.2651 121.943 36.9272 122.193 36.6499C122.443 36.3765 122.801 36.187 123.266 36.0815C123.09 36.0034 122.938 35.8823 122.809 35.7183C122.684 35.5503 122.621 35.3647 122.621 35.1616C122.621 34.9194 122.689 34.7124 122.826 34.5405C122.963 34.3687 123.168 34.2026 123.441 34.0425C123.102 33.8979 122.828 33.6636 122.621 33.3394C122.418 33.0112 122.316 32.6265 122.316 32.1851C122.316 31.7163 122.416 31.3179 122.615 30.9897C122.814 30.6577 123.105 30.4058 123.488 30.2339C123.871 30.0581 124.334 29.9702 124.877 29.9702C124.994 29.9702 125.121 29.978 125.258 29.9937C125.398 30.0054 125.527 30.021 125.645 30.0405C125.766 30.0562 125.857 30.0737 125.92 30.0933H128.164V30.8608L127.062 31.0659C127.168 31.2144 127.252 31.3843 127.314 31.5757C127.377 31.7632 127.408 31.9683 127.408 32.1909C127.408 32.8628 127.176 33.3921 126.711 33.7788C126.25 34.1616 125.613 34.353 124.801 34.353C124.605 34.3452 124.416 34.3296 124.232 34.3062C124.092 34.3921 123.984 34.4878 123.91 34.5933C123.836 34.6948 123.799 34.8101 123.799 34.939C123.799 35.0444 123.836 35.1304 123.91 35.1968C123.984 35.2593 124.094 35.3062 124.238 35.3374C124.387 35.3687 124.566 35.3843 124.777 35.3843H125.896C126.607 35.3843 127.15 35.5347 127.525 35.8354C127.9 36.1362 128.088 36.5776 128.088 37.1597C128.088 37.8979 127.783 38.4663 127.174 38.8647C126.564 39.2671 125.688 39.4683 124.543 39.4683ZM124.596 38.5015C125.076 38.5015 125.48 38.4546 125.809 38.3608C126.137 38.2671 126.385 38.1323 126.553 37.9565C126.721 37.7847 126.805 37.5796 126.805 37.3413C126.805 37.1304 126.752 36.9683 126.646 36.855C126.541 36.7417 126.383 36.6636 126.172 36.6206C125.961 36.5776 125.699 36.5562 125.387 36.5562H124.367C124.113 36.5562 123.889 36.5952 123.693 36.6733C123.498 36.7554 123.346 36.8726 123.236 37.0249C123.131 37.1772 123.078 37.3608 123.078 37.5757C123.078 37.8726 123.209 38.1011 123.471 38.2612C123.736 38.4214 124.111 38.5015 124.596 38.5015ZM124.865 33.4507C125.268 33.4507 125.566 33.3413 125.762 33.1226C125.957 32.8999 126.055 32.5874 126.055 32.1851C126.055 31.7476 125.953 31.4194 125.75 31.2007C125.551 30.9819 125.254 30.8726 124.859 30.8726C124.473 30.8726 124.178 30.9839 123.975 31.2065C123.775 31.4292 123.676 31.7593 123.676 32.1968C123.676 32.5913 123.775 32.8999 123.975 33.1226C124.178 33.3413 124.475 33.4507 124.865 33.4507ZM133.707 34.7339C133.707 35.1597 133.604 35.519 133.396 35.812C133.189 36.105 132.887 36.3276 132.488 36.48C132.094 36.6284 131.609 36.7026 131.035 36.7026C130.582 36.7026 130.191 36.6694 129.863 36.603C129.539 36.5405 129.232 36.4429 128.943 36.3101V35.1206C129.252 35.2651 129.598 35.3901 129.98 35.4956C130.367 35.6011 130.732 35.6538 131.076 35.6538C131.529 35.6538 131.855 35.5835 132.055 35.4429C132.254 35.2983 132.354 35.1069 132.354 34.8687C132.354 34.728 132.312 34.603 132.23 34.4937C132.152 34.3804 132.004 34.2651 131.785 34.1479C131.57 34.0269 131.254 33.8823 130.836 33.7144C130.426 33.5503 130.08 33.3862 129.799 33.2222C129.518 33.0581 129.305 32.8608 129.16 32.6304C129.016 32.396 128.943 32.0972 128.943 31.7339C128.943 31.1597 129.17 30.7241 129.623 30.4272C130.08 30.1265 130.684 29.9761 131.434 29.9761C131.832 29.9761 132.207 30.0171 132.559 30.0991C132.914 30.1772 133.262 30.2925 133.602 30.4448L133.168 31.4819C132.875 31.353 132.58 31.2476 132.283 31.1655C131.99 31.0796 131.691 31.0366 131.387 31.0366C131.031 31.0366 130.76 31.0913 130.572 31.2007C130.389 31.3101 130.297 31.4663 130.297 31.6694C130.297 31.8218 130.342 31.9507 130.432 32.0562C130.521 32.1616 130.676 32.2671 130.895 32.3726C131.117 32.478 131.426 32.6089 131.82 32.7651C132.207 32.9136 132.541 33.0698 132.822 33.2339C133.107 33.394 133.326 33.5913 133.479 33.8257C133.631 34.0601 133.707 34.3628 133.707 34.7339Z" fill="#868583"/>
<defs>
<linearGradient id="paint0_linear_4362_17073" x1="26.5001" y1="1.72791" x2="26.5001" y2="41.3252" gradientUnits="userSpaceOnUse">
<stop stop-color="#18ACFE"/>
<stop offset="1" stop-color="#0163E0"/>
</linearGradient>
</defs>
</svg>
