<svg width="113" height="40" viewBox="0 0 113 40" fill="none" xmlns="http://www.w3.org/2000/svg">
<circle cx="20.4998" cy="20" r="18.9119" fill="url(#paint0_linear_4362_18541)"/>
<path d="M27.5426 25.7838L28.3827 20.4459H23.1274V16.9835C23.1274 15.5229 23.8601 14.0982 26.214 14.0982H28.6048V9.55384C28.6048 9.55384 26.436 9.19318 24.3635 9.19318C20.0334 9.19318 17.2058 11.7503 17.2058 16.3776V20.4459H12.3945V25.7838H17.2058V38.6884C18.1717 38.8362 19.1599 38.9119 20.1666 38.9119C21.1732 38.9119 22.1614 38.8362 23.1274 38.6884V25.7838H27.5426Z" fill="white"/>
<path d="M56.2588 16.3057H54.9053V18.5H53.3193V16.3057H48.7734V15.0889L53.3398 8.47852H54.9053V14.9727H56.2588V16.3057ZM53.3193 14.9727V12.4912C53.3193 12.2861 53.3216 12.0788 53.3262 11.8691C53.3353 11.6549 53.3444 11.4499 53.3535 11.2539C53.3626 11.0579 53.3717 10.8779 53.3809 10.7139C53.39 10.5452 53.3968 10.4062 53.4014 10.2969H53.3467C53.2601 10.4792 53.1644 10.666 53.0596 10.8574C52.9548 11.0443 52.8431 11.2266 52.7246 11.4043L50.2637 14.9727H53.3193ZM57.4277 17.6523C57.4277 17.2786 57.5234 17.0166 57.7148 16.8662C57.9108 16.7113 58.1478 16.6338 58.4258 16.6338C58.7038 16.6338 58.9408 16.7113 59.1367 16.8662C59.3372 17.0166 59.4375 17.2786 59.4375 17.6523C59.4375 18.0169 59.3372 18.2812 59.1367 18.4453C58.9408 18.6048 58.7038 18.6846 58.4258 18.6846C58.1478 18.6846 57.9108 18.6048 57.7148 18.4453C57.5234 18.2812 57.4277 18.0169 57.4277 17.6523ZM62.124 18.5L66.0479 9.91406H60.8594V8.50586H67.7773V9.60645L63.8535 18.5H62.124Z" fill="#868583"/>
<path d="M77.8607 6.5L80.1351 11.1078L85.2213 11.8512L81.541 15.4359L82.4096 20.5L77.8607 18.1078L73.3118 20.5L74.1803 15.4359L70.5 11.8512L75.5862 11.1078L77.8607 6.5Z" fill="#FFE234"/>
<path d="M52.3232 33.5H51.1709V28.9053C51.1709 28.7523 51.1725 28.5993 51.1758 28.4463C51.179 28.2933 51.1823 28.1436 51.1855 27.9971C51.1921 27.8506 51.2002 27.7106 51.21 27.5771C51.1416 27.652 51.057 27.7334 50.9561 27.8213C50.8584 27.9092 50.7542 28.0003 50.6436 28.0947L49.8232 28.749L49.2471 28.0215L51.3662 26.3613H52.3232V33.5ZM56.2002 32.3379L56.2686 32.4502C56.21 32.6846 56.1351 32.9368 56.0439 33.207C55.9528 33.4772 55.8535 33.7474 55.7461 34.0176C55.6387 34.291 55.5296 34.5482 55.4189 34.7891H54.5791C54.6475 34.5254 54.7126 34.2487 54.7744 33.959C54.8395 33.6725 54.8981 33.3893 54.9502 33.1094C55.0055 32.8262 55.0495 32.569 55.082 32.3379H56.2002ZM59.8037 26.2637C60.2171 26.2637 60.5898 26.3288 60.9219 26.459C61.2539 26.5859 61.5176 26.7764 61.7129 27.0303C61.9082 27.2842 62.0059 27.5983 62.0059 27.9727C62.0059 28.2624 61.9456 28.5146 61.8252 28.7295C61.708 28.9443 61.5485 29.1331 61.3467 29.2959C61.1449 29.4554 60.9186 29.597 60.668 29.7207C60.9479 29.8574 61.2051 30.0153 61.4395 30.1943C61.6771 30.3701 61.8675 30.5768 62.0107 30.8145C62.1572 31.0521 62.2305 31.3304 62.2305 31.6494C62.2305 32.0498 62.1279 32.3965 61.9229 32.6895C61.721 32.9792 61.4395 33.2038 61.0781 33.3633C60.7168 33.5195 60.2952 33.5977 59.8135 33.5977C59.2959 33.5977 58.8548 33.5212 58.4902 33.3682C58.1257 33.2152 57.849 32.9971 57.6602 32.7139C57.4714 32.4274 57.377 32.0856 57.377 31.6885C57.377 31.3597 57.4421 31.0749 57.5723 30.834C57.7025 30.5931 57.8766 30.3848 58.0947 30.209C58.3161 30.0332 58.5586 29.8851 58.8223 29.7646C58.5977 29.6312 58.3926 29.4814 58.207 29.3154C58.0215 29.1462 57.8734 28.9525 57.7627 28.7344C57.6553 28.513 57.6016 28.2575 57.6016 27.9678C57.6016 27.5967 57.7008 27.2858 57.8994 27.0352C58.098 26.7812 58.3633 26.5892 58.6953 26.459C59.0306 26.3288 59.4001 26.2637 59.8037 26.2637ZM58.4707 31.6445C58.4707 31.957 58.5814 32.2142 58.8027 32.416C59.0241 32.6178 59.3545 32.7188 59.7939 32.7188C60.2301 32.7188 60.5622 32.6195 60.79 32.4209C61.0179 32.2223 61.1318 31.9603 61.1318 31.6348C61.1318 31.4264 61.0732 31.2425 60.9561 31.083C60.8421 30.9235 60.6875 30.7819 60.4922 30.6582C60.3001 30.5312 60.0869 30.4141 59.8525 30.3066L59.6963 30.2432C59.4424 30.3506 59.2243 30.4727 59.042 30.6094C58.8597 30.7428 58.7181 30.8942 58.6172 31.0635C58.5195 31.2327 58.4707 31.4264 58.4707 31.6445ZM59.7939 27.1475C59.4782 27.1475 59.2178 27.2256 59.0127 27.3818C58.8109 27.5348 58.71 27.7562 58.71 28.0459C58.71 28.251 58.7588 28.4268 58.8564 28.5732C58.9574 28.7197 59.0924 28.8467 59.2617 28.9541C59.431 29.0583 59.6182 29.1559 59.8232 29.2471C60.0218 29.1592 60.2008 29.0632 60.3604 28.959C60.5231 28.8516 60.6517 28.7246 60.7461 28.5781C60.8438 28.4284 60.8926 28.2493 60.8926 28.041C60.8926 27.7546 60.79 27.5348 60.585 27.3818C60.3831 27.2256 60.1195 27.1475 59.7939 27.1475ZM67.6797 27.9922C67.6797 28.3145 67.6146 28.5944 67.4844 28.832C67.3542 29.0697 67.1751 29.265 66.9473 29.418C66.7227 29.5677 66.4622 29.6751 66.166 29.7402V29.7744C66.7357 29.846 67.1654 30.0251 67.4551 30.3115C67.748 30.598 67.8945 30.9772 67.8945 31.4492C67.8945 31.8626 67.7952 32.2321 67.5967 32.5576C67.3981 32.8799 67.0938 33.1338 66.6836 33.3193C66.2734 33.5049 65.7461 33.5977 65.1016 33.5977C64.7142 33.5977 64.3545 33.5667 64.0225 33.5049C63.6937 33.443 63.3812 33.3438 63.085 33.207V32.1865C63.3877 32.3363 63.71 32.4518 64.0518 32.5332C64.3936 32.6146 64.7174 32.6553 65.0234 32.6553C65.6191 32.6553 66.0439 32.5446 66.2979 32.3232C66.5518 32.0986 66.6787 31.7894 66.6787 31.3955C66.6787 31.1416 66.612 30.9333 66.4785 30.7705C66.3483 30.6077 66.1449 30.4857 65.8682 30.4043C65.5947 30.3229 65.2415 30.2822 64.8086 30.2822H64.1787V29.3594H64.8135C65.2269 29.3594 65.5589 29.3105 65.8096 29.2129C66.0602 29.112 66.2409 28.9736 66.3516 28.7979C66.4655 28.6221 66.5225 28.417 66.5225 28.1826C66.5225 27.8766 66.4232 27.639 66.2246 27.4697C66.026 27.2972 65.7314 27.2109 65.3408 27.2109C65.0999 27.2109 64.8802 27.2386 64.6816 27.2939C64.4863 27.3493 64.3057 27.4193 64.1396 27.5039C63.9736 27.5885 63.8158 27.6797 63.666 27.7773L63.1143 26.9814C63.3844 26.7796 63.7067 26.6087 64.0811 26.4688C64.4554 26.3288 64.8916 26.2588 65.3896 26.2588C66.1221 26.2588 66.6868 26.4167 67.084 26.7324C67.4811 27.0449 67.6797 27.4648 67.6797 27.9922ZM68.8516 30.458C68.8516 30.0381 68.8809 29.6247 68.9395 29.2178C69.0013 28.8109 69.1055 28.43 69.252 28.0752C69.3984 27.7204 69.6003 27.4079 69.8574 27.1377C70.1178 26.8675 70.445 26.6559 70.8389 26.5029C71.2327 26.3467 71.7064 26.2686 72.2598 26.2686C72.403 26.2686 72.5641 26.2751 72.7432 26.2881C72.9222 26.3011 73.0703 26.3223 73.1875 26.3516V27.3037C73.0605 27.2679 72.9206 27.2402 72.7676 27.2207C72.6178 27.2012 72.4681 27.1914 72.3184 27.1914C71.7194 27.1914 71.2523 27.3053 70.917 27.5332C70.5817 27.7578 70.3424 28.0671 70.1992 28.4609C70.056 28.8516 69.973 29.2992 69.9502 29.8037H70.0088C70.1064 29.641 70.2285 29.4961 70.375 29.3691C70.5215 29.2422 70.7005 29.1413 70.9121 29.0664C71.1237 28.9883 71.3695 28.9492 71.6494 28.9492C72.0661 28.9492 72.429 29.0371 72.7383 29.2129C73.0475 29.3854 73.2852 29.6361 73.4512 29.9648C73.6204 30.2936 73.7051 30.6924 73.7051 31.1611C73.7051 31.6657 73.609 32.1003 73.417 32.4648C73.2282 32.8294 72.958 33.1094 72.6064 33.3047C72.2581 33.5 71.8431 33.5977 71.3613 33.5977C71.0065 33.5977 70.6761 33.5326 70.3701 33.4023C70.0674 33.2721 69.8021 33.0768 69.5742 32.8164C69.3464 32.556 69.1689 32.2305 69.042 31.8398C68.915 31.446 68.8516 30.9854 68.8516 30.458ZM71.3418 32.6504C71.7129 32.6504 72.0107 32.5299 72.2354 32.2891C72.4632 32.0449 72.5771 31.6722 72.5771 31.1709C72.5771 30.764 72.4762 30.4417 72.2744 30.2041C72.0758 29.9665 71.7764 29.8477 71.376 29.8477C71.1025 29.8477 70.8633 29.9062 70.6582 30.0234C70.4531 30.1406 70.2936 30.2887 70.1797 30.4678C70.069 30.6468 70.0137 30.8291 70.0137 31.0146C70.0137 31.2035 70.0413 31.3939 70.0967 31.5859C70.152 31.778 70.235 31.9554 70.3457 32.1182C70.4564 32.2777 70.5947 32.4062 70.7607 32.5039C70.9268 32.6016 71.1204 32.6504 71.3418 32.6504ZM79.6572 26.3613C80.2725 26.3613 80.7803 26.4362 81.1807 26.5859C81.5843 26.7357 81.8838 26.9635 82.0791 27.2695C82.2777 27.5755 82.377 27.9645 82.377 28.4365C82.377 28.7881 82.3118 29.0876 82.1816 29.335C82.0514 29.5824 81.8805 29.7874 81.6689 29.9502C81.4574 30.113 81.2311 30.2432 80.9902 30.3408L83.0166 33.5H81.6934L79.9697 30.6387H78.8223V33.5H77.6504V26.3613H79.6572ZM79.5791 27.3379H78.8223V29.6719H79.6328C80.1764 29.6719 80.5703 29.571 80.8145 29.3691C81.0618 29.1673 81.1855 28.8695 81.1855 28.4756C81.1855 28.0622 81.0537 27.7692 80.79 27.5967C80.5296 27.4242 80.126 27.3379 79.5791 27.3379ZM86.0391 27.9922C86.7227 27.9922 87.2386 28.1436 87.5869 28.4463C87.9385 28.749 88.1143 29.221 88.1143 29.8623V33.5H87.2988L87.0791 32.7334H87.04C86.887 32.9287 86.7292 33.0898 86.5664 33.2168C86.4036 33.3438 86.2148 33.4382 86 33.5C85.7884 33.5651 85.5296 33.5977 85.2236 33.5977C84.9014 33.5977 84.6133 33.5391 84.3594 33.4219C84.1055 33.3014 83.9053 33.1191 83.7588 32.875C83.6123 32.6309 83.5391 32.3216 83.5391 31.9473C83.5391 31.3906 83.7458 30.9723 84.1592 30.6924C84.5758 30.4124 85.2041 30.2578 86.0439 30.2285L86.9814 30.1943V29.9111C86.9814 29.5368 86.8936 29.2699 86.7178 29.1104C86.5452 28.9508 86.3011 28.8711 85.9854 28.8711C85.7152 28.8711 85.4531 28.9102 85.1992 28.9883C84.9453 29.0664 84.6979 29.1624 84.457 29.2764L84.0859 28.4658C84.3496 28.3258 84.6491 28.2119 84.9844 28.124C85.3229 28.0361 85.6745 27.9922 86.0391 27.9922ZM86.9766 30.917L86.2783 30.9414C85.7054 30.9609 85.3034 31.0586 85.0723 31.2344C84.8411 31.4102 84.7256 31.651 84.7256 31.957C84.7256 32.224 84.8053 32.4193 84.9648 32.543C85.1243 32.6634 85.3343 32.7236 85.5947 32.7236C85.9919 32.7236 86.3206 32.6113 86.5811 32.3867C86.8447 32.1589 86.9766 31.8252 86.9766 31.3857V30.917ZM91.7324 32.6699C91.8822 32.6699 92.0303 32.6569 92.1768 32.6309C92.3232 32.6016 92.4567 32.5674 92.5771 32.5283V33.3975C92.4502 33.4528 92.2858 33.5 92.084 33.5391C91.8822 33.5781 91.6722 33.5977 91.4541 33.5977C91.1481 33.5977 90.873 33.5472 90.6289 33.4463C90.3848 33.3421 90.1911 33.1647 90.0479 32.9141C89.9046 32.6634 89.833 32.3167 89.833 31.874V28.9688H89.0957V28.4561L89.8867 28.0508L90.2627 26.8936H90.9854V28.0947H92.5332V28.9688H90.9854V31.8594C90.9854 32.1328 91.0537 32.3363 91.1904 32.4697C91.3271 32.6032 91.5078 32.6699 91.7324 32.6699ZM94.8232 28.0947V33.5H93.6758V28.0947H94.8232ZM94.2568 26.0244C94.4326 26.0244 94.584 26.0716 94.7109 26.166C94.8411 26.2604 94.9062 26.4232 94.9062 26.6543C94.9062 26.8822 94.8411 27.0449 94.7109 27.1426C94.584 27.237 94.4326 27.2842 94.2568 27.2842C94.0745 27.2842 93.9199 27.237 93.793 27.1426C93.6693 27.0449 93.6074 26.8822 93.6074 26.6543C93.6074 26.4232 93.6693 26.2604 93.793 26.166C93.9199 26.0716 94.0745 26.0244 94.2568 26.0244ZM99.2861 27.9922C99.8949 27.9922 100.368 28.1501 100.707 28.4658C101.049 28.7783 101.22 29.2812 101.22 29.9746V33.5H100.072V30.1895C100.072 29.7695 99.986 29.4554 99.8135 29.2471C99.641 29.0355 99.374 28.9297 99.0127 28.9297C98.4886 28.9297 98.124 29.0908 97.9189 29.4131C97.7171 29.7354 97.6162 30.2025 97.6162 30.8145V33.5H96.4688V28.0947H97.3623L97.5234 28.8271H97.5869C97.7041 28.6383 97.849 28.4837 98.0215 28.3633C98.1973 28.2396 98.3926 28.1468 98.6074 28.085C98.8255 28.0231 99.0518 27.9922 99.2861 27.9922ZM104.369 35.9023C103.637 35.9023 103.075 35.7705 102.685 35.5068C102.294 35.2432 102.099 34.8737 102.099 34.3984C102.099 34.0664 102.203 33.7848 102.411 33.5537C102.619 33.3258 102.917 33.168 103.305 33.0801C103.158 33.015 103.031 32.9141 102.924 32.7773C102.82 32.6374 102.768 32.4827 102.768 32.3135C102.768 32.1117 102.825 31.9391 102.938 31.7959C103.052 31.6527 103.223 31.5143 103.451 31.3809C103.168 31.2604 102.94 31.0651 102.768 30.7949C102.598 30.5215 102.514 30.2008 102.514 29.833C102.514 29.4424 102.597 29.1104 102.763 28.8369C102.929 28.5602 103.171 28.3503 103.49 28.207C103.809 28.0605 104.195 27.9873 104.647 27.9873C104.745 27.9873 104.851 27.9938 104.965 28.0068C105.082 28.0166 105.189 28.0296 105.287 28.0459C105.388 28.0589 105.465 28.0736 105.517 28.0898H107.387V28.7295L106.469 28.9004C106.557 29.0241 106.627 29.1657 106.679 29.3252C106.731 29.4814 106.757 29.6523 106.757 29.8379C106.757 30.3978 106.563 30.8389 106.176 31.1611C105.792 31.4801 105.261 31.6396 104.584 31.6396C104.421 31.6331 104.263 31.6201 104.11 31.6006C103.993 31.6722 103.904 31.752 103.842 31.8398C103.78 31.9245 103.749 32.0205 103.749 32.1279C103.749 32.2158 103.78 32.2874 103.842 32.3428C103.904 32.3949 103.995 32.4339 104.115 32.46C104.239 32.486 104.389 32.499 104.564 32.499H105.497C106.09 32.499 106.542 32.6243 106.854 32.875C107.167 33.1257 107.323 33.4935 107.323 33.9785C107.323 34.5938 107.069 35.0674 106.562 35.3994C106.054 35.7347 105.323 35.9023 104.369 35.9023ZM104.413 35.0967C104.813 35.0967 105.15 35.0576 105.424 34.9795C105.697 34.9014 105.904 34.7891 106.044 34.6426C106.184 34.4993 106.254 34.3285 106.254 34.1299C106.254 33.9541 106.21 33.819 106.122 33.7246C106.034 33.6302 105.902 33.5651 105.727 33.5293C105.551 33.4935 105.333 33.4756 105.072 33.4756H104.223C104.011 33.4756 103.824 33.5081 103.661 33.5732C103.498 33.6416 103.371 33.7393 103.28 33.8662C103.192 33.9932 103.148 34.1462 103.148 34.3252C103.148 34.5726 103.257 34.763 103.476 34.8965C103.697 35.0299 104.009 35.0967 104.413 35.0967ZM104.638 30.8877C104.973 30.8877 105.222 30.7965 105.385 30.6143C105.548 30.4287 105.629 30.1683 105.629 29.833C105.629 29.4684 105.544 29.195 105.375 29.0127C105.209 28.8304 104.962 28.7393 104.633 28.7393C104.311 28.7393 104.065 28.832 103.896 29.0176C103.729 29.2031 103.646 29.4782 103.646 29.8428C103.646 30.1715 103.729 30.4287 103.896 30.6143C104.065 30.7965 104.312 30.8877 104.638 30.8877ZM112.006 31.957C112.006 32.3118 111.92 32.6113 111.747 32.8555C111.575 33.0996 111.322 33.2852 110.99 33.4121C110.661 33.5358 110.258 33.5977 109.779 33.5977C109.402 33.5977 109.076 33.57 108.803 33.5146C108.533 33.4626 108.277 33.3812 108.036 33.2705V32.2793C108.293 32.3997 108.581 32.5039 108.9 32.5918C109.223 32.6797 109.527 32.7236 109.813 32.7236C110.191 32.7236 110.463 32.665 110.629 32.5479C110.795 32.4274 110.878 32.2679 110.878 32.0693C110.878 31.9521 110.844 31.848 110.775 31.7568C110.71 31.6624 110.587 31.5664 110.404 31.4688C110.225 31.3678 109.962 31.2474 109.613 31.1074C109.271 30.9707 108.983 30.834 108.749 30.6973C108.515 30.5605 108.337 30.3962 108.217 30.2041C108.096 30.0088 108.036 29.7598 108.036 29.457C108.036 28.9785 108.225 28.6156 108.603 28.3682C108.983 28.1175 109.486 27.9922 110.111 27.9922C110.443 27.9922 110.756 28.0264 111.049 28.0947C111.345 28.1598 111.635 28.2559 111.918 28.3828L111.557 29.2471C111.312 29.1396 111.067 29.0518 110.819 28.9834C110.575 28.9118 110.326 28.876 110.072 28.876C109.776 28.876 109.55 28.9215 109.394 29.0127C109.241 29.1038 109.164 29.234 109.164 29.4033C109.164 29.5303 109.201 29.6377 109.276 29.7256C109.351 29.8135 109.48 29.9014 109.662 29.9893C109.848 30.0771 110.105 30.1862 110.434 30.3164C110.756 30.4401 111.034 30.5703 111.269 30.707C111.506 30.8405 111.688 31.0049 111.815 31.2002C111.942 31.3955 112.006 31.6478 112.006 31.957Z" fill="#868583"/>
<defs>
<linearGradient id="paint0_linear_4362_18541" x1="20.4998" y1="1.08804" x2="20.4998" y2="38.7998" gradientUnits="userSpaceOnUse">
<stop stop-color="#18ACFE"/>
<stop offset="1" stop-color="#0163E0"/>
</linearGradient>
</defs>
</svg>
