<svg width="135" height="40" viewBox="0 0 135 40" fill="none" xmlns="http://www.w3.org/2000/svg">
<mask id="mask0_4362_18524" style="mask-type:alpha" maskUnits="userSpaceOnUse" x="3" y="1" width="35" height="38">
<path d="M36.5265 17.5832C38.3722 18.5988 38.3722 21.2212 36.5265 22.2368L7.00931 38.4794C5.21177 39.4685 3 38.185 3 36.1526L3 3.66739C3 1.63505 5.21177 0.351456 7.00931 1.3406L36.5265 17.5832Z" fill="#C4C4C4"/>
</mask>
<g mask="url(#mask0_4362_18524)">
<path d="M3.92328 38.1601L22.3352 19.6447L4.22651 1.43423C3.50407 1.89736 3 2.69695 3 3.66717V36.1524C3 36.9802 3.3669 37.6837 3.92328 38.1601Z" fill="url(#paint0_linear_4362_18524)"/>
<path d="M36.5233 17.5829C38.369 18.5986 38.369 21.2209 36.5233 22.2365L29.0767 26.3342L22.332 19.6445L28.7328 13.296L36.5233 17.5829Z" fill="url(#paint1_linear_4362_18524)"/>
<path d="M29.0815 26.334L22.3368 19.6443L3.9248 38.1598C4.73448 38.8531 5.94545 39.0653 7.0109 38.479L29.0815 26.334Z" fill="url(#paint2_linear_4362_18524)"/>
<path d="M4.22852 1.43442L22.3372 19.6448L28.7379 13.2963L7.01127 1.3406C6.07188 0.823676 5.01937 0.927454 4.22852 1.43442Z" fill="url(#paint3_linear_4362_18524)"/>
</g>
<path d="M56.2588 16.3057H54.9053V18.5H53.3193V16.3057H48.7734V15.0889L53.3398 8.47852H54.9053V14.9727H56.2588V16.3057ZM53.3193 14.9727V12.4912C53.3193 12.2861 53.3216 12.0788 53.3262 11.8691C53.3353 11.6549 53.3444 11.4499 53.3535 11.2539C53.3626 11.0579 53.3717 10.8779 53.3809 10.7139C53.39 10.5452 53.3968 10.4062 53.4014 10.2969H53.3467C53.2601 10.4792 53.1644 10.666 53.0596 10.8574C52.9548 11.0443 52.8431 11.2266 52.7246 11.4043L50.2637 14.9727H53.3193ZM57.4277 17.6523C57.4277 17.2786 57.5234 17.0166 57.7148 16.8662C57.9108 16.7113 58.1478 16.6338 58.4258 16.6338C58.7038 16.6338 58.9408 16.7113 59.1367 16.8662C59.3372 17.0166 59.4375 17.2786 59.4375 17.6523C59.4375 18.0169 59.3372 18.2812 59.1367 18.4453C58.9408 18.6048 58.7038 18.6846 58.4258 18.6846C58.1478 18.6846 57.9108 18.6048 57.7148 18.4453C57.5234 18.2812 57.4277 18.0169 57.4277 17.6523ZM64.3525 8.36914C64.9313 8.36914 65.4531 8.46029 65.918 8.64258C66.3828 8.82031 66.752 9.08691 67.0254 9.44238C67.2988 9.79785 67.4355 10.2376 67.4355 10.7617C67.4355 11.1673 67.3512 11.5205 67.1826 11.8213C67.0186 12.1221 66.7952 12.3864 66.5127 12.6143C66.2301 12.8376 65.9134 13.0358 65.5625 13.209C65.9544 13.4004 66.3145 13.6214 66.6426 13.8721C66.9753 14.1182 67.2419 14.4076 67.4424 14.7402C67.6475 15.0729 67.75 15.4626 67.75 15.9092C67.75 16.4697 67.6064 16.9551 67.3193 17.3652C67.0368 17.7708 66.6426 18.0853 66.1367 18.3086C65.6309 18.5273 65.0407 18.6367 64.3662 18.6367C63.6416 18.6367 63.0241 18.5296 62.5137 18.3154C62.0033 18.1012 61.6159 17.7959 61.3516 17.3994C61.0872 16.9984 60.9551 16.5199 60.9551 15.9639C60.9551 15.5036 61.0462 15.1048 61.2285 14.7676C61.4108 14.4303 61.6546 14.1387 61.96 13.8926C62.2699 13.6465 62.6094 13.4391 62.9785 13.2705C62.6641 13.0837 62.377 12.874 62.1172 12.6416C61.8574 12.4046 61.6501 12.1335 61.4951 11.8281C61.3447 11.5182 61.2695 11.1605 61.2695 10.7549C61.2695 10.2354 61.4085 9.80013 61.6865 9.44922C61.9645 9.09375 62.3359 8.82487 62.8008 8.64258C63.2702 8.46029 63.7874 8.36914 64.3525 8.36914ZM62.4863 15.9023C62.4863 16.3398 62.6413 16.6999 62.9512 16.9824C63.2611 17.265 63.7236 17.4062 64.3389 17.4062C64.9495 17.4062 65.4144 17.2673 65.7334 16.9893C66.0524 16.7113 66.2119 16.3444 66.2119 15.8887C66.2119 15.597 66.1299 15.3395 65.9658 15.1162C65.8063 14.8929 65.5898 14.6947 65.3164 14.5215C65.0475 14.3438 64.749 14.1797 64.4209 14.0293L64.2021 13.9404C63.8467 14.0908 63.5413 14.2617 63.2861 14.4531C63.0309 14.64 62.8327 14.8519 62.6914 15.0889C62.5547 15.3258 62.4863 15.597 62.4863 15.9023ZM64.3389 9.60645C63.8968 9.60645 63.5322 9.71582 63.2451 9.93457C62.9626 10.1488 62.8213 10.4587 62.8213 10.8643C62.8213 11.1514 62.8896 11.3975 63.0264 11.6025C63.1676 11.8076 63.3568 11.9854 63.5938 12.1357C63.8307 12.2816 64.0928 12.4183 64.3799 12.5459C64.6579 12.4229 64.9085 12.2884 65.1318 12.1426C65.3597 11.9922 65.5397 11.8145 65.6719 11.6094C65.8086 11.3997 65.877 11.1491 65.877 10.8574C65.877 10.4564 65.7334 10.1488 65.4463 9.93457C65.1637 9.71582 64.7946 9.60645 64.3389 9.60645Z" fill="#868583"/>
<path d="M77.8607 6.5L80.1351 11.1078L85.2213 11.8512L81.541 15.4359L82.4096 20.5L77.8607 18.1078L73.3118 20.5L74.1803 15.4359L70.5 11.8512L75.5862 11.1078L77.8607 6.5Z" fill="#FFE234"/>
<path d="M48.959 30.458C48.959 30.0381 48.9883 29.6247 49.0469 29.2178C49.1087 28.8109 49.2129 28.43 49.3594 28.0752C49.5059 27.7204 49.7077 27.4079 49.9648 27.1377C50.2253 26.8675 50.5524 26.6559 50.9463 26.5029C51.3402 26.3467 51.8138 26.2686 52.3672 26.2686C52.5104 26.2686 52.6715 26.2751 52.8506 26.2881C53.0296 26.3011 53.1777 26.3223 53.2949 26.3516V27.3037C53.168 27.2679 53.028 27.2402 52.875 27.2207C52.7253 27.2012 52.5755 27.1914 52.4258 27.1914C51.8268 27.1914 51.3597 27.3053 51.0244 27.5332C50.6891 27.7578 50.4499 28.0671 50.3066 28.4609C50.1634 28.8516 50.0804 29.2992 50.0576 29.8037H50.1162C50.2139 29.641 50.3359 29.4961 50.4824 29.3691C50.6289 29.2422 50.8079 29.1413 51.0195 29.0664C51.2311 28.9883 51.4769 28.9492 51.7568 28.9492C52.1735 28.9492 52.5365 29.0371 52.8457 29.2129C53.1549 29.3854 53.3926 29.6361 53.5586 29.9648C53.7279 30.2936 53.8125 30.6924 53.8125 31.1611C53.8125 31.6657 53.7165 32.1003 53.5244 32.4648C53.3356 32.8294 53.0654 33.1094 52.7139 33.3047C52.3656 33.5 51.9505 33.5977 51.4688 33.5977C51.1139 33.5977 50.7835 33.5326 50.4775 33.4023C50.1748 33.2721 49.9095 33.0768 49.6816 32.8164C49.4538 32.556 49.2764 32.2305 49.1494 31.8398C49.0225 31.446 48.959 30.9854 48.959 30.458ZM51.4492 32.6504C51.8203 32.6504 52.1182 32.5299 52.3428 32.2891C52.5706 32.0449 52.6846 31.6722 52.6846 31.1709C52.6846 30.764 52.5837 30.4417 52.3818 30.2041C52.1833 29.9665 51.8838 29.8477 51.4834 29.8477C51.21 29.8477 50.9707 29.9062 50.7656 30.0234C50.5605 30.1406 50.401 30.2887 50.2871 30.4678C50.1764 30.6468 50.1211 30.8291 50.1211 31.0146C50.1211 31.2035 50.1488 31.3939 50.2041 31.5859C50.2594 31.778 50.3424 31.9554 50.4531 32.1182C50.5638 32.2777 50.7021 32.4062 50.8682 32.5039C51.0342 32.6016 51.2279 32.6504 51.4492 32.6504ZM55.4873 33.5L58.29 27.3672H54.584V26.3613H59.5254V27.1475L56.7227 33.5H55.4873ZM64.9551 27.9922C64.9551 28.3145 64.89 28.5944 64.7598 28.832C64.6296 29.0697 64.4505 29.265 64.2227 29.418C63.998 29.5677 63.7376 29.6751 63.4414 29.7402V29.7744C64.0111 29.846 64.4408 30.0251 64.7305 30.3115C65.0234 30.598 65.1699 30.9772 65.1699 31.4492C65.1699 31.8626 65.0706 32.2321 64.8721 32.5576C64.6735 32.8799 64.3691 33.1338 63.959 33.3193C63.5488 33.5049 63.0215 33.5977 62.377 33.5977C61.9896 33.5977 61.6299 33.5667 61.2979 33.5049C60.9691 33.443 60.6566 33.3438 60.3604 33.207V32.1865C60.6631 32.3363 60.9854 32.4518 61.3271 32.5332C61.6689 32.6146 61.9928 32.6553 62.2988 32.6553C62.8945 32.6553 63.3193 32.5446 63.5732 32.3232C63.8271 32.0986 63.9541 31.7894 63.9541 31.3955C63.9541 31.1416 63.8874 30.9333 63.7539 30.7705C63.6237 30.6077 63.4202 30.4857 63.1436 30.4043C62.8701 30.3229 62.5169 30.2822 62.084 30.2822H61.4541V29.3594H62.0889C62.5023 29.3594 62.8343 29.3105 63.085 29.2129C63.3356 29.112 63.5163 28.9736 63.627 28.7979C63.7409 28.6221 63.7979 28.417 63.7979 28.1826C63.7979 27.8766 63.6986 27.639 63.5 27.4697C63.3014 27.2972 63.0068 27.2109 62.6162 27.2109C62.3753 27.2109 62.1556 27.2386 61.957 27.2939C61.7617 27.3493 61.5811 27.4193 61.415 27.5039C61.249 27.5885 61.0911 27.6797 60.9414 27.7773L60.3896 26.9814C60.6598 26.7796 60.9821 26.6087 61.3564 26.4688C61.7308 26.3288 62.167 26.2588 62.665 26.2588C63.3975 26.2588 63.9622 26.4167 64.3594 26.7324C64.7565 27.0449 64.9551 27.4648 64.9551 27.9922ZM71.21 26.3613C71.8252 26.3613 72.333 26.4362 72.7334 26.5859C73.137 26.7357 73.4365 26.9635 73.6318 27.2695C73.8304 27.5755 73.9297 27.9645 73.9297 28.4365C73.9297 28.7881 73.8646 29.0876 73.7344 29.335C73.6042 29.5824 73.4333 29.7874 73.2217 29.9502C73.0101 30.113 72.7839 30.2432 72.543 30.3408L74.5693 33.5H73.2461L71.5225 30.6387H70.375V33.5H69.2031V26.3613H71.21ZM71.1318 27.3379H70.375V29.6719H71.1855C71.7292 29.6719 72.123 29.571 72.3672 29.3691C72.6146 29.1673 72.7383 28.8695 72.7383 28.4756C72.7383 28.0622 72.6064 27.7692 72.3428 27.5967C72.0824 27.4242 71.6787 27.3379 71.1318 27.3379ZM77.5918 27.9922C78.2754 27.9922 78.7913 28.1436 79.1396 28.4463C79.4912 28.749 79.667 29.221 79.667 29.8623V33.5H78.8516L78.6318 32.7334H78.5928C78.4398 32.9287 78.2819 33.0898 78.1191 33.2168C77.9564 33.3438 77.7676 33.4382 77.5527 33.5C77.3411 33.5651 77.0824 33.5977 76.7764 33.5977C76.4541 33.5977 76.166 33.5391 75.9121 33.4219C75.6582 33.3014 75.458 33.1191 75.3115 32.875C75.165 32.6309 75.0918 32.3216 75.0918 31.9473C75.0918 31.3906 75.2985 30.9723 75.7119 30.6924C76.1286 30.4124 76.7568 30.2578 77.5967 30.2285L78.5342 30.1943V29.9111C78.5342 29.5368 78.4463 29.2699 78.2705 29.1104C78.098 28.9508 77.8538 28.8711 77.5381 28.8711C77.2679 28.8711 77.0059 28.9102 76.752 28.9883C76.498 29.0664 76.2507 29.1624 76.0098 29.2764L75.6387 28.4658C75.9023 28.3258 76.2018 28.2119 76.5371 28.124C76.8757 28.0361 77.2272 27.9922 77.5918 27.9922ZM78.5293 30.917L77.8311 30.9414C77.2581 30.9609 76.8561 31.0586 76.625 31.2344C76.3939 31.4102 76.2783 31.651 76.2783 31.957C76.2783 32.224 76.3581 32.4193 76.5176 32.543C76.6771 32.6634 76.887 32.7236 77.1475 32.7236C77.5446 32.7236 77.8734 32.6113 78.1338 32.3867C78.3975 32.1589 78.5293 31.8252 78.5293 31.3857V30.917ZM83.2852 32.6699C83.4349 32.6699 83.583 32.6569 83.7295 32.6309C83.876 32.6016 84.0094 32.5674 84.1299 32.5283V33.3975C84.0029 33.4528 83.8385 33.5 83.6367 33.5391C83.4349 33.5781 83.2249 33.5977 83.0068 33.5977C82.7008 33.5977 82.4258 33.5472 82.1816 33.4463C81.9375 33.3421 81.7438 33.1647 81.6006 32.9141C81.4574 32.6634 81.3857 32.3167 81.3857 31.874V28.9688H80.6484V28.4561L81.4395 28.0508L81.8154 26.8936H82.5381V28.0947H84.0859V28.9688H82.5381V31.8594C82.5381 32.1328 82.6064 32.3363 82.7432 32.4697C82.8799 32.6032 83.0605 32.6699 83.2852 32.6699ZM86.376 28.0947V33.5H85.2285V28.0947H86.376ZM85.8096 26.0244C85.9854 26.0244 86.1367 26.0716 86.2637 26.166C86.3939 26.2604 86.459 26.4232 86.459 26.6543C86.459 26.8822 86.3939 27.0449 86.2637 27.1426C86.1367 27.237 85.9854 27.2842 85.8096 27.2842C85.6273 27.2842 85.4727 27.237 85.3457 27.1426C85.222 27.0449 85.1602 26.8822 85.1602 26.6543C85.1602 26.4232 85.222 26.2604 85.3457 26.166C85.4727 26.0716 85.6273 26.0244 85.8096 26.0244ZM90.8389 27.9922C91.4476 27.9922 91.9212 28.1501 92.2598 28.4658C92.6016 28.7783 92.7725 29.2812 92.7725 29.9746V33.5H91.625V30.1895C91.625 29.7695 91.5387 29.4554 91.3662 29.2471C91.1937 29.0355 90.9268 28.9297 90.5654 28.9297C90.0413 28.9297 89.6768 29.0908 89.4717 29.4131C89.2699 29.7354 89.1689 30.2025 89.1689 30.8145V33.5H88.0215V28.0947H88.915L89.0762 28.8271H89.1396C89.2568 28.6383 89.4017 28.4837 89.5742 28.3633C89.75 28.2396 89.9453 28.1468 90.1602 28.085C90.3783 28.0231 90.6045 27.9922 90.8389 27.9922ZM95.9219 35.9023C95.1895 35.9023 94.6279 35.7705 94.2373 35.5068C93.8467 35.2432 93.6514 34.8737 93.6514 34.3984C93.6514 34.0664 93.7555 33.7848 93.9639 33.5537C94.1722 33.3258 94.4701 33.168 94.8574 33.0801C94.7109 33.015 94.584 32.9141 94.4766 32.7773C94.3724 32.6374 94.3203 32.4827 94.3203 32.3135C94.3203 32.1117 94.3773 31.9391 94.4912 31.7959C94.6051 31.6527 94.776 31.5143 95.0039 31.3809C94.7207 31.2604 94.4928 31.0651 94.3203 30.7949C94.151 30.5215 94.0664 30.2008 94.0664 29.833C94.0664 29.4424 94.1494 29.1104 94.3154 28.8369C94.4814 28.5602 94.724 28.3503 95.043 28.207C95.362 28.0605 95.7477 27.9873 96.2002 27.9873C96.2979 27.9873 96.4036 27.9938 96.5176 28.0068C96.6348 28.0166 96.7422 28.0296 96.8398 28.0459C96.9408 28.0589 97.0173 28.0736 97.0693 28.0898H98.9395V28.7295L98.0215 28.9004C98.1094 29.0241 98.1794 29.1657 98.2314 29.3252C98.2835 29.4814 98.3096 29.6523 98.3096 29.8379C98.3096 30.3978 98.1159 30.8389 97.7285 31.1611C97.3444 31.4801 96.8138 31.6396 96.1367 31.6396C95.974 31.6331 95.8161 31.6201 95.6631 31.6006C95.5459 31.6722 95.4564 31.752 95.3945 31.8398C95.3327 31.9245 95.3018 32.0205 95.3018 32.1279C95.3018 32.2158 95.3327 32.2874 95.3945 32.3428C95.4564 32.3949 95.5475 32.4339 95.668 32.46C95.7917 32.486 95.9414 32.499 96.1172 32.499H97.0498C97.6423 32.499 98.0947 32.6243 98.4072 32.875C98.7197 33.1257 98.876 33.4935 98.876 33.9785C98.876 34.5938 98.6221 35.0674 98.1143 35.3994C97.6064 35.7347 96.8757 35.9023 95.9219 35.9023ZM95.9658 35.0967C96.3662 35.0967 96.7031 35.0576 96.9766 34.9795C97.25 34.9014 97.4567 34.7891 97.5967 34.6426C97.7367 34.4993 97.8066 34.3285 97.8066 34.1299C97.8066 33.9541 97.7627 33.819 97.6748 33.7246C97.5869 33.6302 97.4551 33.5651 97.2793 33.5293C97.1035 33.4935 96.8854 33.4756 96.625 33.4756H95.7754C95.5638 33.4756 95.3766 33.5081 95.2139 33.5732C95.0511 33.6416 94.9242 33.7393 94.833 33.8662C94.7451 33.9932 94.7012 34.1462 94.7012 34.3252C94.7012 34.5726 94.8102 34.763 95.0283 34.8965C95.2497 35.0299 95.5622 35.0967 95.9658 35.0967ZM96.1904 30.8877C96.5257 30.8877 96.7747 30.7965 96.9375 30.6143C97.1003 30.4287 97.1816 30.1683 97.1816 29.833C97.1816 29.4684 97.097 29.195 96.9277 29.0127C96.7617 28.8304 96.5143 28.7393 96.1855 28.7393C95.8633 28.7393 95.6175 28.832 95.4482 29.0176C95.2822 29.2031 95.1992 29.4782 95.1992 29.8428C95.1992 30.1715 95.2822 30.4287 95.4482 30.6143C95.6175 30.7965 95.8649 30.8877 96.1904 30.8877ZM103.559 31.957C103.559 32.3118 103.472 32.6113 103.3 32.8555C103.127 33.0996 102.875 33.2852 102.543 33.4121C102.214 33.5358 101.811 33.5977 101.332 33.5977C100.954 33.5977 100.629 33.57 100.355 33.5146C100.085 33.4626 99.8298 33.3812 99.5889 33.2705V32.2793C99.846 32.3997 100.134 32.5039 100.453 32.5918C100.775 32.6797 101.08 32.7236 101.366 32.7236C101.744 32.7236 102.016 32.665 102.182 32.5479C102.348 32.4274 102.431 32.2679 102.431 32.0693C102.431 31.9521 102.396 31.848 102.328 31.7568C102.263 31.6624 102.139 31.5664 101.957 31.4688C101.778 31.3678 101.514 31.2474 101.166 31.1074C100.824 30.9707 100.536 30.834 100.302 30.6973C100.067 30.5605 99.89 30.3962 99.7695 30.2041C99.6491 30.0088 99.5889 29.7598 99.5889 29.457C99.5889 28.9785 99.7777 28.6156 100.155 28.3682C100.536 28.1175 101.039 27.9922 101.664 27.9922C101.996 27.9922 102.309 28.0264 102.602 28.0947C102.898 28.1598 103.188 28.2559 103.471 28.3828L103.109 29.2471C102.865 29.1396 102.619 29.0518 102.372 28.9834C102.128 28.9118 101.879 28.876 101.625 28.876C101.329 28.876 101.103 28.9215 100.946 29.0127C100.793 29.1038 100.717 29.234 100.717 29.4033C100.717 29.5303 100.754 29.6377 100.829 29.7256C100.904 29.8135 101.033 29.9014 101.215 29.9893C101.4 30.0771 101.658 30.1862 101.986 30.3164C102.309 30.4401 102.587 30.5703 102.821 30.707C103.059 30.8405 103.241 31.0049 103.368 31.2002C103.495 31.3955 103.559 31.6478 103.559 31.957Z" fill="#868583"/>
<defs>
<linearGradient id="paint0_linear_4362_18524" x1="15.6216" y1="12.4532" x2="3.10336" y2="25.0743" gradientUnits="userSpaceOnUse">
<stop stop-color="#00C3FF"/>
<stop offset="1" stop-color="#1BE2FA"/>
</linearGradient>
<linearGradient id="paint1_linear_4362_18524" x1="22.332" y1="19.6446" x2="38.9818" y2="19.6446" gradientUnits="userSpaceOnUse">
<stop stop-color="#FFCE00"/>
<stop offset="1" stop-color="#FFEA00"/>
</linearGradient>
<linearGradient id="paint2_linear_4362_18524" x1="3.53869" y1="40.42" x2="25.6862" y2="22.6639" gradientUnits="userSpaceOnUse">
<stop stop-color="#DE2453"/>
<stop offset="1" stop-color="#FE3944"/>
</linearGradient>
<linearGradient id="paint3_linear_4362_18524" x1="4.61323" y1="-0.598087" x2="25.6903" y2="16.6174" gradientUnits="userSpaceOnUse">
<stop stop-color="#11D574"/>
<stop offset="1" stop-color="#01F176"/>
</linearGradient>
</defs>
</svg>
