<svg width="140" height="43" viewBox="0 0 140 43" fill="none" xmlns="http://www.w3.org/2000/svg">
<g clip-path="url(#clip0_4362_17057)">
<mask id="mask0_4362_17057" style="mask-type:alpha" maskUnits="userSpaceOnUse" x="13" y="2" width="37" height="39">
<path d="M47.6152 19.2523C49.4659 20.2707 49.4659 22.9003 47.6152 23.9187L18.0165 40.2062C16.214 41.198 13.9961 39.9109 13.9961 37.8729L13.9961 5.29804C13.9961 3.26009 16.214 1.97296 18.0165 2.96483L47.6152 19.2523Z" fill="#C4C4C4"/>
</mask>
<g mask="url(#mask0_4362_17057)">
<path d="M14.9219 39.8861L33.3847 21.3196L15.226 3.05884C14.5016 3.52325 13.9961 4.32504 13.9961 5.29794V37.8728C13.9961 38.7029 14.364 39.4084 14.9219 39.8861Z" fill="url(#paint0_linear_4362_17057)"/>
<path d="M47.6152 19.2522C49.466 20.2706 49.466 22.9001 47.6152 23.9186L40.1481 28.0276L33.3848 21.3194L39.8032 14.9534L47.6152 19.2522Z" fill="url(#paint1_linear_4362_17057)"/>
<path d="M40.148 28.0273L33.3847 21.3191L14.9219 39.8857C15.7338 40.5809 16.9481 40.7936 18.0165 40.2057L40.148 28.0273Z" fill="url(#paint2_linear_4362_17057)"/>
<path d="M15.2266 3.05891L33.3852 21.3196L39.8036 14.9535L18.017 2.96483C17.075 2.44648 16.0196 2.55054 15.2266 3.05891Z" fill="url(#paint3_linear_4362_17057)"/>
</g>
</g>
<path d="M74.6924 17.1372H72.5654V20.5854H70.0732V17.1372H62.9297V15.2251L70.1055 4.8374H72.5654V15.0425H74.6924V17.1372ZM70.0732 15.0425V11.1431C70.0732 10.8208 70.0768 10.495 70.084 10.1655C70.0983 9.82894 70.1126 9.50667 70.127 9.19873C70.1413 8.89079 70.1556 8.60791 70.1699 8.3501C70.1842 8.08512 70.195 7.8667 70.2021 7.69482H70.1162C69.9801 7.98128 69.8298 8.2749 69.665 8.57568C69.5003 8.8693 69.3249 9.15576 69.1387 9.43506L65.2715 15.0425H70.0732ZM76.5293 19.2534C76.5293 18.6662 76.6797 18.2544 76.9805 18.0181C77.2884 17.7746 77.6608 17.6528 78.0977 17.6528C78.5345 17.6528 78.9069 17.7746 79.2148 18.0181C79.5299 18.2544 79.6875 18.6662 79.6875 19.2534C79.6875 19.8263 79.5299 20.2417 79.2148 20.4995C78.9069 20.7502 78.5345 20.8755 78.0977 20.8755C77.6608 20.8755 77.2884 20.7502 76.9805 20.4995C76.6797 20.2417 76.5293 19.8263 76.5293 19.2534ZM87.4111 4.66553C88.3206 4.66553 89.1406 4.80876 89.8711 5.09521C90.6016 5.37451 91.1816 5.79346 91.6113 6.35205C92.041 6.91064 92.2559 7.60173 92.2559 8.42529C92.2559 9.06266 92.1234 9.61768 91.8584 10.0903C91.6006 10.563 91.2497 10.9784 90.8057 11.3364C90.3617 11.6873 89.8639 11.9989 89.3125 12.271C89.9284 12.5718 90.4941 12.9191 91.0098 13.313C91.5326 13.6997 91.9515 14.1545 92.2666 14.6772C92.5889 15.2 92.75 15.8123 92.75 16.5142C92.75 17.395 92.5244 18.1577 92.0732 18.8022C91.6292 19.4396 91.0098 19.9338 90.2148 20.2847C89.4199 20.6284 88.4925 20.8003 87.4326 20.8003C86.2939 20.8003 85.3236 20.632 84.5215 20.2954C83.7194 19.9588 83.1107 19.479 82.6953 18.856C82.2799 18.2257 82.0723 17.4738 82.0723 16.6001C82.0723 15.8768 82.2155 15.2502 82.502 14.7202C82.7884 14.1903 83.1715 13.7319 83.6514 13.3452C84.1383 12.9585 84.6719 12.6326 85.252 12.3677C84.7578 12.0741 84.3066 11.7446 83.8984 11.3794C83.4902 11.007 83.1644 10.5809 82.9209 10.1011C82.6846 9.6141 82.5664 9.05192 82.5664 8.41455C82.5664 7.59814 82.7848 6.91423 83.2217 6.36279C83.6585 5.8042 84.2422 5.38167 84.9727 5.09521C85.7103 4.80876 86.5231 4.66553 87.4111 4.66553ZM84.4785 16.5034C84.4785 17.1909 84.722 17.7567 85.209 18.2007C85.696 18.6447 86.4229 18.8667 87.3896 18.8667C88.3493 18.8667 89.0798 18.6483 89.5811 18.2114C90.0824 17.7746 90.333 17.1981 90.333 16.4819C90.333 16.0236 90.2041 15.619 89.9463 15.2681C89.6956 14.9172 89.3555 14.6056 88.9258 14.3335C88.5033 14.0542 88.0342 13.7964 87.5186 13.5601L87.1748 13.4204C86.6162 13.6567 86.1364 13.9253 85.7354 14.2261C85.3343 14.5197 85.0228 14.8527 84.8008 15.2251C84.5859 15.5975 84.4785 16.0236 84.4785 16.5034ZM87.3896 6.60986C86.695 6.60986 86.1221 6.78174 85.6709 7.12549C85.2269 7.46208 85.0049 7.94906 85.0049 8.58643C85.0049 9.0376 85.1123 9.42432 85.3271 9.74658C85.5492 10.0688 85.8464 10.3481 86.2188 10.5845C86.5911 10.8136 87.0029 11.0285 87.4541 11.229C87.891 11.0356 88.2848 10.8244 88.6357 10.5952C88.9938 10.3589 89.2767 10.0796 89.4844 9.75732C89.6992 9.4279 89.8066 9.03402 89.8066 8.57568C89.8066 7.94548 89.5811 7.46208 89.1299 7.12549C88.6859 6.78174 88.1058 6.60986 87.3896 6.60986Z" fill="#868583"/>
<path d="M107.501 2.41878L110.333 8.15711L116.667 9.08295L112.084 13.5471L113.166 19.8538L107.501 16.8746L101.836 19.8538L102.917 13.5471L98.334 9.08295L104.668 8.15711L107.501 2.41878Z" fill="#FFE234"/>
<path d="M63.0508 32.9351C63.0508 32.4312 63.0859 31.9351 63.1562 31.4468C63.2305 30.9585 63.3555 30.5015 63.5312 30.0757C63.707 29.6499 63.9492 29.2749 64.2578 28.9507C64.5703 28.6265 64.9629 28.3726 65.4355 28.189C65.9082 28.0015 66.4766 27.9077 67.1406 27.9077C67.3125 27.9077 67.5059 27.9155 67.7207 27.9312C67.9355 27.9468 68.1133 27.9722 68.2539 28.0073V29.1499C68.1016 29.1069 67.9336 29.0737 67.75 29.0503C67.5703 29.0269 67.3906 29.0151 67.2109 29.0151C66.4922 29.0151 65.9316 29.1519 65.5293 29.4253C65.127 29.6948 64.8398 30.0659 64.668 30.5386C64.4961 31.0073 64.3965 31.5444 64.3691 32.1499H64.4395C64.5566 31.9546 64.7031 31.7808 64.8789 31.6284C65.0547 31.4761 65.2695 31.355 65.5234 31.2651C65.7773 31.1714 66.0723 31.1245 66.4082 31.1245C66.9082 31.1245 67.3438 31.23 67.7148 31.4409C68.0859 31.6479 68.3711 31.9487 68.5703 32.3433C68.7734 32.7378 68.875 33.2163 68.875 33.7788C68.875 34.3843 68.7598 34.9058 68.5293 35.3433C68.3027 35.7808 67.9785 36.1167 67.5566 36.3511C67.1387 36.5854 66.6406 36.7026 66.0625 36.7026C65.6367 36.7026 65.2402 36.6245 64.873 36.4683C64.5098 36.312 64.1914 36.0776 63.918 35.7651C63.6445 35.4526 63.4316 35.062 63.2793 34.5933C63.127 34.1206 63.0508 33.5679 63.0508 32.9351ZM66.0391 35.5659C66.4844 35.5659 66.8418 35.4214 67.1113 35.1323C67.3848 34.8394 67.5215 34.3921 67.5215 33.7905C67.5215 33.3022 67.4004 32.9155 67.1582 32.6304C66.9199 32.3452 66.5605 32.2026 66.0801 32.2026C65.752 32.2026 65.4648 32.2729 65.2188 32.4136C64.9727 32.5542 64.7812 32.7319 64.6445 32.9468C64.5117 33.1616 64.4453 33.3804 64.4453 33.603C64.4453 33.8296 64.4785 34.0581 64.5449 34.2886C64.6113 34.519 64.7109 34.7319 64.8438 34.9272C64.9766 35.1187 65.1426 35.2729 65.3418 35.3901C65.541 35.5073 65.7734 35.5659 66.0391 35.5659ZM70.8848 36.5854L74.248 29.2261H69.8008V28.019H75.7305V28.9624L72.3672 36.5854H70.8848ZM82.2461 29.9761C82.2461 30.3628 82.168 30.6987 82.0117 30.9839C81.8555 31.269 81.6406 31.5034 81.3672 31.687C81.0977 31.8667 80.7852 31.9956 80.4297 32.0737V32.1147C81.1133 32.2007 81.6289 32.4155 81.9766 32.7593C82.3281 33.103 82.5039 33.5581 82.5039 34.1245C82.5039 34.6206 82.3848 35.064 82.1465 35.4546C81.9082 35.8413 81.543 36.146 81.0508 36.3687C80.5586 36.5913 79.9258 36.7026 79.1523 36.7026C78.6875 36.7026 78.2559 36.6655 77.8574 36.5913C77.4629 36.5171 77.0879 36.3979 76.7324 36.2339V35.0093C77.0957 35.189 77.4824 35.3276 77.8926 35.4253C78.3027 35.5229 78.6914 35.5718 79.0586 35.5718C79.7734 35.5718 80.2832 35.439 80.5879 35.1733C80.8926 34.9038 81.0449 34.5327 81.0449 34.0601C81.0449 33.7554 80.9648 33.5054 80.8047 33.3101C80.6484 33.1147 80.4043 32.9683 80.0723 32.8706C79.7441 32.7729 79.3203 32.7241 78.8008 32.7241H78.0449V31.6167H78.8066C79.3027 31.6167 79.7012 31.5581 80.002 31.4409C80.3027 31.3198 80.5195 31.1538 80.6523 30.9429C80.7891 30.7319 80.8574 30.4858 80.8574 30.2046C80.8574 29.8374 80.7383 29.5522 80.5 29.3491C80.2617 29.1421 79.9082 29.0386 79.4395 29.0386C79.1504 29.0386 78.8867 29.0718 78.6484 29.1382C78.4141 29.2046 78.1973 29.2886 77.998 29.3901C77.7988 29.4917 77.6094 29.6011 77.4297 29.7183L76.7676 28.7632C77.0918 28.521 77.4785 28.3159 77.9277 28.1479C78.377 27.98 78.9004 27.896 79.498 27.896C80.377 27.896 81.0547 28.0854 81.5312 28.4644C82.0078 28.8394 82.2461 29.3433 82.2461 29.9761ZM89.752 28.019C90.4902 28.019 91.0996 28.1089 91.5801 28.2886C92.0645 28.4683 92.4238 28.7417 92.6582 29.1089C92.8965 29.4761 93.0156 29.9429 93.0156 30.5093C93.0156 30.9312 92.9375 31.2905 92.7812 31.5874C92.625 31.8843 92.4199 32.1304 92.166 32.3257C91.9121 32.521 91.6406 32.6772 91.3516 32.7944L93.7832 36.5854H92.1953L90.127 33.1519H88.75V36.5854H87.3438V28.019H89.752ZM89.6582 29.1909H88.75V31.9917H89.7227C90.375 31.9917 90.8477 31.8706 91.1406 31.6284C91.4375 31.3862 91.5859 31.0288 91.5859 30.5562C91.5859 30.0601 91.4277 29.7085 91.1113 29.5015C90.7988 29.2944 90.3145 29.1909 89.6582 29.1909ZM97.4102 29.9761C98.2305 29.9761 98.8496 30.1577 99.2676 30.521C99.6895 30.8843 99.9004 31.4507 99.9004 32.2202V36.5854H98.9219L98.6582 35.6655H98.6113C98.4277 35.8999 98.2383 36.0933 98.043 36.2456C97.8477 36.3979 97.6211 36.5112 97.3633 36.5854C97.1094 36.6636 96.7988 36.7026 96.4316 36.7026C96.0449 36.7026 95.6992 36.6323 95.3945 36.4917C95.0898 36.3472 94.8496 36.1284 94.6738 35.8354C94.498 35.5425 94.4102 35.1714 94.4102 34.7222C94.4102 34.0542 94.6582 33.5522 95.1543 33.2163C95.6543 32.8804 96.4082 32.6948 97.416 32.6597L98.541 32.6187V32.2788C98.541 31.8296 98.4355 31.5093 98.2246 31.3179C98.0176 31.1265 97.7246 31.0308 97.3457 31.0308C97.0215 31.0308 96.707 31.0776 96.4023 31.1714C96.0977 31.2651 95.8008 31.3804 95.5117 31.5171L95.0664 30.5444C95.3828 30.3765 95.7422 30.2397 96.1445 30.1343C96.5508 30.0288 96.9727 29.9761 97.4102 29.9761ZM98.5352 33.4858L97.6973 33.5151C97.0098 33.5386 96.5273 33.6558 96.25 33.8667C95.9727 34.0776 95.834 34.3667 95.834 34.7339C95.834 35.0542 95.9297 35.2886 96.1211 35.437C96.3125 35.5815 96.5645 35.6538 96.877 35.6538C97.3535 35.6538 97.748 35.519 98.0605 35.2495C98.377 34.9761 98.5352 34.5757 98.5352 34.0483V33.4858ZM104.242 35.5894C104.422 35.5894 104.6 35.5737 104.775 35.5425C104.951 35.5073 105.111 35.4663 105.256 35.4194V36.4624C105.104 36.5288 104.906 36.5854 104.664 36.6323C104.422 36.6792 104.17 36.7026 103.908 36.7026C103.541 36.7026 103.211 36.6421 102.918 36.521C102.625 36.396 102.393 36.1831 102.221 35.8823C102.049 35.5815 101.963 35.1655 101.963 34.6343V31.1479H101.078V30.5327L102.027 30.0464L102.479 28.6577H103.346V30.0991H105.203V31.1479H103.346V34.6167C103.346 34.9448 103.428 35.189 103.592 35.3491C103.756 35.5093 103.973 35.5894 104.242 35.5894ZM107.951 30.0991V36.5854H106.574V30.0991H107.951ZM107.271 27.6147C107.482 27.6147 107.664 27.6714 107.816 27.7847C107.973 27.8979 108.051 28.0933 108.051 28.3706C108.051 28.644 107.973 28.8394 107.816 28.9565C107.664 29.0698 107.482 29.1265 107.271 29.1265C107.053 29.1265 106.867 29.0698 106.715 28.9565C106.566 28.8394 106.492 28.644 106.492 28.3706C106.492 28.0933 106.566 27.8979 106.715 27.7847C106.867 27.6714 107.053 27.6147 107.271 27.6147ZM113.307 29.9761C114.037 29.9761 114.605 30.1655 115.012 30.5444C115.422 30.9194 115.627 31.5229 115.627 32.355V36.5854H114.25V32.6128C114.25 32.1089 114.146 31.7319 113.939 31.4819C113.732 31.228 113.412 31.1011 112.979 31.1011C112.35 31.1011 111.912 31.2944 111.666 31.6812C111.424 32.0679 111.303 32.6284 111.303 33.3628V36.5854H109.926V30.0991H110.998L111.191 30.978H111.268C111.408 30.7515 111.582 30.5659 111.789 30.4214C112 30.2729 112.234 30.1616 112.492 30.0874C112.754 30.0132 113.025 29.9761 113.307 29.9761ZM119.406 39.4683C118.527 39.4683 117.854 39.3101 117.385 38.9937C116.916 38.6772 116.682 38.2339 116.682 37.6636C116.682 37.2651 116.807 36.9272 117.057 36.6499C117.307 36.3765 117.664 36.187 118.129 36.0815C117.953 36.0034 117.801 35.8823 117.672 35.7183C117.547 35.5503 117.484 35.3647 117.484 35.1616C117.484 34.9194 117.553 34.7124 117.689 34.5405C117.826 34.3687 118.031 34.2026 118.305 34.0425C117.965 33.8979 117.691 33.6636 117.484 33.3394C117.281 33.0112 117.18 32.6265 117.18 32.1851C117.18 31.7163 117.279 31.3179 117.479 30.9897C117.678 30.6577 117.969 30.4058 118.352 30.2339C118.734 30.0581 119.197 29.9702 119.74 29.9702C119.857 29.9702 119.984 29.978 120.121 29.9937C120.262 30.0054 120.391 30.021 120.508 30.0405C120.629 30.0562 120.721 30.0737 120.783 30.0933H123.027V30.8608L121.926 31.0659C122.031 31.2144 122.115 31.3843 122.178 31.5757C122.24 31.7632 122.271 31.9683 122.271 32.1909C122.271 32.8628 122.039 33.3921 121.574 33.7788C121.113 34.1616 120.477 34.353 119.664 34.353C119.469 34.3452 119.279 34.3296 119.096 34.3062C118.955 34.3921 118.848 34.4878 118.773 34.5933C118.699 34.6948 118.662 34.8101 118.662 34.939C118.662 35.0444 118.699 35.1304 118.773 35.1968C118.848 35.2593 118.957 35.3062 119.102 35.3374C119.25 35.3687 119.43 35.3843 119.641 35.3843H120.76C121.471 35.3843 122.014 35.5347 122.389 35.8354C122.764 36.1362 122.951 36.5776 122.951 37.1597C122.951 37.8979 122.646 38.4663 122.037 38.8647C121.428 39.2671 120.551 39.4683 119.406 39.4683ZM119.459 38.5015C119.939 38.5015 120.344 38.4546 120.672 38.3608C121 38.2671 121.248 38.1323 121.416 37.9565C121.584 37.7847 121.668 37.5796 121.668 37.3413C121.668 37.1304 121.615 36.9683 121.51 36.855C121.404 36.7417 121.246 36.6636 121.035 36.6206C120.824 36.5776 120.562 36.5562 120.25 36.5562H119.23C118.977 36.5562 118.752 36.5952 118.557 36.6733C118.361 36.7554 118.209 36.8726 118.1 37.0249C117.994 37.1772 117.941 37.3608 117.941 37.5757C117.941 37.8726 118.072 38.1011 118.334 38.2612C118.6 38.4214 118.975 38.5015 119.459 38.5015ZM119.729 33.4507C120.131 33.4507 120.43 33.3413 120.625 33.1226C120.82 32.8999 120.918 32.5874 120.918 32.1851C120.918 31.7476 120.816 31.4194 120.613 31.2007C120.414 30.9819 120.117 30.8726 119.723 30.8726C119.336 30.8726 119.041 30.9839 118.838 31.2065C118.639 31.4292 118.539 31.7593 118.539 32.1968C118.539 32.5913 118.639 32.8999 118.838 33.1226C119.041 33.3413 119.338 33.4507 119.729 33.4507ZM128.57 34.7339C128.57 35.1597 128.467 35.519 128.26 35.812C128.053 36.105 127.75 36.3276 127.352 36.48C126.957 36.6284 126.473 36.7026 125.898 36.7026C125.445 36.7026 125.055 36.6694 124.727 36.603C124.402 36.5405 124.096 36.4429 123.807 36.3101V35.1206C124.115 35.2651 124.461 35.3901 124.844 35.4956C125.23 35.6011 125.596 35.6538 125.939 35.6538C126.393 35.6538 126.719 35.5835 126.918 35.4429C127.117 35.2983 127.217 35.1069 127.217 34.8687C127.217 34.728 127.176 34.603 127.094 34.4937C127.016 34.3804 126.867 34.2651 126.648 34.1479C126.434 34.0269 126.117 33.8823 125.699 33.7144C125.289 33.5503 124.943 33.3862 124.662 33.2222C124.381 33.0581 124.168 32.8608 124.023 32.6304C123.879 32.396 123.807 32.0972 123.807 31.7339C123.807 31.1597 124.033 30.7241 124.486 30.4272C124.943 30.1265 125.547 29.9761 126.297 29.9761C126.695 29.9761 127.07 30.0171 127.422 30.0991C127.777 30.1772 128.125 30.2925 128.465 30.4448L128.031 31.4819C127.738 31.353 127.443 31.2476 127.146 31.1655C126.854 31.0796 126.555 31.0366 126.25 31.0366C125.895 31.0366 125.623 31.0913 125.436 31.2007C125.252 31.3101 125.16 31.4663 125.16 31.6694C125.16 31.8218 125.205 31.9507 125.295 32.0562C125.385 32.1616 125.539 32.2671 125.758 32.3726C125.98 32.478 126.289 32.6089 126.684 32.7651C127.07 32.9136 127.404 33.0698 127.686 33.2339C127.971 33.394 128.189 33.5913 128.342 33.8257C128.494 34.0601 128.57 34.3628 128.57 34.7339Z" fill="#868583"/>
<defs>
<linearGradient id="paint0_linear_4362_17057" x1="26.6525" y1="14.1082" x2="14.0997" y2="26.7642" gradientUnits="userSpaceOnUse">
<stop stop-color="#00C3FF"/>
<stop offset="1" stop-color="#1BE2FA"/>
</linearGradient>
<linearGradient id="paint1_linear_4362_17057" x1="33.3848" y1="21.3195" x2="50.0805" y2="21.3195" gradientUnits="userSpaceOnUse">
<stop stop-color="#FFCE00"/>
<stop offset="1" stop-color="#FFEA00"/>
</linearGradient>
<linearGradient id="paint2_linear_4362_17057" x1="14.5347" y1="42.152" x2="36.7433" y2="24.3469" gradientUnits="userSpaceOnUse">
<stop stop-color="#DE2453"/>
<stop offset="1" stop-color="#FE3944"/>
</linearGradient>
<linearGradient id="paint3_linear_4362_17057" x1="15.6123" y1="1.02079" x2="36.7476" y2="18.2838" gradientUnits="userSpaceOnUse">
<stop stop-color="#11D574"/>
<stop offset="1" stop-color="#01F176"/>
</linearGradient>
<clipPath id="clip0_4362_17057">
<rect width="42" height="42" fill="white" transform="translate(10.5 0.585449)"/>
</clipPath>
</defs>
</svg>
