<svg width="160" height="44" viewBox="0 0 160 44" fill="none" xmlns="http://www.w3.org/2000/svg">
<g clip-path="url(#clip0_4308_2159)">
<path d="M5.4375 21.095C18.6111 18.9221 31.755 18.9117 44.8692 21.095L42.7352 31.019C30.6968 29.5443 19.0082 29.4443 7.7409 31.019L5.4375 21.095Z" fill="#7EB530"/>
<path d="M44.9667 24.2202C46.4828 24.3604 48.3152 24.5299 50.3075 24.7139L47.3152 29.5811L48.7603 34.758L39.0898 33.7844L43.2553 31.4983L44.9667 24.2202Z" fill="#7EB530"/>
<path d="M5.34078 24.2202C3.82467 24.3604 1.99225 24.5299 0 24.7139L2.99226 29.5811L1.54718 34.758L11.2176 33.7844L7.05223 31.4983L5.34078 24.2202Z" fill="#7EB530"/>
<path d="M12.2383 32.6118C15.3159 36.2013 19.6707 39.1506 25.1092 41.5568C32.4595 38.0388 35.7401 35.4875 37.7329 32.6118L32.4962 32.0399C30.4484 33.9381 28.2257 35.4843 25.826 36.6708C25.2798 36.8672 24.6515 36.8224 24.2553 36.6431C23.8581 36.4638 22.9545 35.893 22.5378 35.6604C21.8977 35.3029 21.0287 34.8099 20.7523 34.5336L17.1036 32.0388L12.2383 32.6118Z" fill="#0082D2"/>
<path d="M13.0006 18.2556V10.0254C21.066 4.64293 29.0515 4.83031 36.9615 10.2221L36.863 18.2556L41.473 18.9752V8.28959C39.8838 4.81899 30.1329 1.33294 24.9865 1.8333C17.7978 1.68813 12.6482 4.08595 8.5 8.05383V18.9515L13.0006 18.2556Z" fill="#0082D2"/>
<g clip-path="url(#clip1_4308_2159)">
<path d="M25.1507 32.322L25.5884 33.2087L26.5671 33.3517L25.8589 34.0415L26.0261 35.016L25.1507 34.5556L24.2754 35.016L24.4426 34.0415L23.7344 33.3517L24.7131 33.2087L25.1507 32.322Z" fill="#7EB530"/>
</g>
<g clip-path="url(#clip2_4308_2159)">
<path d="M22.094 30.9055L22.4442 31.6148L23.2271 31.7293L22.6606 32.2811L22.7943 33.0607L22.094 32.6924L21.3938 33.0607L21.5275 32.2811L20.9609 31.7293L21.7439 31.6148L22.094 30.9055Z" fill="#7EB530"/>
</g>
<g clip-path="url(#clip3_4308_2159)">
<path d="M28.2151 30.9055L28.5653 31.6148L29.3482 31.7293L28.7817 32.2811L28.9154 33.0607L28.2151 32.6924L27.5149 33.0607L27.6486 32.2811L27.082 31.7293L27.865 31.6148L28.2151 30.9055Z" fill="#7EB530"/>
</g>
<path d="M17.0204 12.9236L17.4876 9.55152H17.9934L18.8172 11.0882L19.6361 9.55152H20.1419L20.6092 12.9236H19.9685L19.6458 10.3897L19.8144 10.4234L18.8172 12.2154L17.8152 10.4283L17.9838 10.3945L17.6611 12.9236H17.0204ZM22.6235 12.991C22.3024 12.991 22.0166 12.9188 21.7661 12.7742C21.5156 12.6281 21.3189 12.4242 21.1759 12.1625C21.033 11.8991 20.9616 11.5908 20.9616 11.2375C20.9616 10.8843 21.033 10.5768 21.1759 10.315C21.3189 10.0517 21.5156 9.84778 21.7661 9.70326C22.0166 9.55714 22.3024 9.48407 22.6235 9.48407C22.9447 9.48407 23.2305 9.55714 23.481 9.70326C23.7315 9.84778 23.9282 10.0517 24.0711 10.315C24.214 10.5768 24.2855 10.8843 24.2855 11.2375C24.2855 11.5908 24.214 11.8991 24.0711 12.1625C23.9282 12.4242 23.7315 12.6281 23.481 12.7742C23.2305 12.9188 22.9447 12.991 22.6235 12.991ZM22.6235 12.3937C22.8483 12.3937 23.0362 12.3439 23.1871 12.2444C23.3381 12.1448 23.4513 12.0083 23.5268 11.8349C23.6022 11.6599 23.64 11.4607 23.64 11.2375C23.64 11.0144 23.6022 10.816 23.5268 10.6426C23.4513 10.4676 23.3381 10.3303 23.1871 10.2307C23.0362 10.1312 22.8483 10.0814 22.6235 10.0814C22.3987 10.0814 22.2109 10.1312 22.0599 10.2307C21.909 10.3303 21.7958 10.4676 21.7203 10.6426C21.6448 10.816 21.6071 11.0144 21.6071 11.2375C21.6071 11.4607 21.6448 11.6599 21.7203 11.8349C21.7958 12.0083 21.909 12.1448 22.0599 12.2444C22.2109 12.3439 22.3987 12.3937 22.6235 12.3937ZM24.8239 12.9236V9.55152H25.4309L26.8712 11.7289V9.55152H27.4878V12.9236H26.982L25.4405 10.6113V12.9236H24.8239ZM28.2298 12.9236V9.55152H30.3879V10.1489H28.8609V10.8666H30.0459V11.464H28.8609V12.3262H30.4361V12.9236H28.2298ZM31.7433 12.9236V11.5603L30.5583 9.55152H31.2327L32.1961 11.2616H31.9071L32.8706 9.55152H33.545L32.3599 11.5603V12.9236H31.7433ZM19.5621 17.9236V14.5515H20.8338C21.1598 14.5515 21.4015 14.6214 21.5588 14.7611C21.7178 14.8992 21.7973 15.1007 21.7973 15.3656C21.7973 15.5631 21.7523 15.7285 21.6624 15.8618C21.5741 15.9935 21.4408 16.0898 21.2626 16.1508V16.0352C21.5323 16.093 21.7339 16.199 21.8671 16.3532C22.0004 16.5073 22.067 16.7112 22.067 16.965C22.067 17.2684 21.9691 17.5045 21.7732 17.6731C21.5773 17.8401 21.3091 17.9236 20.9687 17.9236H19.5621ZM20.1787 17.3744H20.8772C21.0458 17.3744 21.1799 17.3399 21.2794 17.2708C21.3806 17.2018 21.4312 17.0774 21.4312 16.8975C21.4312 16.7145 21.3782 16.59 21.2722 16.5242C21.1662 16.4583 21.0345 16.4254 20.8772 16.4254H20.1787V17.3744ZM20.1787 15.8763H20.7423C20.8916 15.8763 21.0032 15.8457 21.0771 15.7847C21.1526 15.7237 21.1903 15.6258 21.1903 15.4909C21.1903 15.3512 21.1526 15.2516 21.0771 15.1922C21.0032 15.1312 20.8916 15.1007 20.7423 15.1007H20.1787V15.8763ZM24.4177 17.1239H23.0063V16.5844H24.4177V17.1239ZM23.6325 15.1537H23.7915L22.8184 17.9236H22.2211L23.4206 14.5515H24.0035L25.203 17.9236H24.6056L23.6325 15.1537ZM27.0637 17.991C26.7216 17.991 26.4206 17.9188 26.1604 17.7742C25.9003 17.6281 25.6972 17.4242 25.551 17.1625C25.4065 16.8991 25.3343 16.5908 25.3343 16.2375C25.3343 15.8843 25.4089 15.5768 25.5583 15.315C25.7092 15.0517 25.9163 14.8478 26.1797 14.7033C26.443 14.5571 26.7441 14.4841 27.0829 14.4841C27.2612 14.4841 27.4241 14.5033 27.5719 14.5419C27.7196 14.5788 27.8473 14.6254 27.9548 14.6816L27.8874 15.2693C27.7654 15.2131 27.6393 15.1673 27.5092 15.132C27.3808 15.0951 27.2371 15.0766 27.0781 15.0766C26.8421 15.0766 26.6446 15.1264 26.4856 15.2259C26.3282 15.3255 26.2094 15.4628 26.1291 15.6378C26.0488 15.8128 26.0087 16.0127 26.0087 16.2375C26.0087 16.4624 26.048 16.6623 26.1267 16.8373C26.2054 17.0123 26.3226 17.1496 26.4784 17.2492C26.6357 17.3487 26.8308 17.3985 27.0637 17.3985C27.2258 17.3985 27.3712 17.3808 27.4996 17.3455C27.6281 17.3102 27.7573 17.2636 27.8874 17.2058L27.9548 17.7935C27.828 17.8529 27.6883 17.9003 27.5357 17.9356C27.3848 17.9726 27.2274 17.991 27.0637 17.991ZM30.3845 17.9236L29.1369 16.1412L30.3845 14.5515H31.1071L29.8498 16.1412L31.1071 17.9236H30.3845ZM28.4721 17.9236V14.5515H29.0887V17.9236H28.4721Z" fill="#0082D2"/>
<path d="M13.1861 26.9083C12.8296 26.9083 12.5245 26.836 12.2708 26.6915C12.0171 26.5454 11.8228 26.3406 11.6879 26.0773C11.5531 25.8139 11.4856 25.5048 11.4856 25.15C11.4856 24.7983 11.5603 24.4916 11.7096 24.2299C11.8606 23.9665 12.0685 23.7626 12.3335 23.6181C12.5984 23.4736 12.9035 23.4013 13.2487 23.4013C13.427 23.4013 13.5972 23.4198 13.7594 23.4567C13.9231 23.4936 14.0628 23.541 14.1785 23.5988L14.111 24.1865C13.9906 24.1303 13.8573 24.0846 13.7112 24.0492C13.5667 24.0123 13.4125 23.9938 13.2487 23.9938C12.9982 23.9938 12.7927 24.0444 12.6321 24.1456C12.4715 24.2451 12.3527 24.3816 12.2756 24.555C12.1986 24.7269 12.16 24.922 12.16 25.1403C12.16 25.37 12.1986 25.5731 12.2756 25.7497C12.3543 25.9263 12.4715 26.0652 12.6273 26.1664C12.7831 26.266 12.9774 26.3157 13.2102 26.3157C13.2808 26.3157 13.3547 26.3109 13.4318 26.3013C13.5105 26.2917 13.5908 26.2788 13.6726 26.2628V25.6606H13.2102V25.15H14.2893V26.6529C14.172 26.722 14.0163 26.7822 13.822 26.8336C13.6293 26.8834 13.4173 26.9083 13.1861 26.9083ZM16.2454 26.9083C15.929 26.9083 15.6673 26.8456 15.4601 26.7204C15.2546 26.5951 15.1013 26.4193 15.0001 26.1929C14.8989 25.9665 14.8484 25.7007 14.8484 25.3956V23.4688H15.465V25.2367C15.465 25.3973 15.4754 25.5442 15.4963 25.6775C15.5171 25.8091 15.5549 25.9231 15.6095 26.0195C15.6657 26.1142 15.7452 26.1873 15.8479 26.2387C15.9507 26.29 16.0832 26.3157 16.2454 26.3157C16.4075 26.3157 16.54 26.29 16.6428 26.2387C16.7455 26.1873 16.8242 26.1142 16.8788 26.0195C16.935 25.9231 16.9736 25.8091 16.9944 25.6775C17.0153 25.5442 17.0257 25.3973 17.0257 25.2367V23.4688H17.6424V25.3956C17.6424 25.7007 17.5918 25.9665 17.4906 26.1929C17.3895 26.4193 17.2353 26.5951 17.0282 26.7204C16.8226 26.8456 16.5617 26.9083 16.2454 26.9083ZM20.1048 26.0412H18.6933V25.5016H20.1048V26.0412ZM19.3196 24.0709H19.4786L18.5055 26.8408H17.9081L19.1076 23.4688H19.6905L20.89 26.8408H20.2927L19.3196 24.0709ZM21.2754 26.8408V23.4688H22.5086C22.7414 23.4688 22.9446 23.5057 23.118 23.5795C23.293 23.6534 23.4287 23.7658 23.525 23.9168C23.6214 24.0677 23.6696 24.2588 23.6696 24.49C23.6696 24.7373 23.6166 24.934 23.5106 25.0801C23.4062 25.2246 23.2681 25.3394 23.0963 25.4246L23.8574 26.8408H23.1686L22.5182 25.5883C22.5134 25.5883 22.5094 25.5883 22.5062 25.5883C22.503 25.5883 22.499 25.5883 22.4941 25.5883H21.892V26.8408H21.2754ZM21.892 25.0729H22.3448C22.5985 25.0729 22.7752 25.0215 22.8747 24.9187C22.9743 24.8144 23.024 24.6827 23.024 24.5237C23.024 24.3551 22.9751 24.2235 22.8771 24.1287C22.7792 24.0324 22.6098 23.9842 22.3689 23.9842H21.892V25.0729ZM26.131 26.0412H24.7196V25.5016H26.131V26.0412ZM25.3458 24.0709H25.5048L24.5317 26.8408H23.9344L25.1339 23.4688H25.7168L26.9163 26.8408H26.3189L25.3458 24.0709ZM27.3016 26.8408V23.4688H27.9086L29.349 25.6461V23.4688H29.9656V26.8408H29.4598L27.9182 24.5285V26.8408H27.3016ZM31.3627 26.8408V24.0661H30.4089V23.4688H32.9331V24.0661H31.9793V26.8408H31.3627ZM33.3749 26.8408V23.4688H35.5331V24.0661H34.006V24.7839H35.191V25.3812H34.006V26.2435H35.5812V26.8408H33.3749ZM36.1129 26.8408V23.4688H38.271V24.0661H36.7439V24.7839H37.929V25.3812H36.7439V26.2435H38.3192V26.8408H36.1129Z" fill="white"/>
</g>
<path d="M68.7197 20.6709H66.1846V10.5625C66.1846 10.2259 66.1882 9.88932 66.1953 9.55273C66.2025 9.21615 66.2096 8.88672 66.2168 8.56445C66.2311 8.24219 66.249 7.93424 66.2705 7.64062C66.1201 7.80534 65.9339 7.98438 65.7119 8.17773C65.4971 8.37109 65.2679 8.57161 65.0244 8.7793L63.2197 10.2188L61.9521 8.61816L66.6143 4.96582H68.7197V20.6709ZM84.5215 12.8076C84.5215 14.0752 84.4212 15.2103 84.2207 16.2129C84.0273 17.2083 83.7194 18.0534 83.2969 18.748C82.8743 19.4427 82.3229 19.9727 81.6426 20.3379C80.9622 20.7031 80.1387 20.8857 79.1719 20.8857C77.9616 20.8857 76.9626 20.5671 76.1748 19.9297C75.387 19.2852 74.8034 18.3613 74.4238 17.1582C74.0443 15.9479 73.8545 14.4977 73.8545 12.8076C73.8545 11.1175 74.0264 9.6709 74.3701 8.46777C74.721 7.25749 75.2868 6.33008 76.0674 5.68555C76.848 5.04102 77.8828 4.71875 79.1719 4.71875C80.3893 4.71875 81.3919 5.04102 82.1797 5.68555C82.9746 6.32292 83.5618 7.24674 83.9414 8.45703C84.3281 9.66016 84.5215 11.1104 84.5215 12.8076ZM76.4004 12.8076C76.4004 14.1325 76.4863 15.2389 76.6582 16.127C76.8372 17.015 77.1309 17.681 77.5391 18.125C77.9473 18.5618 78.4915 18.7803 79.1719 18.7803C79.8522 18.7803 80.3965 18.5618 80.8047 18.125C81.2129 17.6882 81.5065 17.0257 81.6855 16.1377C81.8717 15.2497 81.9648 14.1396 81.9648 12.8076C81.9648 11.4899 81.8753 10.387 81.6963 9.49902C81.5173 8.611 81.2236 7.94499 80.8154 7.50098C80.4072 7.0498 79.8594 6.82422 79.1719 6.82422C78.4844 6.82422 77.9365 7.0498 77.5283 7.50098C77.1273 7.94499 76.8372 8.611 76.6582 9.49902C76.4863 10.387 76.4004 11.4899 76.4004 12.8076ZM97.1113 12.8076C97.1113 14.0752 97.0111 15.2103 96.8105 16.2129C96.6172 17.2083 96.3092 18.0534 95.8867 18.748C95.4642 19.4427 94.9128 19.9727 94.2324 20.3379C93.5521 20.7031 92.7285 20.8857 91.7617 20.8857C90.5514 20.8857 89.5524 20.5671 88.7646 19.9297C87.9769 19.2852 87.3932 18.3613 87.0137 17.1582C86.6341 15.9479 86.4443 14.4977 86.4443 12.8076C86.4443 11.1175 86.6162 9.6709 86.96 8.46777C87.3109 7.25749 87.8766 6.33008 88.6572 5.68555C89.4378 5.04102 90.4727 4.71875 91.7617 4.71875C92.9792 4.71875 93.9818 5.04102 94.7695 5.68555C95.5645 6.32292 96.1517 7.24674 96.5312 8.45703C96.918 9.66016 97.1113 11.1104 97.1113 12.8076ZM88.9902 12.8076C88.9902 14.1325 89.0762 15.2389 89.248 16.127C89.4271 17.015 89.7207 17.681 90.1289 18.125C90.5371 18.5618 91.0814 18.7803 91.7617 18.7803C92.4421 18.7803 92.9863 18.5618 93.3945 18.125C93.8027 17.6882 94.0964 17.0257 94.2754 16.1377C94.4616 15.2497 94.5547 14.1396 94.5547 12.8076C94.5547 11.4899 94.4652 10.387 94.2861 9.49902C94.1071 8.611 93.8135 7.94499 93.4053 7.50098C92.9971 7.0498 92.4492 6.82422 91.7617 6.82422C91.0742 6.82422 90.5264 7.0498 90.1182 7.50098C89.7171 7.94499 89.4271 8.611 89.248 9.49902C89.0762 10.387 88.9902 11.4899 88.9902 12.8076ZM102.418 4.74023C103.571 4.74023 104.445 5.16992 105.039 6.0293C105.633 6.88151 105.931 8.08822 105.931 9.64941C105.931 11.2035 105.644 12.4173 105.071 13.291C104.506 14.1647 103.621 14.6016 102.418 14.6016C101.294 14.6016 100.438 14.1647 99.8506 13.291C99.2633 12.4173 98.9697 11.2035 98.9697 9.64941C98.9697 8.08822 99.2454 6.88151 99.7969 6.0293C100.355 5.16992 101.229 4.74023 102.418 4.74023ZM102.429 6.50195C101.963 6.50195 101.619 6.76335 101.397 7.28613C101.183 7.80892 101.075 8.60026 101.075 9.66016C101.075 10.7129 101.183 11.5078 101.397 12.0449C101.619 12.5749 101.963 12.8398 102.429 12.8398C102.901 12.8398 103.252 12.5749 103.481 12.0449C103.718 11.515 103.836 10.7201 103.836 9.66016C103.836 8.60742 103.721 7.81966 103.492 7.29688C103.263 6.76693 102.909 6.50195 102.429 6.50195ZM112.967 4.96582L104.255 20.6709H102.182L110.894 4.96582H112.967ZM112.677 11.0244C113.83 11.0244 114.703 11.4541 115.298 12.3135C115.899 13.1657 116.2 14.3724 116.2 15.9336C116.2 17.4805 115.914 18.6908 115.341 19.5645C114.775 20.4382 113.887 20.875 112.677 20.875C111.552 20.875 110.697 20.4382 110.109 19.5645C109.522 18.6908 109.229 17.4805 109.229 15.9336C109.229 14.3724 109.504 13.1657 110.056 12.3135C110.614 11.4541 111.488 11.0244 112.677 11.0244ZM112.688 12.7861C112.222 12.7861 111.878 13.0475 111.656 13.5703C111.441 14.0931 111.334 14.8844 111.334 15.9443C111.334 16.9971 111.441 17.792 111.656 18.3291C111.878 18.859 112.222 19.124 112.688 19.124C113.167 19.124 113.522 18.8626 113.751 18.3398C113.98 17.8099 114.095 17.0114 114.095 15.9443C114.095 14.8916 113.98 14.1038 113.751 13.5811C113.522 13.0511 113.167 12.7861 112.688 12.7861Z" fill="#868583"/>
<path d="M63.3213 28.5322C64.2425 28.5322 64.9147 28.721 65.3379 29.0986C65.7611 29.4762 65.9727 30.0052 65.9727 30.6855C65.9727 30.9948 65.9238 31.2894 65.8262 31.5693C65.7318 31.846 65.5755 32.0918 65.3574 32.3066C65.1393 32.5182 64.8512 32.6859 64.4932 32.8096C64.1383 32.9333 63.7005 32.9951 63.1797 32.9951H62.418V35.6709H61.2461V28.5322H63.3213ZM63.2432 29.5039H62.418V32.0186H63.0576C63.4255 32.0186 63.738 31.9762 63.9951 31.8916C64.2523 31.8037 64.4476 31.6654 64.5811 31.4766C64.7145 31.2878 64.7812 31.0387 64.7812 30.7295C64.7812 30.3161 64.6559 30.0085 64.4053 29.8066C64.1579 29.6048 63.7705 29.5039 63.2432 29.5039ZM69.4004 30.1631C70.084 30.1631 70.5999 30.3145 70.9482 30.6172C71.2998 30.9199 71.4756 31.3919 71.4756 32.0332V35.6709H70.6602L70.4404 34.9043H70.4014C70.2484 35.0996 70.0905 35.2607 69.9277 35.3877C69.765 35.5146 69.5762 35.609 69.3613 35.6709C69.1497 35.736 68.891 35.7686 68.585 35.7686C68.2627 35.7686 67.9746 35.71 67.7207 35.5928C67.4668 35.4723 67.2666 35.29 67.1201 35.0459C66.9736 34.8018 66.9004 34.4925 66.9004 34.1182C66.9004 33.5615 67.1071 33.1432 67.5205 32.8633C67.9372 32.5833 68.5654 32.4287 69.4053 32.3994L70.3428 32.3652V32.082C70.3428 31.7077 70.2549 31.4408 70.0791 31.2812C69.9066 31.1217 69.6624 31.042 69.3467 31.042C69.0765 31.042 68.8145 31.0811 68.5605 31.1592C68.3066 31.2373 68.0592 31.3333 67.8184 31.4473L67.4473 30.6367C67.7109 30.4967 68.0104 30.3828 68.3457 30.2949C68.6842 30.207 69.0358 30.1631 69.4004 30.1631ZM70.3379 33.0879L69.6396 33.1123C69.0667 33.1318 68.6647 33.2295 68.4336 33.4053C68.2025 33.5811 68.0869 33.8219 68.0869 34.1279C68.0869 34.3949 68.1667 34.5902 68.3262 34.7139C68.4857 34.8343 68.6956 34.8945 68.9561 34.8945C69.3532 34.8945 69.682 34.7822 69.9424 34.5576C70.2061 34.3298 70.3379 33.9961 70.3379 33.5566V33.0879ZM76.7148 34.1279C76.7148 34.4827 76.6286 34.7822 76.4561 35.0264C76.2835 35.2705 76.0312 35.4561 75.6992 35.583C75.3704 35.7067 74.9668 35.7686 74.4883 35.7686C74.1107 35.7686 73.7852 35.7409 73.5117 35.6855C73.2415 35.6335 72.986 35.5521 72.7451 35.4414V34.4502C73.0023 34.5706 73.2904 34.6748 73.6094 34.7627C73.9316 34.8506 74.236 34.8945 74.5225 34.8945C74.9001 34.8945 75.1719 34.8359 75.3379 34.7188C75.5039 34.5983 75.5869 34.4388 75.5869 34.2402C75.5869 34.123 75.5527 34.0189 75.4844 33.9277C75.4193 33.8333 75.2956 33.7373 75.1133 33.6396C74.9342 33.5387 74.6706 33.4183 74.3223 33.2783C73.9805 33.1416 73.6924 33.0049 73.458 32.8682C73.2236 32.7314 73.0462 32.5671 72.9258 32.375C72.8053 32.1797 72.7451 31.9307 72.7451 31.6279C72.7451 31.1494 72.9339 30.7865 73.3115 30.5391C73.6924 30.2884 74.1953 30.1631 74.8203 30.1631C75.1523 30.1631 75.4648 30.1973 75.7578 30.2656C76.054 30.3307 76.3438 30.4268 76.627 30.5537L76.2656 31.418C76.0215 31.3105 75.7757 31.2227 75.5283 31.1543C75.2842 31.0827 75.0352 31.0469 74.7812 31.0469C74.485 31.0469 74.2588 31.0924 74.1025 31.1836C73.9495 31.2747 73.873 31.4049 73.873 31.5742C73.873 31.7012 73.9105 31.8086 73.9854 31.8965C74.0602 31.9844 74.1888 32.0723 74.3711 32.1602C74.5566 32.248 74.8138 32.3571 75.1426 32.4873C75.4648 32.611 75.7432 32.7412 75.9775 32.8779C76.2152 33.0114 76.3975 33.1758 76.5244 33.3711C76.6514 33.5664 76.7148 33.8187 76.7148 34.1279ZM81.5879 34.1279C81.5879 34.4827 81.5016 34.7822 81.3291 35.0264C81.1566 35.2705 80.9043 35.4561 80.5723 35.583C80.2435 35.7067 79.8398 35.7686 79.3613 35.7686C78.9837 35.7686 78.6582 35.7409 78.3848 35.6855C78.1146 35.6335 77.859 35.5521 77.6182 35.4414V34.4502C77.8753 34.5706 78.1634 34.6748 78.4824 34.7627C78.8047 34.8506 79.109 34.8945 79.3955 34.8945C79.7731 34.8945 80.0449 34.8359 80.2109 34.7188C80.377 34.5983 80.46 34.4388 80.46 34.2402C80.46 34.123 80.4258 34.0189 80.3574 33.9277C80.2923 33.8333 80.1686 33.7373 79.9863 33.6396C79.8073 33.5387 79.5436 33.4183 79.1953 33.2783C78.8535 33.1416 78.5654 33.0049 78.3311 32.8682C78.0967 32.7314 77.9193 32.5671 77.7988 32.375C77.6784 32.1797 77.6182 31.9307 77.6182 31.6279C77.6182 31.1494 77.807 30.7865 78.1846 30.5391C78.5654 30.2884 79.0684 30.1631 79.6934 30.1631C80.0254 30.1631 80.3379 30.1973 80.6309 30.2656C80.9271 30.3307 81.2168 30.4268 81.5 30.5537L81.1387 31.418C80.8945 31.3105 80.6488 31.2227 80.4014 31.1543C80.1572 31.0827 79.9082 31.0469 79.6543 31.0469C79.3581 31.0469 79.1318 31.0924 78.9756 31.1836C78.8226 31.2747 78.7461 31.4049 78.7461 31.5742C78.7461 31.7012 78.7835 31.8086 78.8584 31.8965C78.9333 31.9844 79.0618 32.0723 79.2441 32.1602C79.4297 32.248 79.6868 32.3571 80.0156 32.4873C80.3379 32.611 80.6162 32.7412 80.8506 32.8779C81.0882 33.0114 81.2705 33.1758 81.3975 33.3711C81.5244 33.5664 81.5879 33.8187 81.5879 34.1279ZM88.4238 31.7939H91.0898V35.3779C90.7155 35.5016 90.3281 35.5977 89.9277 35.666C89.5273 35.7344 89.0781 35.7686 88.5801 35.7686C87.8542 35.7686 87.2389 35.6253 86.7344 35.3389C86.2331 35.0492 85.8522 34.6309 85.5918 34.084C85.3314 33.5339 85.2012 32.8714 85.2012 32.0967C85.2012 31.3512 85.346 30.7051 85.6357 30.1582C85.9255 29.6081 86.347 29.1833 86.9004 28.8838C87.4538 28.5811 88.1243 28.4297 88.9121 28.4297C89.2995 28.4297 89.6738 28.4688 90.0352 28.5469C90.3997 28.6217 90.7334 28.7259 91.0361 28.8594L90.626 29.8262C90.3851 29.7122 90.1149 29.6162 89.8154 29.5381C89.516 29.46 89.2051 29.4209 88.8828 29.4209C88.3717 29.4209 87.9307 29.5316 87.5596 29.7529C87.1917 29.9743 86.9085 30.2868 86.71 30.6904C86.5114 31.0908 86.4121 31.5645 86.4121 32.1113C86.4121 32.6419 86.4919 33.1074 86.6514 33.5078C86.8109 33.9082 87.0599 34.2207 87.3984 34.4453C87.7402 34.6667 88.1813 34.7773 88.7217 34.7773C88.9919 34.7773 89.2214 34.7627 89.4102 34.7334C89.599 34.7041 89.7731 34.6715 89.9326 34.6357V32.7949H88.4238V31.7939ZM97.3936 30.2656V35.6709H96.4902L96.334 34.9434H96.2705C96.1566 35.1289 96.0117 35.2835 95.8359 35.4072C95.6602 35.5277 95.4648 35.6172 95.25 35.6758C95.0352 35.7376 94.8089 35.7686 94.5713 35.7686C94.1644 35.7686 93.8161 35.7002 93.5264 35.5635C93.2399 35.4235 93.0202 35.2087 92.8672 34.9189C92.7142 34.6292 92.6377 34.2549 92.6377 33.7959V30.2656H93.79V33.5811C93.79 34.001 93.8747 34.3151 94.0439 34.5234C94.2165 34.7318 94.4834 34.8359 94.8447 34.8359C95.193 34.8359 95.4697 34.7643 95.6748 34.6211C95.8799 34.4779 96.0247 34.2663 96.1094 33.9863C96.1973 33.7064 96.2412 33.363 96.2412 32.9561V30.2656H97.3936ZM101.158 30.1631C101.842 30.1631 102.358 30.3145 102.706 30.6172C103.058 30.9199 103.233 31.3919 103.233 32.0332V35.6709H102.418L102.198 34.9043H102.159C102.006 35.0996 101.848 35.2607 101.686 35.3877C101.523 35.5146 101.334 35.609 101.119 35.6709C100.908 35.736 100.649 35.7686 100.343 35.7686C100.021 35.7686 99.7324 35.71 99.4785 35.5928C99.2246 35.4723 99.0244 35.29 98.8779 35.0459C98.7314 34.8018 98.6582 34.4925 98.6582 34.1182C98.6582 33.5615 98.8649 33.1432 99.2783 32.8633C99.695 32.5833 100.323 32.4287 101.163 32.3994L102.101 32.3652V32.082C102.101 31.7077 102.013 31.4408 101.837 31.2812C101.664 31.1217 101.42 31.042 101.104 31.042C100.834 31.042 100.572 31.0811 100.318 31.1592C100.064 31.2373 99.8171 31.3333 99.5762 31.4473L99.2051 30.6367C99.4688 30.4967 99.7682 30.3828 100.104 30.2949C100.442 30.207 100.794 30.1631 101.158 30.1631ZM102.096 33.0879L101.397 33.1123C100.825 33.1318 100.423 33.2295 100.191 33.4053C99.9603 33.5811 99.8447 33.8219 99.8447 34.1279C99.8447 34.3949 99.9245 34.5902 100.084 34.7139C100.243 34.8343 100.453 34.8945 100.714 34.8945C101.111 34.8945 101.44 34.7822 101.7 34.5576C101.964 34.3298 102.096 33.9961 102.096 33.5566V33.0879ZM107.579 30.1631C107.67 30.1631 107.77 30.168 107.877 30.1777C107.984 30.1875 108.077 30.2005 108.155 30.2168L108.048 31.291C107.979 31.2715 107.895 31.2568 107.794 31.2471C107.696 31.2373 107.608 31.2324 107.53 31.2324C107.325 31.2324 107.13 31.2666 106.944 31.335C106.759 31.4001 106.594 31.501 106.451 31.6377C106.308 31.7712 106.196 31.9388 106.114 32.1406C106.033 32.3424 105.992 32.5768 105.992 32.8438V35.6709H104.84V30.2656H105.738L105.895 31.2178H105.948C106.056 31.0257 106.189 30.8499 106.349 30.6904C106.508 30.5309 106.69 30.404 106.896 30.3096C107.104 30.2119 107.332 30.1631 107.579 30.1631ZM111.275 30.1631C111.959 30.1631 112.475 30.3145 112.823 30.6172C113.175 30.9199 113.351 31.3919 113.351 32.0332V35.6709H112.535L112.315 34.9043H112.276C112.123 35.0996 111.965 35.2607 111.803 35.3877C111.64 35.5146 111.451 35.609 111.236 35.6709C111.025 35.736 110.766 35.7686 110.46 35.7686C110.138 35.7686 109.85 35.71 109.596 35.5928C109.342 35.4723 109.142 35.29 108.995 35.0459C108.849 34.8018 108.775 34.4925 108.775 34.1182C108.775 33.5615 108.982 33.1432 109.396 32.8633C109.812 32.5833 110.44 32.4287 111.28 32.3994L112.218 32.3652V32.082C112.218 31.7077 112.13 31.4408 111.954 31.2812C111.782 31.1217 111.537 31.042 111.222 31.042C110.951 31.042 110.689 31.0811 110.436 31.1592C110.182 31.2373 109.934 31.3333 109.693 31.4473L109.322 30.6367C109.586 30.4967 109.885 30.3828 110.221 30.2949C110.559 30.207 110.911 30.1631 111.275 30.1631ZM112.213 33.0879L111.515 33.1123C110.942 33.1318 110.54 33.2295 110.309 33.4053C110.077 33.5811 109.962 33.8219 109.962 34.1279C109.962 34.3949 110.042 34.5902 110.201 34.7139C110.361 34.8343 110.571 34.8945 110.831 34.8945C111.228 34.8945 111.557 34.7822 111.817 34.5576C112.081 34.3298 112.213 33.9961 112.213 33.5566V33.0879ZM117.774 30.1631C118.383 30.1631 118.857 30.321 119.195 30.6367C119.537 30.9492 119.708 31.4521 119.708 32.1455V35.6709H118.561V32.3604C118.561 31.9404 118.474 31.6263 118.302 31.418C118.129 31.2064 117.862 31.1006 117.501 31.1006C116.977 31.1006 116.612 31.2617 116.407 31.584C116.205 31.9062 116.104 32.3734 116.104 32.9854V35.6709H114.957V30.2656H115.851L116.012 30.998H116.075C116.192 30.8092 116.337 30.6546 116.51 30.5342C116.686 30.4105 116.881 30.3177 117.096 30.2559C117.314 30.194 117.54 30.1631 117.774 30.1631ZM123.326 34.8408C123.476 34.8408 123.624 34.8278 123.771 34.8018C123.917 34.7725 124.05 34.7383 124.171 34.6992V35.5684C124.044 35.6237 123.88 35.6709 123.678 35.71C123.476 35.749 123.266 35.7686 123.048 35.7686C122.742 35.7686 122.467 35.7181 122.223 35.6172C121.979 35.513 121.785 35.3356 121.642 35.085C121.498 34.8343 121.427 34.4876 121.427 34.0449V31.1396H120.689V30.627L121.48 30.2217L121.856 29.0645H122.579V30.2656H124.127V31.1396H122.579V34.0303C122.579 34.3037 122.647 34.5072 122.784 34.6406C122.921 34.7741 123.102 34.8408 123.326 34.8408ZM127.423 30.1631C127.905 30.1631 128.318 30.2624 128.663 30.4609C129.008 30.6595 129.273 30.9411 129.459 31.3057C129.645 31.6702 129.737 32.1064 129.737 32.6143V33.2295H126.129C126.142 33.7536 126.282 34.1572 126.549 34.4404C126.819 34.7236 127.197 34.8652 127.682 34.8652C128.027 34.8652 128.336 34.8327 128.609 34.7676C128.886 34.6992 129.171 34.5999 129.464 34.4697V35.4023C129.194 35.5293 128.919 35.6221 128.639 35.6807C128.359 35.7393 128.023 35.7686 127.633 35.7686C127.102 35.7686 126.635 35.666 126.231 35.4609C125.831 35.2526 125.517 34.9434 125.289 34.5332C125.064 34.123 124.952 33.6136 124.952 33.0049C124.952 32.3994 125.055 31.8851 125.26 31.4619C125.465 31.0387 125.753 30.7165 126.124 30.4951C126.495 30.2738 126.928 30.1631 127.423 30.1631ZM127.423 31.0273C127.062 31.0273 126.769 31.1445 126.544 31.3789C126.323 31.6133 126.192 31.9567 126.153 32.4092H128.614C128.611 32.139 128.565 31.8997 128.478 31.6914C128.393 31.4831 128.263 31.3203 128.087 31.2031C127.914 31.0859 127.693 31.0273 127.423 31.0273ZM133.185 30.1631C133.666 30.1631 134.08 30.2624 134.425 30.4609C134.77 30.6595 135.035 30.9411 135.221 31.3057C135.406 31.6702 135.499 32.1064 135.499 32.6143V33.2295H131.891C131.904 33.7536 132.044 34.1572 132.311 34.4404C132.581 34.7236 132.958 34.8652 133.443 34.8652C133.788 34.8652 134.098 34.8327 134.371 34.7676C134.648 34.6992 134.933 34.5999 135.226 34.4697V35.4023C134.955 35.5293 134.68 35.6221 134.4 35.6807C134.12 35.7393 133.785 35.7686 133.395 35.7686C132.864 35.7686 132.397 35.666 131.993 35.4609C131.593 35.2526 131.279 34.9434 131.051 34.5332C130.826 34.123 130.714 33.6136 130.714 33.0049C130.714 32.3994 130.816 31.8851 131.021 31.4619C131.227 31.0387 131.515 30.7165 131.886 30.4951C132.257 30.2738 132.69 30.1631 133.185 30.1631ZM133.185 31.0273C132.823 31.0273 132.53 31.1445 132.306 31.3789C132.084 31.6133 131.954 31.9567 131.915 32.4092H134.376C134.373 32.139 134.327 31.8997 134.239 31.6914C134.155 31.4831 134.024 31.3203 133.849 31.2031C133.676 31.0859 133.455 31.0273 133.185 31.0273Z" fill="#868583"/>
<defs>
<clipPath id="clip0_4308_2159">
<rect width="50.3094" height="43.1709" fill="white" transform="translate(0 0.0854492)"/>
</clipPath>
<clipPath id="clip1_4308_2159">
<rect width="3.39928" height="3.39928" fill="white" transform="translate(23.4531 32.0388)"/>
</clipPath>
<clipPath id="clip2_4308_2159">
<rect width="2.71943" height="2.71943" fill="white" transform="translate(20.7344 30.679)"/>
</clipPath>
<clipPath id="clip3_4308_2159">
<rect width="2.71943" height="2.71943" fill="white" transform="translate(26.8555 30.679)"/>
</clipPath>
</defs>
</svg>
