<svg width="140" height="43" viewBox="0 0 140 43" fill="none" xmlns="http://www.w3.org/2000/svg">
<g clip-path="url(#clip0_4362_16215)">
<mask id="mask0_4362_16215" style="mask-type:alpha" maskUnits="userSpaceOnUse" x="3" y="2" width="36" height="39">
<path d="M37.1152 19.338C38.9659 20.3564 38.9659 22.986 37.1152 24.0044L7.51647 40.2918C5.71397 41.2837 3.49609 39.9966 3.49609 37.9586L3.4961 5.38373C3.4961 3.34579 5.71397 2.05865 7.51647 3.05052L37.1152 19.338Z" fill="#C4C4C4"/>
</mask>
<g mask="url(#mask0_4362_16215)">
<path d="M4.42192 39.9718L22.8847 21.4053L4.72599 3.14453C4.00156 3.60894 3.49609 4.41073 3.49609 5.38363V37.9585C3.49609 38.7886 3.86401 39.4941 4.42192 39.9718Z" fill="url(#paint0_linear_4362_16215)"/>
<path d="M37.1152 19.3378C38.966 20.3563 38.966 22.9858 37.1152 24.0043L29.6481 28.1133L22.8848 21.4051L29.3032 15.0391L37.1152 19.3378Z" fill="url(#paint1_linear_4362_16215)"/>
<path d="M29.648 28.1125L22.8847 21.4043L4.42188 39.9709C5.23378 40.6661 6.4481 40.8788 7.51649 40.2909L29.648 28.1125Z" fill="url(#paint2_linear_4362_16215)"/>
<path d="M4.72656 3.1446L22.8852 21.4053L29.3036 15.0392L7.517 3.05052C6.57502 2.53217 5.5196 2.63624 4.72656 3.1446Z" fill="url(#paint3_linear_4362_16215)"/>
</g>
</g>
<path d="M64.1924 20.7227H62.0654V24.1709H59.5732V20.7227H52.4297V18.8105L59.6055 8.42285H62.0654V18.6279H64.1924V20.7227ZM59.5732 18.6279V14.7285C59.5732 14.4062 59.5768 14.0804 59.584 13.751C59.5983 13.4144 59.6126 13.0921 59.627 12.7842C59.6413 12.4762 59.6556 12.1934 59.6699 11.9355C59.6842 11.6706 59.695 11.4521 59.7021 11.2803H59.6162C59.4801 11.5667 59.3298 11.8604 59.165 12.1611C59.0003 12.4548 58.8249 12.7412 58.6387 13.0205L54.7715 18.6279H59.5732ZM66.0293 22.8389C66.0293 22.2516 66.1797 21.8398 66.4805 21.6035C66.7884 21.36 67.1608 21.2383 67.5977 21.2383C68.0345 21.2383 68.4069 21.36 68.7148 21.6035C69.0299 21.8398 69.1875 22.2516 69.1875 22.8389C69.1875 23.4118 69.0299 23.8271 68.7148 24.085C68.4069 24.3356 68.0345 24.4609 67.5977 24.4609C67.1608 24.4609 66.7884 24.3356 66.4805 24.085C66.1797 23.8271 66.0293 23.4118 66.0293 22.8389ZM76.9111 8.25098C77.8206 8.25098 78.6406 8.39421 79.3711 8.68066C80.1016 8.95996 80.6816 9.37891 81.1113 9.9375C81.541 10.4961 81.7559 11.1872 81.7559 12.0107C81.7559 12.6481 81.6234 13.2031 81.3584 13.6758C81.1006 14.1484 80.7497 14.5638 80.3057 14.9219C79.8617 15.2728 79.3639 15.5843 78.8125 15.8564C79.4284 16.1572 79.9941 16.5046 80.5098 16.8984C81.0326 17.2852 81.4515 17.7399 81.7666 18.2627C82.0889 18.7855 82.25 19.3978 82.25 20.0996C82.25 20.9805 82.0244 21.7432 81.5732 22.3877C81.1292 23.0251 80.5098 23.5192 79.7148 23.8701C78.9199 24.2139 77.9925 24.3857 76.9326 24.3857C75.7939 24.3857 74.8236 24.2174 74.0215 23.8809C73.2194 23.5443 72.6107 23.0645 72.1953 22.4414C71.7799 21.8112 71.5723 21.0592 71.5723 20.1855C71.5723 19.4622 71.7155 18.8356 72.002 18.3057C72.2884 17.7757 72.6715 17.3174 73.1514 16.9307C73.6383 16.5439 74.1719 16.2181 74.752 15.9531C74.2578 15.6595 73.8066 15.3301 73.3984 14.9648C72.9902 14.5924 72.6644 14.1663 72.4209 13.6865C72.1846 13.1995 72.0664 12.6374 72.0664 12C72.0664 11.1836 72.2848 10.4997 72.7217 9.94824C73.1585 9.38965 73.7422 8.96712 74.4727 8.68066C75.2103 8.39421 76.0231 8.25098 76.9111 8.25098ZM73.9785 20.0889C73.9785 20.7764 74.222 21.3421 74.709 21.7861C75.196 22.2301 75.9229 22.4521 76.8896 22.4521C77.8493 22.4521 78.5798 22.2337 79.0811 21.7969C79.5824 21.36 79.833 20.7835 79.833 20.0674C79.833 19.609 79.7041 19.2044 79.4463 18.8535C79.1956 18.5026 78.8555 18.1911 78.4258 17.9189C78.0033 17.6396 77.5342 17.3818 77.0186 17.1455L76.6748 17.0059C76.1162 17.2422 75.6364 17.5107 75.2354 17.8115C74.8343 18.1051 74.5228 18.4382 74.3008 18.8105C74.0859 19.1829 73.9785 19.609 73.9785 20.0889ZM76.8896 10.1953C76.195 10.1953 75.6221 10.3672 75.1709 10.7109C74.7269 11.0475 74.5049 11.5345 74.5049 12.1719C74.5049 12.623 74.6123 13.0098 74.8271 13.332C75.0492 13.6543 75.3464 13.9336 75.7188 14.1699C76.0911 14.3991 76.5029 14.6139 76.9541 14.8145C77.391 14.6211 77.7848 14.4098 78.1357 14.1807C78.4938 13.9443 78.7767 13.665 78.9844 13.3428C79.1992 13.0133 79.3066 12.6195 79.3066 12.1611C79.3066 11.5309 79.0811 11.0475 78.6299 10.7109C78.1859 10.3672 77.6058 10.1953 76.8896 10.1953Z" fill="#868583"/>
<path d="M97.0007 6.00439L99.8332 11.7427L106.167 12.6686L101.584 17.1327L102.666 23.4394L97.0007 20.4602L91.3357 23.4394L92.4173 17.1327L87.834 12.6686L94.1682 11.7427L97.0007 6.00439Z" fill="#FFE234"/>
<path d="M52.459 36.1289C52.459 35.709 52.4883 35.2956 52.5469 34.8887C52.6087 34.4818 52.7129 34.1009 52.8594 33.7461C53.0059 33.3913 53.2077 33.0788 53.4648 32.8086C53.7253 32.5384 54.0524 32.3268 54.4463 32.1738C54.8402 32.0176 55.3138 31.9395 55.8672 31.9395C56.0104 31.9395 56.1715 31.946 56.3506 31.959C56.5296 31.972 56.6777 31.9932 56.7949 32.0225V32.9746C56.668 32.9388 56.528 32.9111 56.375 32.8916C56.2253 32.8721 56.0755 32.8623 55.9258 32.8623C55.3268 32.8623 54.8597 32.9762 54.5244 33.2041C54.1891 33.4287 53.9499 33.738 53.8066 34.1318C53.6634 34.5225 53.5804 34.9701 53.5576 35.4746H53.6162C53.7139 35.3118 53.8359 35.167 53.9824 35.04C54.1289 34.9131 54.3079 34.8122 54.5195 34.7373C54.7311 34.6592 54.9769 34.6201 55.2568 34.6201C55.6735 34.6201 56.0365 34.708 56.3457 34.8838C56.6549 35.0563 56.8926 35.307 57.0586 35.6357C57.2279 35.9645 57.3125 36.3633 57.3125 36.832C57.3125 37.3366 57.2165 37.7712 57.0244 38.1357C56.8356 38.5003 56.5654 38.7803 56.2139 38.9756C55.8656 39.1709 55.4505 39.2686 54.9688 39.2686C54.6139 39.2686 54.2835 39.2035 53.9775 39.0732C53.6748 38.943 53.4095 38.7477 53.1816 38.4873C52.9538 38.2269 52.7764 37.9014 52.6494 37.5107C52.5225 37.1169 52.459 36.6562 52.459 36.1289ZM54.9492 38.3213C55.3203 38.3213 55.6182 38.2008 55.8428 37.96C56.0706 37.7158 56.1846 37.3431 56.1846 36.8418C56.1846 36.4349 56.0837 36.1126 55.8818 35.875C55.6833 35.6374 55.3838 35.5186 54.9834 35.5186C54.71 35.5186 54.4707 35.5771 54.2656 35.6943C54.0605 35.8115 53.901 35.9596 53.7871 36.1387C53.6764 36.3177 53.6211 36.5 53.6211 36.6855C53.6211 36.8743 53.6488 37.0648 53.7041 37.2568C53.7594 37.4489 53.8424 37.6263 53.9531 37.7891C54.0638 37.9486 54.2021 38.0771 54.3682 38.1748C54.5342 38.2725 54.7279 38.3213 54.9492 38.3213ZM58.9873 39.1709L61.79 33.0381H58.084V32.0322H63.0254V32.8184L60.2227 39.1709H58.9873ZM68.4551 33.6631C68.4551 33.9854 68.39 34.2653 68.2598 34.5029C68.1296 34.7406 67.9505 34.9359 67.7227 35.0889C67.498 35.2386 67.2376 35.346 66.9414 35.4111V35.4453C67.5111 35.5169 67.9408 35.696 68.2305 35.9824C68.5234 36.2689 68.6699 36.6481 68.6699 37.1201C68.6699 37.5335 68.5706 37.903 68.3721 38.2285C68.1735 38.5508 67.8691 38.8047 67.459 38.9902C67.0488 39.1758 66.5215 39.2686 65.877 39.2686C65.4896 39.2686 65.1299 39.2376 64.7979 39.1758C64.4691 39.1139 64.1566 39.0146 63.8604 38.8779V37.8574C64.1631 38.0072 64.4854 38.1227 64.8271 38.2041C65.1689 38.2855 65.4928 38.3262 65.7988 38.3262C66.3945 38.3262 66.8193 38.2155 67.0732 37.9941C67.3271 37.7695 67.4541 37.4603 67.4541 37.0664C67.4541 36.8125 67.3874 36.6042 67.2539 36.4414C67.1237 36.2786 66.9202 36.1566 66.6436 36.0752C66.3701 35.9938 66.0169 35.9531 65.584 35.9531H64.9541V35.0303H65.5889C66.0023 35.0303 66.3343 34.9814 66.585 34.8838C66.8356 34.7829 67.0163 34.6445 67.127 34.4688C67.2409 34.293 67.2979 34.0879 67.2979 33.8535C67.2979 33.5475 67.1986 33.3099 67 33.1406C66.8014 32.9681 66.5068 32.8818 66.1162 32.8818C65.8753 32.8818 65.6556 32.9095 65.457 32.9648C65.2617 33.0202 65.0811 33.0902 64.915 33.1748C64.749 33.2594 64.5911 33.3506 64.4414 33.4482L63.8896 32.6523C64.1598 32.4505 64.4821 32.2796 64.8564 32.1396C65.2308 31.9997 65.667 31.9297 66.165 31.9297C66.8975 31.9297 67.4622 32.0876 67.8594 32.4033C68.2565 32.7158 68.4551 33.1357 68.4551 33.6631ZM74.71 32.0322C75.3252 32.0322 75.833 32.1071 76.2334 32.2568C76.637 32.4066 76.9365 32.6344 77.1318 32.9404C77.3304 33.2464 77.4297 33.6354 77.4297 34.1074C77.4297 34.459 77.3646 34.7585 77.2344 35.0059C77.1042 35.2533 76.9333 35.4583 76.7217 35.6211C76.5101 35.7839 76.2839 35.9141 76.043 36.0117L78.0693 39.1709H76.7461L75.0225 36.3096H73.875V39.1709H72.7031V32.0322H74.71ZM74.6318 33.0088H73.875V35.3428H74.6855C75.2292 35.3428 75.623 35.2419 75.8672 35.04C76.1146 34.8382 76.2383 34.5404 76.2383 34.1465C76.2383 33.7331 76.1064 33.4401 75.8428 33.2676C75.5824 33.0951 75.1787 33.0088 74.6318 33.0088ZM81.0918 33.6631C81.7754 33.6631 82.2913 33.8145 82.6396 34.1172C82.9912 34.4199 83.167 34.8919 83.167 35.5332V39.1709H82.3516L82.1318 38.4043H82.0928C81.9398 38.5996 81.7819 38.7607 81.6191 38.8877C81.4564 39.0146 81.2676 39.109 81.0527 39.1709C80.8411 39.236 80.5824 39.2686 80.2764 39.2686C79.9541 39.2686 79.666 39.21 79.4121 39.0928C79.1582 38.9723 78.958 38.79 78.8115 38.5459C78.665 38.3018 78.5918 37.9925 78.5918 37.6182C78.5918 37.0615 78.7985 36.6432 79.2119 36.3633C79.6286 36.0833 80.2568 35.9287 81.0967 35.8994L82.0342 35.8652V35.582C82.0342 35.2077 81.9463 34.9408 81.7705 34.7812C81.598 34.6217 81.3538 34.542 81.0381 34.542C80.7679 34.542 80.5059 34.5811 80.252 34.6592C79.998 34.7373 79.7507 34.8333 79.5098 34.9473L79.1387 34.1367C79.4023 33.9967 79.7018 33.8828 80.0371 33.7949C80.3757 33.707 80.7272 33.6631 81.0918 33.6631ZM82.0293 36.5879L81.3311 36.6123C80.7581 36.6318 80.3561 36.7295 80.125 36.9053C79.8939 37.0811 79.7783 37.3219 79.7783 37.6279C79.7783 37.8949 79.8581 38.0902 80.0176 38.2139C80.1771 38.3343 80.387 38.3945 80.6475 38.3945C81.0446 38.3945 81.3734 38.2822 81.6338 38.0576C81.8975 37.8298 82.0293 37.4961 82.0293 37.0566V36.5879ZM86.7852 38.3408C86.9349 38.3408 87.083 38.3278 87.2295 38.3018C87.376 38.2725 87.5094 38.2383 87.6299 38.1992V39.0684C87.5029 39.1237 87.3385 39.1709 87.1367 39.21C86.9349 39.249 86.7249 39.2686 86.5068 39.2686C86.2008 39.2686 85.9258 39.2181 85.6816 39.1172C85.4375 39.013 85.2438 38.8356 85.1006 38.585C84.9574 38.3343 84.8857 37.9876 84.8857 37.5449V34.6396H84.1484V34.127L84.9395 33.7217L85.3154 32.5645H86.0381V33.7656H87.5859V34.6396H86.0381V37.5303C86.0381 37.8037 86.1064 38.0072 86.2432 38.1406C86.3799 38.2741 86.5605 38.3408 86.7852 38.3408ZM89.876 33.7656V39.1709H88.7285V33.7656H89.876ZM89.3096 31.6953C89.4854 31.6953 89.6367 31.7425 89.7637 31.8369C89.8939 31.9313 89.959 32.0941 89.959 32.3252C89.959 32.5531 89.8939 32.7158 89.7637 32.8135C89.6367 32.9079 89.4854 32.9551 89.3096 32.9551C89.1273 32.9551 88.9727 32.9079 88.8457 32.8135C88.722 32.7158 88.6602 32.5531 88.6602 32.3252C88.6602 32.0941 88.722 31.9313 88.8457 31.8369C88.9727 31.7425 89.1273 31.6953 89.3096 31.6953ZM94.3389 33.6631C94.9476 33.6631 95.4212 33.821 95.7598 34.1367C96.1016 34.4492 96.2725 34.9521 96.2725 35.6455V39.1709H95.125V35.8604C95.125 35.4404 95.0387 35.1263 94.8662 34.918C94.6937 34.7064 94.4268 34.6006 94.0654 34.6006C93.5413 34.6006 93.1768 34.7617 92.9717 35.084C92.7699 35.4062 92.6689 35.8734 92.6689 36.4854V39.1709H91.5215V33.7656H92.415L92.5762 34.498H92.6396C92.7568 34.3092 92.9017 34.1546 93.0742 34.0342C93.25 33.9105 93.4453 33.8177 93.6602 33.7559C93.8783 33.694 94.1045 33.6631 94.3389 33.6631ZM99.4219 41.5732C98.6895 41.5732 98.1279 41.4414 97.7373 41.1777C97.3467 40.9141 97.1514 40.5446 97.1514 40.0693C97.1514 39.7373 97.2555 39.4557 97.4639 39.2246C97.6722 38.9967 97.9701 38.8389 98.3574 38.751C98.2109 38.6859 98.084 38.585 97.9766 38.4482C97.8724 38.3083 97.8203 38.1536 97.8203 37.9844C97.8203 37.7826 97.8773 37.61 97.9912 37.4668C98.1051 37.3236 98.276 37.1852 98.5039 37.0518C98.2207 36.9313 97.9928 36.736 97.8203 36.4658C97.651 36.1924 97.5664 35.8717 97.5664 35.5039C97.5664 35.1133 97.6494 34.7812 97.8154 34.5078C97.9814 34.2311 98.224 34.0212 98.543 33.8779C98.862 33.7314 99.2477 33.6582 99.7002 33.6582C99.7979 33.6582 99.9036 33.6647 100.018 33.6777C100.135 33.6875 100.242 33.7005 100.34 33.7168C100.441 33.7298 100.517 33.7445 100.569 33.7607H102.439V34.4004L101.521 34.5713C101.609 34.695 101.679 34.8366 101.731 34.9961C101.784 35.1523 101.81 35.3232 101.81 35.5088C101.81 36.0687 101.616 36.5098 101.229 36.832C100.844 37.151 100.314 37.3105 99.6367 37.3105C99.474 37.304 99.3161 37.291 99.1631 37.2715C99.0459 37.3431 98.9564 37.4229 98.8945 37.5107C98.8327 37.5954 98.8018 37.6914 98.8018 37.7988C98.8018 37.8867 98.8327 37.9583 98.8945 38.0137C98.9564 38.0658 99.0475 38.1048 99.168 38.1309C99.2917 38.1569 99.4414 38.1699 99.6172 38.1699H100.55C101.142 38.1699 101.595 38.2952 101.907 38.5459C102.22 38.7965 102.376 39.1644 102.376 39.6494C102.376 40.2646 102.122 40.7383 101.614 41.0703C101.106 41.4056 100.376 41.5732 99.4219 41.5732ZM99.4658 40.7676C99.8662 40.7676 100.203 40.7285 100.477 40.6504C100.75 40.5723 100.957 40.46 101.097 40.3135C101.237 40.1702 101.307 39.9993 101.307 39.8008C101.307 39.625 101.263 39.4899 101.175 39.3955C101.087 39.3011 100.955 39.236 100.779 39.2002C100.604 39.1644 100.385 39.1465 100.125 39.1465H99.2754C99.0638 39.1465 98.8766 39.179 98.7139 39.2441C98.5511 39.3125 98.4242 39.4102 98.333 39.5371C98.2451 39.6641 98.2012 39.8171 98.2012 39.9961C98.2012 40.2435 98.3102 40.4339 98.5283 40.5674C98.7497 40.7008 99.0622 40.7676 99.4658 40.7676ZM99.6904 36.5586C100.026 36.5586 100.275 36.4674 100.438 36.2852C100.6 36.0996 100.682 35.8392 100.682 35.5039C100.682 35.1393 100.597 34.8659 100.428 34.6836C100.262 34.5013 100.014 34.4102 99.6855 34.4102C99.3633 34.4102 99.1175 34.5029 98.9482 34.6885C98.7822 34.874 98.6992 35.1491 98.6992 35.5137C98.6992 35.8424 98.7822 36.0996 98.9482 36.2852C99.1175 36.4674 99.3649 36.5586 99.6904 36.5586ZM107.059 37.6279C107.059 37.9827 106.972 38.2822 106.8 38.5264C106.627 38.7705 106.375 38.9561 106.043 39.083C105.714 39.2067 105.311 39.2686 104.832 39.2686C104.454 39.2686 104.129 39.2409 103.855 39.1855C103.585 39.1335 103.33 39.0521 103.089 38.9414V37.9502C103.346 38.0706 103.634 38.1748 103.953 38.2627C104.275 38.3506 104.58 38.3945 104.866 38.3945C105.244 38.3945 105.516 38.3359 105.682 38.2188C105.848 38.0983 105.931 37.9388 105.931 37.7402C105.931 37.623 105.896 37.5189 105.828 37.4277C105.763 37.3333 105.639 37.2373 105.457 37.1396C105.278 37.0387 105.014 36.9183 104.666 36.7783C104.324 36.6416 104.036 36.5049 103.802 36.3682C103.567 36.2314 103.39 36.0671 103.27 35.875C103.149 35.6797 103.089 35.4307 103.089 35.1279C103.089 34.6494 103.278 34.2865 103.655 34.0391C104.036 33.7884 104.539 33.6631 105.164 33.6631C105.496 33.6631 105.809 33.6973 106.102 33.7656C106.398 33.8307 106.688 33.9268 106.971 34.0537L106.609 34.918C106.365 34.8105 106.119 34.7227 105.872 34.6543C105.628 34.5827 105.379 34.5469 105.125 34.5469C104.829 34.5469 104.603 34.5924 104.446 34.6836C104.293 34.7747 104.217 34.9049 104.217 35.0742C104.217 35.2012 104.254 35.3086 104.329 35.3965C104.404 35.4844 104.533 35.5723 104.715 35.6602C104.9 35.748 105.158 35.8571 105.486 35.9873C105.809 36.111 106.087 36.2412 106.321 36.3779C106.559 36.5114 106.741 36.6758 106.868 36.8711C106.995 37.0664 107.059 37.3187 107.059 37.6279Z" fill="#868583"/>
<defs>
<linearGradient id="paint0_linear_4362_16215" x1="16.1525" y1="14.1939" x2="3.59974" y2="26.8499" gradientUnits="userSpaceOnUse">
<stop stop-color="#00C3FF"/>
<stop offset="1" stop-color="#1BE2FA"/>
</linearGradient>
<linearGradient id="paint1_linear_4362_16215" x1="22.8848" y1="21.4052" x2="39.5805" y2="21.4052" gradientUnits="userSpaceOnUse">
<stop stop-color="#FFCE00"/>
<stop offset="1" stop-color="#FFEA00"/>
</linearGradient>
<linearGradient id="paint2_linear_4362_16215" x1="4.03469" y1="42.2373" x2="26.2433" y2="24.4321" gradientUnits="userSpaceOnUse">
<stop stop-color="#DE2453"/>
<stop offset="1" stop-color="#FE3944"/>
</linearGradient>
<linearGradient id="paint3_linear_4362_16215" x1="5.11233" y1="1.10649" x2="26.2476" y2="18.3695" gradientUnits="userSpaceOnUse">
<stop stop-color="#11D574"/>
<stop offset="1" stop-color="#01F176"/>
</linearGradient>
<clipPath id="clip0_4362_16215">
<rect width="42" height="42" fill="white" transform="translate(0 0.670898)"/>
</clipPath>
</defs>
</svg>
