<svg width="140" height="43" viewBox="0 0 140 43" fill="none" xmlns="http://www.w3.org/2000/svg">
<circle cx="21.0001" cy="21.671" r="19.8575" fill="url(#paint0_linear_4362_16231)"/>
<path d="M28.3957 27.7438L29.2778 22.1391H23.7597V18.5036C23.7597 16.9699 24.5291 15.474 27.0006 15.474H29.511V10.7024C29.511 10.7024 27.2338 10.3237 25.0576 10.3237C20.511 10.3237 17.5421 13.0087 17.5421 17.8674V22.1391H12.4902V27.7438H17.5421V41.2937C18.5563 41.4489 19.5939 41.5284 20.6509 41.5284C21.7079 41.5284 22.7455 41.4489 23.7597 41.2937V27.7438H28.3957Z" fill="white"/>
<path d="M64.1924 20.7227H62.0654V24.1709H59.5732V20.7227H52.4297V18.8105L59.6055 8.42285H62.0654V18.6279H64.1924V20.7227ZM59.5732 18.6279V14.7285C59.5732 14.4062 59.5768 14.0804 59.584 13.751C59.5983 13.4144 59.6126 13.0921 59.627 12.7842C59.6413 12.4762 59.6556 12.1934 59.6699 11.9355C59.6842 11.6706 59.695 11.4521 59.7021 11.2803H59.6162C59.4801 11.5667 59.3298 11.8604 59.165 12.1611C59.0003 12.4548 58.8249 12.7412 58.6387 13.0205L54.7715 18.6279H59.5732ZM66.0293 22.8389C66.0293 22.2516 66.1797 21.8398 66.4805 21.6035C66.7884 21.36 67.1608 21.2383 67.5977 21.2383C68.0345 21.2383 68.4069 21.36 68.7148 21.6035C69.0299 21.8398 69.1875 22.2516 69.1875 22.8389C69.1875 23.4118 69.0299 23.8271 68.7148 24.085C68.4069 24.3356 68.0345 24.4609 67.5977 24.4609C67.1608 24.4609 66.7884 24.3356 66.4805 24.085C66.1797 23.8271 66.0293 23.4118 66.0293 22.8389ZM73.4092 24.1709L79.5752 10.6787H71.4219V8.46582H82.293V10.1953L76.127 24.1709H73.4092Z" fill="#868583"/>
<path d="M97.0007 6.00439L99.8332 11.7427L106.167 12.6686L101.584 17.1327L102.666 23.4394L97.0007 20.4602L91.3357 23.4394L92.4173 17.1327L87.834 12.6686L94.1682 11.7427L97.0007 6.00439Z" fill="#FFE234"/>
<path d="M55.8232 39.1709H54.6709V34.5762C54.6709 34.4232 54.6725 34.2702 54.6758 34.1172C54.679 33.9642 54.6823 33.8145 54.6855 33.668C54.6921 33.5215 54.7002 33.3815 54.71 33.248C54.6416 33.3229 54.557 33.4043 54.4561 33.4922C54.3584 33.5801 54.2542 33.6712 54.1436 33.7656L53.3232 34.4199L52.7471 33.6924L54.8662 32.0322H55.8232V39.1709ZM59.7002 38.0088L59.7686 38.1211C59.71 38.3555 59.6351 38.6077 59.5439 38.8779C59.4528 39.1481 59.3535 39.4183 59.2461 39.6885C59.1387 39.9619 59.0296 40.2191 58.9189 40.46H58.0791C58.1475 40.1963 58.2126 39.9196 58.2744 39.6299C58.3395 39.3434 58.3981 39.0602 58.4502 38.7803C58.5055 38.4971 58.5495 38.2399 58.582 38.0088H59.7002ZM63.3037 31.9346C63.7171 31.9346 64.0898 31.9997 64.4219 32.1299C64.7539 32.2568 65.0176 32.4473 65.2129 32.7012C65.4082 32.9551 65.5059 33.2692 65.5059 33.6436C65.5059 33.9333 65.4456 34.1855 65.3252 34.4004C65.208 34.6152 65.0485 34.804 64.8467 34.9668C64.6449 35.1263 64.4186 35.2679 64.168 35.3916C64.4479 35.5283 64.7051 35.6862 64.9395 35.8652C65.1771 36.041 65.3675 36.2477 65.5107 36.4854C65.6572 36.723 65.7305 37.0013 65.7305 37.3203C65.7305 37.7207 65.6279 38.0674 65.4229 38.3604C65.221 38.6501 64.9395 38.8747 64.5781 39.0342C64.2168 39.1904 63.7952 39.2686 63.3135 39.2686C62.7959 39.2686 62.3548 39.1921 61.9902 39.0391C61.6257 38.8861 61.349 38.668 61.1602 38.3848C60.9714 38.0983 60.877 37.7565 60.877 37.3594C60.877 37.0306 60.9421 36.7458 61.0723 36.5049C61.2025 36.264 61.3766 36.0557 61.5947 35.8799C61.8161 35.7041 62.0586 35.556 62.3223 35.4355C62.0977 35.3021 61.8926 35.1523 61.707 34.9863C61.5215 34.8171 61.3734 34.6234 61.2627 34.4053C61.1553 34.1839 61.1016 33.9284 61.1016 33.6387C61.1016 33.2676 61.2008 32.9567 61.3994 32.7061C61.598 32.4521 61.8633 32.2601 62.1953 32.1299C62.5306 31.9997 62.9001 31.9346 63.3037 31.9346ZM61.9707 37.3154C61.9707 37.6279 62.0814 37.8851 62.3027 38.0869C62.5241 38.2887 62.8545 38.3896 63.2939 38.3896C63.7301 38.3896 64.0622 38.2904 64.29 38.0918C64.5179 37.8932 64.6318 37.6312 64.6318 37.3057C64.6318 37.0973 64.5732 36.9134 64.4561 36.7539C64.3421 36.5944 64.1875 36.4528 63.9922 36.3291C63.8001 36.2021 63.5869 36.085 63.3525 35.9775L63.1963 35.9141C62.9424 36.0215 62.7243 36.1436 62.542 36.2803C62.3597 36.4137 62.2181 36.5651 62.1172 36.7344C62.0195 36.9036 61.9707 37.0973 61.9707 37.3154ZM63.2939 32.8184C62.9782 32.8184 62.7178 32.8965 62.5127 33.0527C62.3109 33.2057 62.21 33.4271 62.21 33.7168C62.21 33.9219 62.2588 34.0977 62.3564 34.2441C62.4574 34.3906 62.5924 34.5176 62.7617 34.625C62.931 34.7292 63.1182 34.8268 63.3232 34.918C63.5218 34.8301 63.7008 34.734 63.8604 34.6299C64.0231 34.5225 64.1517 34.3955 64.2461 34.249C64.3438 34.0993 64.3926 33.9202 64.3926 33.7119C64.3926 33.4255 64.29 33.2057 64.085 33.0527C63.8831 32.8965 63.6195 32.8184 63.2939 32.8184ZM71.1797 33.6631C71.1797 33.9854 71.1146 34.2653 70.9844 34.5029C70.8542 34.7406 70.6751 34.9359 70.4473 35.0889C70.2227 35.2386 69.9622 35.346 69.666 35.4111V35.4453C70.2357 35.5169 70.6654 35.696 70.9551 35.9824C71.248 36.2689 71.3945 36.6481 71.3945 37.1201C71.3945 37.5335 71.2952 37.903 71.0967 38.2285C70.8981 38.5508 70.5938 38.8047 70.1836 38.9902C69.7734 39.1758 69.2461 39.2686 68.6016 39.2686C68.2142 39.2686 67.8545 39.2376 67.5225 39.1758C67.1937 39.1139 66.8812 39.0146 66.585 38.8779V37.8574C66.8877 38.0072 67.21 38.1227 67.5518 38.2041C67.8936 38.2855 68.2174 38.3262 68.5234 38.3262C69.1191 38.3262 69.5439 38.2155 69.7979 37.9941C70.0518 37.7695 70.1787 37.4603 70.1787 37.0664C70.1787 36.8125 70.112 36.6042 69.9785 36.4414C69.8483 36.2786 69.6449 36.1566 69.3682 36.0752C69.0947 35.9938 68.7415 35.9531 68.3086 35.9531H67.6787V35.0303H68.3135C68.7269 35.0303 69.0589 34.9814 69.3096 34.8838C69.5602 34.7829 69.7409 34.6445 69.8516 34.4688C69.9655 34.293 70.0225 34.0879 70.0225 33.8535C70.0225 33.5475 69.9232 33.3099 69.7246 33.1406C69.526 32.9681 69.2314 32.8818 68.8408 32.8818C68.5999 32.8818 68.3802 32.9095 68.1816 32.9648C67.9863 33.0202 67.8057 33.0902 67.6396 33.1748C67.4736 33.2594 67.3158 33.3506 67.166 33.4482L66.6143 32.6523C66.8844 32.4505 67.2067 32.2796 67.5811 32.1396C67.9554 31.9997 68.3916 31.9297 68.8896 31.9297C69.6221 31.9297 70.1868 32.0876 70.584 32.4033C70.9811 32.7158 71.1797 33.1357 71.1797 33.6631ZM72.3516 36.1289C72.3516 35.709 72.3809 35.2956 72.4395 34.8887C72.5013 34.4818 72.6055 34.1009 72.752 33.7461C72.8984 33.3913 73.1003 33.0788 73.3574 32.8086C73.6178 32.5384 73.945 32.3268 74.3389 32.1738C74.7327 32.0176 75.2064 31.9395 75.7598 31.9395C75.903 31.9395 76.0641 31.946 76.2432 31.959C76.4222 31.972 76.5703 31.9932 76.6875 32.0225V32.9746C76.5605 32.9388 76.4206 32.9111 76.2676 32.8916C76.1178 32.8721 75.9681 32.8623 75.8184 32.8623C75.2194 32.8623 74.7523 32.9762 74.417 33.2041C74.0817 33.4287 73.8424 33.738 73.6992 34.1318C73.556 34.5225 73.473 34.9701 73.4502 35.4746H73.5088C73.6064 35.3118 73.7285 35.167 73.875 35.04C74.0215 34.9131 74.2005 34.8122 74.4121 34.7373C74.6237 34.6592 74.8695 34.6201 75.1494 34.6201C75.5661 34.6201 75.929 34.708 76.2383 34.8838C76.5475 35.0563 76.7852 35.307 76.9512 35.6357C77.1204 35.9645 77.2051 36.3633 77.2051 36.832C77.2051 37.3366 77.109 37.7712 76.917 38.1357C76.7282 38.5003 76.458 38.7803 76.1064 38.9756C75.7581 39.1709 75.3431 39.2686 74.8613 39.2686C74.5065 39.2686 74.1761 39.2035 73.8701 39.0732C73.5674 38.943 73.3021 38.7477 73.0742 38.4873C72.8464 38.2269 72.6689 37.9014 72.542 37.5107C72.415 37.1169 72.3516 36.6562 72.3516 36.1289ZM74.8418 38.3213C75.2129 38.3213 75.5107 38.2008 75.7354 37.96C75.9632 37.7158 76.0771 37.3431 76.0771 36.8418C76.0771 36.4349 75.9762 36.1126 75.7744 35.875C75.5758 35.6374 75.2764 35.5186 74.876 35.5186C74.6025 35.5186 74.3633 35.5771 74.1582 35.6943C73.9531 35.8115 73.7936 35.9596 73.6797 36.1387C73.569 36.3177 73.5137 36.5 73.5137 36.6855C73.5137 36.8743 73.5413 37.0648 73.5967 37.2568C73.652 37.4489 73.735 37.6263 73.8457 37.7891C73.9564 37.9486 74.0947 38.0771 74.2607 38.1748C74.4268 38.2725 74.6204 38.3213 74.8418 38.3213ZM83.1572 32.0322C83.7725 32.0322 84.2803 32.1071 84.6807 32.2568C85.0843 32.4066 85.3838 32.6344 85.5791 32.9404C85.7777 33.2464 85.877 33.6354 85.877 34.1074C85.877 34.459 85.8118 34.7585 85.6816 35.0059C85.5514 35.2533 85.3805 35.4583 85.1689 35.6211C84.9574 35.7839 84.7311 35.9141 84.4902 36.0117L86.5166 39.1709H85.1934L83.4697 36.3096H82.3223V39.1709H81.1504V32.0322H83.1572ZM83.0791 33.0088H82.3223V35.3428H83.1328C83.6764 35.3428 84.0703 35.2419 84.3145 35.04C84.5618 34.8382 84.6855 34.5404 84.6855 34.1465C84.6855 33.7331 84.5537 33.4401 84.29 33.2676C84.0296 33.0951 83.626 33.0088 83.0791 33.0088ZM89.5391 33.6631C90.2227 33.6631 90.7386 33.8145 91.0869 34.1172C91.4385 34.4199 91.6143 34.8919 91.6143 35.5332V39.1709H90.7988L90.5791 38.4043H90.54C90.387 38.5996 90.2292 38.7607 90.0664 38.8877C89.9036 39.0146 89.7148 39.109 89.5 39.1709C89.2884 39.236 89.0296 39.2686 88.7236 39.2686C88.4014 39.2686 88.1133 39.21 87.8594 39.0928C87.6055 38.9723 87.4053 38.79 87.2588 38.5459C87.1123 38.3018 87.0391 37.9925 87.0391 37.6182C87.0391 37.0615 87.2458 36.6432 87.6592 36.3633C88.0758 36.0833 88.7041 35.9287 89.5439 35.8994L90.4814 35.8652V35.582C90.4814 35.2077 90.3936 34.9408 90.2178 34.7812C90.0452 34.6217 89.8011 34.542 89.4854 34.542C89.2152 34.542 88.9531 34.5811 88.6992 34.6592C88.4453 34.7373 88.1979 34.8333 87.957 34.9473L87.5859 34.1367C87.8496 33.9967 88.1491 33.8828 88.4844 33.7949C88.8229 33.707 89.1745 33.6631 89.5391 33.6631ZM90.4766 36.5879L89.7783 36.6123C89.2054 36.6318 88.8034 36.7295 88.5723 36.9053C88.3411 37.0811 88.2256 37.3219 88.2256 37.6279C88.2256 37.8949 88.3053 38.0902 88.4648 38.2139C88.6243 38.3343 88.8343 38.3945 89.0947 38.3945C89.4919 38.3945 89.8206 38.2822 90.0811 38.0576C90.3447 37.8298 90.4766 37.4961 90.4766 37.0566V36.5879ZM95.2324 38.3408C95.3822 38.3408 95.5303 38.3278 95.6768 38.3018C95.8232 38.2725 95.9567 38.2383 96.0771 38.1992V39.0684C95.9502 39.1237 95.7858 39.1709 95.584 39.21C95.3822 39.249 95.1722 39.2686 94.9541 39.2686C94.6481 39.2686 94.373 39.2181 94.1289 39.1172C93.8848 39.013 93.6911 38.8356 93.5479 38.585C93.4046 38.3343 93.333 37.9876 93.333 37.5449V34.6396H92.5957V34.127L93.3867 33.7217L93.7627 32.5645H94.4854V33.7656H96.0332V34.6396H94.4854V37.5303C94.4854 37.8037 94.5537 38.0072 94.6904 38.1406C94.8271 38.2741 95.0078 38.3408 95.2324 38.3408ZM98.3232 33.7656V39.1709H97.1758V33.7656H98.3232ZM97.7568 31.6953C97.9326 31.6953 98.084 31.7425 98.2109 31.8369C98.3411 31.9313 98.4062 32.0941 98.4062 32.3252C98.4062 32.5531 98.3411 32.7158 98.2109 32.8135C98.084 32.9079 97.9326 32.9551 97.7568 32.9551C97.5745 32.9551 97.4199 32.9079 97.293 32.8135C97.1693 32.7158 97.1074 32.5531 97.1074 32.3252C97.1074 32.0941 97.1693 31.9313 97.293 31.8369C97.4199 31.7425 97.5745 31.6953 97.7568 31.6953ZM102.786 33.6631C103.395 33.6631 103.868 33.821 104.207 34.1367C104.549 34.4492 104.72 34.9521 104.72 35.6455V39.1709H103.572V35.8604C103.572 35.4404 103.486 35.1263 103.313 34.918C103.141 34.7064 102.874 34.6006 102.513 34.6006C101.989 34.6006 101.624 34.7617 101.419 35.084C101.217 35.4062 101.116 35.8734 101.116 36.4854V39.1709H99.9688V33.7656H100.862L101.023 34.498H101.087C101.204 34.3092 101.349 34.1546 101.521 34.0342C101.697 33.9105 101.893 33.8177 102.107 33.7559C102.326 33.694 102.552 33.6631 102.786 33.6631ZM107.869 41.5732C107.137 41.5732 106.575 41.4414 106.185 41.1777C105.794 40.9141 105.599 40.5446 105.599 40.0693C105.599 39.7373 105.703 39.4557 105.911 39.2246C106.119 38.9967 106.417 38.8389 106.805 38.751C106.658 38.6859 106.531 38.585 106.424 38.4482C106.32 38.3083 106.268 38.1536 106.268 37.9844C106.268 37.7826 106.325 37.61 106.438 37.4668C106.552 37.3236 106.723 37.1852 106.951 37.0518C106.668 36.9313 106.44 36.736 106.268 36.4658C106.098 36.1924 106.014 35.8717 106.014 35.5039C106.014 35.1133 106.097 34.7812 106.263 34.5078C106.429 34.2311 106.671 34.0212 106.99 33.8779C107.309 33.7314 107.695 33.6582 108.147 33.6582C108.245 33.6582 108.351 33.6647 108.465 33.6777C108.582 33.6875 108.689 33.7005 108.787 33.7168C108.888 33.7298 108.965 33.7445 109.017 33.7607H110.887V34.4004L109.969 34.5713C110.057 34.695 110.127 34.8366 110.179 34.9961C110.231 35.1523 110.257 35.3232 110.257 35.5088C110.257 36.0687 110.063 36.5098 109.676 36.832C109.292 37.151 108.761 37.3105 108.084 37.3105C107.921 37.304 107.763 37.291 107.61 37.2715C107.493 37.3431 107.404 37.4229 107.342 37.5107C107.28 37.5954 107.249 37.6914 107.249 37.7988C107.249 37.8867 107.28 37.9583 107.342 38.0137C107.404 38.0658 107.495 38.1048 107.615 38.1309C107.739 38.1569 107.889 38.1699 108.064 38.1699H108.997C109.59 38.1699 110.042 38.2952 110.354 38.5459C110.667 38.7965 110.823 39.1644 110.823 39.6494C110.823 40.2646 110.569 40.7383 110.062 41.0703C109.554 41.4056 108.823 41.5732 107.869 41.5732ZM107.913 40.7676C108.313 40.7676 108.65 40.7285 108.924 40.6504C109.197 40.5723 109.404 40.46 109.544 40.3135C109.684 40.1702 109.754 39.9993 109.754 39.8008C109.754 39.625 109.71 39.4899 109.622 39.3955C109.534 39.3011 109.402 39.236 109.227 39.2002C109.051 39.1644 108.833 39.1465 108.572 39.1465H107.723C107.511 39.1465 107.324 39.179 107.161 39.2441C106.998 39.3125 106.871 39.4102 106.78 39.5371C106.692 39.6641 106.648 39.8171 106.648 39.9961C106.648 40.2435 106.757 40.4339 106.976 40.5674C107.197 40.7008 107.509 40.7676 107.913 40.7676ZM108.138 36.5586C108.473 36.5586 108.722 36.4674 108.885 36.2852C109.048 36.0996 109.129 35.8392 109.129 35.5039C109.129 35.1393 109.044 34.8659 108.875 34.6836C108.709 34.5013 108.462 34.4102 108.133 34.4102C107.811 34.4102 107.565 34.5029 107.396 34.6885C107.229 34.874 107.146 35.1491 107.146 35.5137C107.146 35.8424 107.229 36.0996 107.396 36.2852C107.565 36.4674 107.812 36.5586 108.138 36.5586ZM115.506 37.6279C115.506 37.9827 115.42 38.2822 115.247 38.5264C115.075 38.7705 114.822 38.9561 114.49 39.083C114.161 39.2067 113.758 39.2686 113.279 39.2686C112.902 39.2686 112.576 39.2409 112.303 39.1855C112.033 39.1335 111.777 39.0521 111.536 38.9414V37.9502C111.793 38.0706 112.081 38.1748 112.4 38.2627C112.723 38.3506 113.027 38.3945 113.313 38.3945C113.691 38.3945 113.963 38.3359 114.129 38.2188C114.295 38.0983 114.378 37.9388 114.378 37.7402C114.378 37.623 114.344 37.5189 114.275 37.4277C114.21 37.3333 114.087 37.2373 113.904 37.1396C113.725 37.0387 113.462 36.9183 113.113 36.7783C112.771 36.6416 112.483 36.5049 112.249 36.3682C112.015 36.2314 111.837 36.0671 111.717 35.875C111.596 35.6797 111.536 35.4307 111.536 35.1279C111.536 34.6494 111.725 34.2865 112.103 34.0391C112.483 33.7884 112.986 33.6631 113.611 33.6631C113.943 33.6631 114.256 33.6973 114.549 33.7656C114.845 33.8307 115.135 33.9268 115.418 34.0537L115.057 34.918C114.812 34.8105 114.567 34.7227 114.319 34.6543C114.075 34.5827 113.826 34.5469 113.572 34.5469C113.276 34.5469 113.05 34.5924 112.894 34.6836C112.741 34.7747 112.664 34.9049 112.664 35.0742C112.664 35.2012 112.701 35.3086 112.776 35.3965C112.851 35.4844 112.98 35.5723 113.162 35.6602C113.348 35.748 113.605 35.8571 113.934 35.9873C114.256 36.111 114.534 36.2412 114.769 36.3779C115.006 36.5114 115.188 36.6758 115.315 36.8711C115.442 37.0664 115.506 37.3187 115.506 37.6279Z" fill="#868583"/>
<defs>
<linearGradient id="paint0_linear_4362_16231" x1="21.0001" y1="1.81348" x2="21.0001" y2="41.4108" gradientUnits="userSpaceOnUse">
<stop stop-color="#18ACFE"/>
<stop offset="1" stop-color="#0163E0"/>
</linearGradient>
</defs>
</svg>
