<svg width="140" height="41" viewBox="0 0 140 41" fill="none" xmlns="http://www.w3.org/2000/svg">
<path d="M9.29914 1.62939H30.7017C35.308 1.62939 39.0419 5.3633 39.0419 9.96955V31.3721C39.0419 35.9784 35.308 39.7123 30.7017 39.7123H9.29914C4.69289 39.7123 0.958984 35.9784 0.958984 31.3721V9.96955C0.958984 5.3633 4.69289 1.62939 9.29914 1.62939Z" fill="url(#paint0_linear_4362_16203)"/>
<path d="M13.1622 29.2705L13.1658 29.2717L11.8637 31.5269C11.3884 32.3501 10.3358 32.6322 9.51253 32.1569C8.68943 31.6816 8.40723 30.629 8.88253 29.8057L9.84174 28.1443L9.93382 27.9849C10.0982 27.7486 10.5039 27.3407 11.3154 27.4175C11.3154 27.4175 13.225 27.6247 13.3632 28.6173C13.3632 28.6173 13.382 28.9438 13.1622 29.2705ZM31.6299 23.5104H27.5696C27.2931 23.4918 27.1724 23.3931 27.1248 23.3356L27.1219 23.3304L22.7755 15.8022L22.7698 15.8059L22.5092 15.4322C22.082 14.7789 21.4036 16.4498 21.4036 16.4498C20.5936 18.3117 21.5186 20.4284 21.841 21.0682L27.878 31.5247C28.3532 32.3477 29.4058 32.6299 30.2292 32.1545C31.0523 31.6792 31.3345 30.6266 30.859 29.8033L29.3496 27.1887C29.3203 27.1253 29.2694 26.9534 29.5789 26.9526H31.6299C32.5805 26.9526 33.3511 26.182 33.3511 25.2315C33.3511 24.2809 32.5805 23.5103 31.6299 23.5103V23.5104ZM23.7435 25.8501C23.7435 25.8501 23.9602 26.9526 23.1217 26.9526H8.11179C7.16121 26.9526 6.39062 26.182 6.39062 25.2315C6.39062 24.2809 7.16121 23.5103 8.11179 23.5103H11.9707C12.5937 23.4743 12.7412 23.1146 12.7412 23.1146L12.7448 23.1164L17.7819 14.3918L17.7804 14.3915C17.8722 14.223 17.7957 14.0636 17.7825 14.0385L16.1189 11.1571C15.6436 10.334 15.9256 9.28126 16.7489 8.80612C17.5721 8.33082 18.6248 8.61273 19.1 9.43597L19.8715 10.7723L20.6417 9.43835C21.117 8.61526 22.1696 8.33306 22.9928 8.8085C23.8161 9.28379 24.0981 10.3363 23.6228 11.1595L16.6135 23.2999C16.5829 23.3739 16.5735 23.4899 16.8015 23.5103H20.9913L20.9921 23.5512C20.9921 23.5512 23.4137 23.5888 23.7435 25.8501Z" fill="white"/>
<path d="M62.1924 19.7227H60.0654V23.1709H57.5732V19.7227H50.4297V17.8105L57.6055 7.42285H60.0654V17.6279H62.1924V19.7227ZM57.5732 17.6279V13.7285C57.5732 13.4062 57.5768 13.0804 57.584 12.751C57.5983 12.4144 57.6126 12.0921 57.627 11.7842C57.6413 11.4762 57.6556 11.1934 57.6699 10.9355C57.6842 10.6706 57.695 10.4521 57.7021 10.2803H57.6162C57.4801 10.5667 57.3298 10.8604 57.165 11.1611C57.0003 11.4548 56.8249 11.7412 56.6387 12.0205L52.7715 17.6279H57.5732ZM64.0293 21.8389C64.0293 21.2516 64.1797 20.8398 64.4805 20.6035C64.7884 20.36 65.1608 20.2383 65.5977 20.2383C66.0345 20.2383 66.4069 20.36 66.7148 20.6035C67.0299 20.8398 67.1875 21.2516 67.1875 21.8389C67.1875 22.4118 67.0299 22.8271 66.7148 23.085C66.4069 23.3356 66.0345 23.4609 65.5977 23.4609C65.1608 23.4609 64.7884 23.3356 64.4805 23.085C64.1797 22.8271 64.0293 22.4118 64.0293 21.8389ZM74.9111 7.25098C75.8206 7.25098 76.6406 7.39421 77.3711 7.68066C78.1016 7.95996 78.6816 8.37891 79.1113 8.9375C79.541 9.49609 79.7559 10.1872 79.7559 11.0107C79.7559 11.6481 79.6234 12.2031 79.3584 12.6758C79.1006 13.1484 78.7497 13.5638 78.3057 13.9219C77.8617 14.2728 77.3639 14.5843 76.8125 14.8564C77.4284 15.1572 77.9941 15.5046 78.5098 15.8984C79.0326 16.2852 79.4515 16.7399 79.7666 17.2627C80.0889 17.7855 80.25 18.3978 80.25 19.0996C80.25 19.9805 80.0244 20.7432 79.5732 21.3877C79.1292 22.0251 78.5098 22.5192 77.7148 22.8701C76.9199 23.2139 75.9925 23.3857 74.9326 23.3857C73.7939 23.3857 72.8236 23.2174 72.0215 22.8809C71.2194 22.5443 70.6107 22.0645 70.1953 21.4414C69.7799 20.8112 69.5723 20.0592 69.5723 19.1855C69.5723 18.4622 69.7155 17.8356 70.002 17.3057C70.2884 16.7757 70.6715 16.3174 71.1514 15.9307C71.6383 15.5439 72.1719 15.2181 72.752 14.9531C72.2578 14.6595 71.8066 14.3301 71.3984 13.9648C70.9902 13.5924 70.6644 13.1663 70.4209 12.6865C70.1846 12.1995 70.0664 11.6374 70.0664 11C70.0664 10.1836 70.2848 9.49967 70.7217 8.94824C71.1585 8.38965 71.7422 7.96712 72.4727 7.68066C73.2103 7.39421 74.0231 7.25098 74.9111 7.25098ZM71.9785 19.0889C71.9785 19.7764 72.222 20.3421 72.709 20.7861C73.196 21.2301 73.9229 21.4521 74.8896 21.4521C75.8493 21.4521 76.5798 21.2337 77.0811 20.7969C77.5824 20.36 77.833 19.7835 77.833 19.0674C77.833 18.609 77.7041 18.2044 77.4463 17.8535C77.1956 17.5026 76.8555 17.1911 76.4258 16.9189C76.0033 16.6396 75.5342 16.3818 75.0186 16.1455L74.6748 16.0059C74.1162 16.2422 73.6364 16.5107 73.2354 16.8115C72.8343 17.1051 72.5228 17.4382 72.3008 17.8105C72.0859 18.1829 71.9785 18.609 71.9785 19.0889ZM74.8896 9.19531C74.195 9.19531 73.6221 9.36719 73.1709 9.71094C72.7269 10.0475 72.5049 10.5345 72.5049 11.1719C72.5049 11.623 72.6123 12.0098 72.8271 12.332C73.0492 12.6543 73.3464 12.9336 73.7188 13.1699C74.0911 13.3991 74.5029 13.6139 74.9541 13.8145C75.391 13.6211 75.7848 13.4098 76.1357 13.1807C76.4938 12.9443 76.7767 12.665 76.9844 12.3428C77.1992 12.0133 77.3066 11.6195 77.3066 11.1611C77.3066 10.5309 77.0811 10.0475 76.6299 9.71094C76.1859 9.36719 75.6058 9.19531 74.8896 9.19531Z" fill="#868583"/>
<path d="M95.0007 5.00439L97.8332 10.7427L104.167 11.6686L99.584 16.1327L100.666 22.4394L95.0007 19.4602L89.3357 22.4394L90.4173 16.1327L85.834 11.6686L92.1682 10.7427L95.0007 5.00439Z" fill="#FFE234"/>
<path d="M53.8232 38.1709H52.6709V33.5762C52.6709 33.4232 52.6725 33.2702 52.6758 33.1172C52.679 32.9642 52.6823 32.8145 52.6855 32.668C52.6921 32.5215 52.7002 32.3815 52.71 32.248C52.6416 32.3229 52.557 32.4043 52.4561 32.4922C52.3584 32.5801 52.2542 32.6712 52.1436 32.7656L51.3232 33.4199L50.7471 32.6924L52.8662 31.0322H53.8232V38.1709ZM57.7002 37.0088L57.7686 37.1211C57.71 37.3555 57.6351 37.6077 57.5439 37.8779C57.4528 38.1481 57.3535 38.4183 57.2461 38.6885C57.1387 38.9619 57.0296 39.2191 56.9189 39.46H56.0791C56.1475 39.1963 56.2126 38.9196 56.2744 38.6299C56.3395 38.3434 56.3981 38.0602 56.4502 37.7803C56.5055 37.4971 56.5495 37.2399 56.582 37.0088H57.7002ZM63.7305 38.1709H58.8965V37.3066L60.7471 35.4316C61.1051 35.0671 61.3997 34.7529 61.6309 34.4893C61.862 34.2223 62.0329 33.9701 62.1436 33.7324C62.2575 33.4948 62.3145 33.236 62.3145 32.9561C62.3145 32.611 62.2152 32.3506 62.0166 32.1748C61.818 31.9958 61.556 31.9062 61.2305 31.9062C60.9212 31.9062 60.6348 31.9681 60.3711 32.0918C60.1107 32.2122 59.8405 32.3848 59.5605 32.6094L58.9307 31.8525C59.1292 31.6833 59.3408 31.5286 59.5654 31.3887C59.7933 31.2487 60.0472 31.138 60.3271 31.0566C60.6071 30.972 60.9261 30.9297 61.2842 30.9297C61.7367 30.9297 62.1273 31.0111 62.4561 31.1738C62.7848 31.3333 63.0371 31.5563 63.2129 31.8428C63.3919 32.1292 63.4814 32.4629 63.4814 32.8438C63.4814 33.2279 63.4049 33.5827 63.252 33.9082C63.099 34.2337 62.8809 34.556 62.5977 34.875C62.3145 35.1908 61.9775 35.5342 61.5869 35.9053L60.3516 37.1113V37.165H63.7305V38.1709ZM67.0264 30.9346C67.4398 30.9346 67.8125 30.9997 68.1445 31.1299C68.4766 31.2568 68.7402 31.4473 68.9355 31.7012C69.1309 31.9551 69.2285 32.2692 69.2285 32.6436C69.2285 32.9333 69.1683 33.1855 69.0479 33.4004C68.9307 33.6152 68.7712 33.804 68.5693 33.9668C68.3675 34.1263 68.1413 34.2679 67.8906 34.3916C68.1706 34.5283 68.4277 34.6862 68.6621 34.8652C68.8997 35.041 69.0902 35.2477 69.2334 35.4854C69.3799 35.723 69.4531 36.0013 69.4531 36.3203C69.4531 36.7207 69.3506 37.0674 69.1455 37.3604C68.9437 37.6501 68.6621 37.8747 68.3008 38.0342C67.9395 38.1904 67.5179 38.2686 67.0361 38.2686C66.5186 38.2686 66.0775 38.1921 65.7129 38.0391C65.3483 37.8861 65.0716 37.668 64.8828 37.3848C64.694 37.0983 64.5996 36.7565 64.5996 36.3594C64.5996 36.0306 64.6647 35.7458 64.7949 35.5049C64.9251 35.264 65.0993 35.0557 65.3174 34.8799C65.5387 34.7041 65.7812 34.556 66.0449 34.4355C65.8203 34.3021 65.6152 34.1523 65.4297 33.9863C65.2441 33.8171 65.096 33.6234 64.9854 33.4053C64.8779 33.1839 64.8242 32.9284 64.8242 32.6387C64.8242 32.2676 64.9235 31.9567 65.1221 31.7061C65.3206 31.4521 65.5859 31.2601 65.918 31.1299C66.2533 30.9997 66.6227 30.9346 67.0264 30.9346ZM65.6934 36.3154C65.6934 36.6279 65.804 36.8851 66.0254 37.0869C66.2467 37.2887 66.5771 37.3896 67.0166 37.3896C67.4528 37.3896 67.7848 37.2904 68.0127 37.0918C68.2406 36.8932 68.3545 36.6312 68.3545 36.3057C68.3545 36.0973 68.2959 35.9134 68.1787 35.7539C68.0648 35.5944 67.9102 35.4528 67.7148 35.3291C67.5228 35.2021 67.3096 35.085 67.0752 34.9775L66.9189 34.9141C66.665 35.0215 66.4469 35.1436 66.2646 35.2803C66.0824 35.4137 65.9408 35.5651 65.8398 35.7344C65.7422 35.9036 65.6934 36.0973 65.6934 36.3154ZM67.0166 31.8184C66.7008 31.8184 66.4404 31.8965 66.2354 32.0527C66.0335 32.2057 65.9326 32.4271 65.9326 32.7168C65.9326 32.9219 65.9814 33.0977 66.0791 33.2441C66.18 33.3906 66.3151 33.5176 66.4844 33.625C66.6536 33.7292 66.8408 33.8268 67.0459 33.918C67.2445 33.8301 67.4235 33.734 67.583 33.6299C67.7458 33.5225 67.8743 33.3955 67.9688 33.249C68.0664 33.0993 68.1152 32.9202 68.1152 32.7119C68.1152 32.4255 68.0127 32.2057 67.8076 32.0527C67.6058 31.8965 67.3421 31.8184 67.0166 31.8184ZM73.7158 38.1709H72.5635V33.5762C72.5635 33.4232 72.5651 33.2702 72.5684 33.1172C72.5716 32.9642 72.5749 32.8145 72.5781 32.668C72.5846 32.5215 72.5928 32.3815 72.6025 32.248C72.5342 32.3229 72.4495 32.4043 72.3486 32.4922C72.251 32.5801 72.1468 32.6712 72.0361 32.7656L71.2158 33.4199L70.6396 32.6924L72.7588 31.0322H73.7158V38.1709ZM81.1572 31.0322C81.7725 31.0322 82.2803 31.1071 82.6807 31.2568C83.0843 31.4066 83.3838 31.6344 83.5791 31.9404C83.7777 32.2464 83.877 32.6354 83.877 33.1074C83.877 33.459 83.8118 33.7585 83.6816 34.0059C83.5514 34.2533 83.3805 34.4583 83.1689 34.6211C82.9574 34.7839 82.7311 34.9141 82.4902 35.0117L84.5166 38.1709H83.1934L81.4697 35.3096H80.3223V38.1709H79.1504V31.0322H81.1572ZM81.0791 32.0088H80.3223V34.3428H81.1328C81.6764 34.3428 82.0703 34.2419 82.3145 34.04C82.5618 33.8382 82.6855 33.5404 82.6855 33.1465C82.6855 32.7331 82.5537 32.4401 82.29 32.2676C82.0296 32.0951 81.626 32.0088 81.0791 32.0088ZM87.5391 32.6631C88.2227 32.6631 88.7386 32.8145 89.0869 33.1172C89.4385 33.4199 89.6143 33.8919 89.6143 34.5332V38.1709H88.7988L88.5791 37.4043H88.54C88.387 37.5996 88.2292 37.7607 88.0664 37.8877C87.9036 38.0146 87.7148 38.109 87.5 38.1709C87.2884 38.236 87.0296 38.2686 86.7236 38.2686C86.4014 38.2686 86.1133 38.21 85.8594 38.0928C85.6055 37.9723 85.4053 37.79 85.2588 37.5459C85.1123 37.3018 85.0391 36.9925 85.0391 36.6182C85.0391 36.0615 85.2458 35.6432 85.6592 35.3633C86.0758 35.0833 86.7041 34.9287 87.5439 34.8994L88.4814 34.8652V34.582C88.4814 34.2077 88.3936 33.9408 88.2178 33.7812C88.0452 33.6217 87.8011 33.542 87.4854 33.542C87.2152 33.542 86.9531 33.5811 86.6992 33.6592C86.4453 33.7373 86.1979 33.8333 85.957 33.9473L85.5859 33.1367C85.8496 32.9967 86.1491 32.8828 86.4844 32.7949C86.8229 32.707 87.1745 32.6631 87.5391 32.6631ZM88.4766 35.5879L87.7783 35.6123C87.2054 35.6318 86.8034 35.7295 86.5723 35.9053C86.3411 36.0811 86.2256 36.3219 86.2256 36.6279C86.2256 36.8949 86.3053 37.0902 86.4648 37.2139C86.6243 37.3343 86.8343 37.3945 87.0947 37.3945C87.4919 37.3945 87.8206 37.2822 88.0811 37.0576C88.3447 36.8298 88.4766 36.4961 88.4766 36.0566V35.5879ZM93.2324 37.3408C93.3822 37.3408 93.5303 37.3278 93.6768 37.3018C93.8232 37.2725 93.9567 37.2383 94.0771 37.1992V38.0684C93.9502 38.1237 93.7858 38.1709 93.584 38.21C93.3822 38.249 93.1722 38.2686 92.9541 38.2686C92.6481 38.2686 92.373 38.2181 92.1289 38.1172C91.8848 38.013 91.6911 37.8356 91.5479 37.585C91.4046 37.3343 91.333 36.9876 91.333 36.5449V33.6396H90.5957V33.127L91.3867 32.7217L91.7627 31.5645H92.4854V32.7656H94.0332V33.6396H92.4854V36.5303C92.4854 36.8037 92.5537 37.0072 92.6904 37.1406C92.8271 37.2741 93.0078 37.3408 93.2324 37.3408ZM96.3232 32.7656V38.1709H95.1758V32.7656H96.3232ZM95.7568 30.6953C95.9326 30.6953 96.084 30.7425 96.2109 30.8369C96.3411 30.9313 96.4062 31.0941 96.4062 31.3252C96.4062 31.5531 96.3411 31.7158 96.2109 31.8135C96.084 31.9079 95.9326 31.9551 95.7568 31.9551C95.5745 31.9551 95.4199 31.9079 95.293 31.8135C95.1693 31.7158 95.1074 31.5531 95.1074 31.3252C95.1074 31.0941 95.1693 30.9313 95.293 30.8369C95.4199 30.7425 95.5745 30.6953 95.7568 30.6953ZM100.786 32.6631C101.395 32.6631 101.868 32.821 102.207 33.1367C102.549 33.4492 102.72 33.9521 102.72 34.6455V38.1709H101.572V34.8604C101.572 34.4404 101.486 34.1263 101.313 33.918C101.141 33.7064 100.874 33.6006 100.513 33.6006C99.9886 33.6006 99.624 33.7617 99.4189 34.084C99.2171 34.4062 99.1162 34.8734 99.1162 35.4854V38.1709H97.9688V32.7656H98.8623L99.0234 33.498H99.0869C99.2041 33.3092 99.349 33.1546 99.5215 33.0342C99.6973 32.9105 99.8926 32.8177 100.107 32.7559C100.326 32.694 100.552 32.6631 100.786 32.6631ZM105.869 40.5732C105.137 40.5732 104.575 40.4414 104.185 40.1777C103.794 39.9141 103.599 39.5446 103.599 39.0693C103.599 38.7373 103.703 38.4557 103.911 38.2246C104.119 37.9967 104.417 37.8389 104.805 37.751C104.658 37.6859 104.531 37.585 104.424 37.4482C104.32 37.3083 104.268 37.1536 104.268 36.9844C104.268 36.7826 104.325 36.61 104.438 36.4668C104.552 36.3236 104.723 36.1852 104.951 36.0518C104.668 35.9313 104.44 35.736 104.268 35.4658C104.098 35.1924 104.014 34.8717 104.014 34.5039C104.014 34.1133 104.097 33.7812 104.263 33.5078C104.429 33.2311 104.671 33.0212 104.99 32.8779C105.309 32.7314 105.695 32.6582 106.147 32.6582C106.245 32.6582 106.351 32.6647 106.465 32.6777C106.582 32.6875 106.689 32.7005 106.787 32.7168C106.888 32.7298 106.965 32.7445 107.017 32.7607H108.887V33.4004L107.969 33.5713C108.057 33.695 108.127 33.8366 108.179 33.9961C108.231 34.1523 108.257 34.3232 108.257 34.5088C108.257 35.0687 108.063 35.5098 107.676 35.832C107.292 36.151 106.761 36.3105 106.084 36.3105C105.921 36.304 105.763 36.291 105.61 36.2715C105.493 36.3431 105.404 36.4229 105.342 36.5107C105.28 36.5954 105.249 36.6914 105.249 36.7988C105.249 36.8867 105.28 36.9583 105.342 37.0137C105.404 37.0658 105.495 37.1048 105.615 37.1309C105.739 37.1569 105.889 37.1699 106.064 37.1699H106.997C107.59 37.1699 108.042 37.2952 108.354 37.5459C108.667 37.7965 108.823 38.1644 108.823 38.6494C108.823 39.2646 108.569 39.7383 108.062 40.0703C107.554 40.4056 106.823 40.5732 105.869 40.5732ZM105.913 39.7676C106.313 39.7676 106.65 39.7285 106.924 39.6504C107.197 39.5723 107.404 39.46 107.544 39.3135C107.684 39.1702 107.754 38.9993 107.754 38.8008C107.754 38.625 107.71 38.4899 107.622 38.3955C107.534 38.3011 107.402 38.236 107.227 38.2002C107.051 38.1644 106.833 38.1465 106.572 38.1465H105.723C105.511 38.1465 105.324 38.179 105.161 38.2441C104.998 38.3125 104.871 38.4102 104.78 38.5371C104.692 38.6641 104.648 38.8171 104.648 38.9961C104.648 39.2435 104.757 39.4339 104.976 39.5674C105.197 39.7008 105.509 39.7676 105.913 39.7676ZM106.138 35.5586C106.473 35.5586 106.722 35.4674 106.885 35.2852C107.048 35.0996 107.129 34.8392 107.129 34.5039C107.129 34.1393 107.044 33.8659 106.875 33.6836C106.709 33.5013 106.462 33.4102 106.133 33.4102C105.811 33.4102 105.565 33.5029 105.396 33.6885C105.229 33.874 105.146 34.1491 105.146 34.5137C105.146 34.8424 105.229 35.0996 105.396 35.2852C105.565 35.4674 105.812 35.5586 106.138 35.5586ZM113.506 36.6279C113.506 36.9827 113.42 37.2822 113.247 37.5264C113.075 37.7705 112.822 37.9561 112.49 38.083C112.161 38.2067 111.758 38.2686 111.279 38.2686C110.902 38.2686 110.576 38.2409 110.303 38.1855C110.033 38.1335 109.777 38.0521 109.536 37.9414V36.9502C109.793 37.0706 110.081 37.1748 110.4 37.2627C110.723 37.3506 111.027 37.3945 111.313 37.3945C111.691 37.3945 111.963 37.3359 112.129 37.2188C112.295 37.0983 112.378 36.9388 112.378 36.7402C112.378 36.623 112.344 36.5189 112.275 36.4277C112.21 36.3333 112.087 36.2373 111.904 36.1396C111.725 36.0387 111.462 35.9183 111.113 35.7783C110.771 35.6416 110.483 35.5049 110.249 35.3682C110.015 35.2314 109.837 35.0671 109.717 34.875C109.596 34.6797 109.536 34.4307 109.536 34.1279C109.536 33.6494 109.725 33.2865 110.103 33.0391C110.483 32.7884 110.986 32.6631 111.611 32.6631C111.943 32.6631 112.256 32.6973 112.549 32.7656C112.845 32.8307 113.135 32.9268 113.418 33.0537L113.057 33.918C112.812 33.8105 112.567 33.7227 112.319 33.6543C112.075 33.5827 111.826 33.5469 111.572 33.5469C111.276 33.5469 111.05 33.5924 110.894 33.6836C110.741 33.7747 110.664 33.9049 110.664 34.0742C110.664 34.2012 110.701 34.3086 110.776 34.3965C110.851 34.4844 110.98 34.5723 111.162 34.6602C111.348 34.748 111.605 34.8571 111.934 34.9873C112.256 35.111 112.534 35.2412 112.769 35.3779C113.006 35.5114 113.188 35.6758 113.315 35.8711C113.442 36.0664 113.506 36.3187 113.506 36.6279Z" fill="#868583"/>
<defs>
<linearGradient id="paint0_linear_4362_16203" x1="20.0004" y1="1.62939" x2="20.0004" y2="39.7123" gradientUnits="userSpaceOnUse">
<stop stop-color="#17C9FB"/>
<stop offset="1" stop-color="#1A74E8"/>
</linearGradient>
</defs>
</svg>
