<svg width="204" height="30" viewBox="0 0 204 30" fill="none" xmlns="http://www.w3.org/2000/svg">
<path d="M2.86585 4.7561H5.91463L10.9146 14.0854L15.9146 4.7561H18.9634L21.8293 25.2439H17.9268L16.1585 11.5244L10.9146 20.9756L5.67073 11.5244L3.90244 25.2439H0L2.86585 4.7561Z" fill="#2480C4"/>
<path d="M25.1829 4.7561H38.2927V8.41463H29.0244V12.8049H36.2195V16.4634H29.0244V21.7073H38.5976V25.3659H25.1829V4.7561Z" fill="#2480C4"/>
<path d="M41.8293 4.7561H49.5122C51.4634 4.7561 53.2317 5.18293 54.7561 5.97561C56.2805 6.76829 57.5 7.98781 58.3537 9.5122C59.2073 11.0366 59.6341 12.8659 59.6341 15C59.6341 17.1341 59.2073 18.9024 58.3537 20.4878C57.5 22.0122 56.2805 23.2317 54.7561 24.0244C53.2317 24.8171 51.4634 25.2439 49.5122 25.2439H41.8293V4.7561ZM49.5122 21.8902C51.4634 21.8902 52.9268 21.2805 53.9634 20.061C55 18.8415 55.4878 17.1341 55.4878 15C55.4878 12.8049 55 11.1585 53.9634 9.93902C52.9268 8.71951 51.4634 8.10976 49.5122 8.10976H45.6098V21.9512H49.5122V21.8902Z" fill="#2480C4"/>
<path d="M62.9268 4.7561H66.6463V25.2439H62.9268V4.7561Z" fill="#2480C4"/>
<path d="M74.939 24.3293C73.3537 23.4756 72.1341 22.1951 71.2195 20.6098C70.3659 19.0244 69.878 17.1341 69.878 15C69.878 12.8659 70.3049 11.0366 71.2195 9.45122C72.1341 7.86585 73.4146 6.58537 75 5.73171C76.5854 4.81707 78.4146 4.39024 80.4878 4.39024C82.439 4.39024 84.2073 4.81707 85.7927 5.60976L85.3658 9.20732C84.5122 8.84146 83.7195 8.53659 82.9268 8.35366C82.1341 8.17073 81.3415 8.04878 80.4268 8.04878C78.3536 8.04878 76.7073 8.71951 75.6098 10C74.5122 11.2805 73.9024 12.9878 73.9024 15.122C73.9024 17.2561 74.4512 18.9634 75.5488 20.2439C76.6463 21.5244 78.2317 22.1951 80.3049 22.1951C81.2195 22.1951 82.0732 22.0732 82.8658 21.8902C83.6585 21.7073 84.4512 21.4024 85.3658 21.0366L85.7927 24.6341C84.0854 25.4268 82.3171 25.8537 80.3658 25.8537C78.3537 25.6707 76.5244 25.2439 74.939 24.3293Z" fill="#2480C4"/>
<path d="M122.073 8.41463V4.7561H137.439V8.41463H131.646V25.2439H127.927V8.41463H122.073Z" fill="#2480C4"/>
<path d="M140.122 4.7561H153.232V8.41463H143.963V12.8049H151.159V16.4634H143.963V21.7073H153.537V25.3659H140.122V4.7561Z" fill="#2480C4"/>
<path d="M158.963 25.1829C157.622 24.878 156.646 24.5122 155.854 24.1463L156.28 20.1829C158.841 21.4024 161.098 22.0732 163.049 22.0732C164.085 22.0732 164.878 21.8902 165.488 21.4634C166.098 21.0366 166.341 20.4878 166.341 19.6951C166.341 19.0854 166.159 18.5976 165.854 18.2317C165.549 17.8659 165.061 17.5 164.451 17.2561C163.841 17.0122 162.866 16.6463 161.524 16.1585C160.305 15.7317 159.268 15.3049 158.415 14.8171C157.622 14.3293 156.951 13.7195 156.463 12.9878C155.976 12.2561 155.732 11.3415 155.732 10.2439C155.732 8.47561 156.402 7.07317 157.683 5.97561C158.963 4.87805 160.793 4.39024 163.232 4.39024C164.39 4.39024 165.488 4.5122 166.585 4.7561C167.683 5 168.719 5.30488 169.695 5.67073L169.329 9.5122C168.11 8.96342 167.012 8.59756 166.037 8.35366C165.061 8.10976 164.024 7.98781 163.049 7.98781C161.951 7.98781 161.098 8.17073 160.488 8.53659C159.878 8.90244 159.634 9.45122 159.634 10.122C159.634 10.6707 159.817 11.0976 160.122 11.4634C160.427 11.8293 160.854 12.1341 161.402 12.3171C161.951 12.561 162.744 12.8049 163.78 13.1707C166.159 13.9024 167.866 14.7561 168.963 15.7317C170.061 16.7073 170.61 18.0488 170.61 19.6951C170.61 21.2805 170.061 22.6829 168.963 23.9024C167.866 25.122 165.793 25.6707 162.683 25.6707C161.524 25.6707 160.305 25.4878 158.963 25.1829Z" fill="#2480C4"/>
<path d="M171.89 8.41463V4.7561H187.256V8.41463H181.463V25.2439H177.744V8.41463H171.89Z" fill="#2480C4"/>
<path d="M192.134 25.1829C190.793 24.878 189.817 24.5122 189.024 24.1463L189.451 20.1829C192.012 21.4024 194.268 22.0732 196.219 22.0732C197.256 22.0732 198.049 21.8902 198.659 21.4634C199.268 21.0366 199.512 20.4878 199.512 19.6951C199.512 19.0854 199.329 18.5976 199.024 18.2317C198.719 17.8659 198.232 17.5 197.622 17.2561C197.012 17.0122 196.037 16.6463 194.695 16.1585C193.476 15.7317 192.439 15.3049 191.585 14.8171C190.793 14.3293 190.122 13.7195 189.634 12.9878C189.146 12.2561 188.902 11.3415 188.902 10.2439C188.902 8.47561 189.573 7.07317 190.854 5.97561C192.134 4.87805 193.963 4.39024 196.402 4.39024C197.561 4.39024 198.659 4.5122 199.756 4.7561C200.854 5 201.89 5.30488 202.866 5.67073L202.5 9.5122C201.28 8.96342 200.183 8.59756 199.207 8.35366C198.232 8.10976 197.195 7.98781 196.219 7.98781C195.122 7.98781 194.268 8.17073 193.659 8.53659C193.049 8.90244 192.805 9.45122 192.805 10.122C192.805 10.6707 192.988 11.0976 193.293 11.4634C193.598 11.8293 194.024 12.1341 194.573 12.3171C195.122 12.561 195.915 12.8049 196.951 13.1707C199.329 13.9024 201.037 14.7561 202.134 15.7317C203.232 16.7073 203.78 18.0488 203.78 19.6951C203.78 21.2805 203.232 22.6829 202.134 23.9024C201.037 25.122 198.963 25.6707 195.854 25.6707C194.695 25.6707 193.476 25.4878 192.134 25.1829Z" fill="#2480C4"/>
<path fill-rule="evenodd" clip-rule="evenodd" d="M118.293 10.7927L114.329 4.08537L107.927 7.80488V0H100V7.80488L93.5976 4.08537L89.6341 10.7927L96.0976 14.878L89.6341 18.6585L93.2317 25.5488L99.878 21.8293V30H108.11V21.8293L114.756 25.5488L118.354 18.6585L111.89 14.8171L118.293 10.7927Z" fill="#2480C4"/>
</svg>
