<svg width="123" height="40" viewBox="0 0 123 40" fill="none" xmlns="http://www.w3.org/2000/svg">
<g clip-path="url(#clip0_4000_10540)">
<path d="M4.88672 19.5732C14.6515 17.9625 24.3943 17.9548 34.1151 19.5732L32.5333 26.9292C23.6099 25.8361 14.9459 25.762 6.59409 26.9292L4.88672 19.5732Z" fill="#7EB530"/>
<path d="M34.1882 21.8896C35.312 21.9936 36.6703 22.1192 38.147 22.2556L35.929 25.8634L37.0002 29.7007L29.832 28.979L32.9196 27.2845L34.1882 21.8896Z" fill="#7EB530"/>
<path d="M4.81427 21.8896C3.69047 21.9936 2.3322 22.1192 0.855469 22.2556L3.07345 25.8634L2.0023 29.7007L9.17043 28.979L6.08286 27.2845L4.81427 21.8896Z" fill="#7EB530"/>
<path d="M9.92578 28.1098C12.2071 30.7705 15.435 32.9566 19.4662 34.7402C24.9146 32.1325 27.3463 30.2414 28.8234 28.1098L24.9418 27.6858C23.4239 29.0929 21.7763 30.239 19.9975 31.1185C19.5926 31.264 19.1269 31.2308 18.8333 31.0979C18.5388 30.9651 17.8691 30.5419 17.5602 30.3695C17.0857 30.1045 16.4416 29.7391 16.2367 29.5343L13.5322 27.6851L9.92578 28.1098Z" fill="#0082D2"/>
<path d="M10.4923 17.4683V11.3678C16.4707 7.37806 22.3899 7.51696 28.2531 11.5135L28.18 17.4683L31.5972 18.0017V10.0811C30.4192 7.50856 23.1914 4.92456 19.3767 5.29545C14.0482 5.18785 10.231 6.9652 7.15625 9.90635V17.9842L10.4923 17.4683Z" fill="#0082D2"/>
<g clip-path="url(#clip1_4000_10540)">
<path d="M19.503 27.895L19.8274 28.5522L20.5529 28.6583L20.0279 29.1696L20.1518 29.8919L19.503 29.5507L18.8542 29.8919L18.9781 29.1696L18.4531 28.6583L19.1786 28.5522L19.503 27.895Z" fill="#7EB530"/>
</g>
<g clip-path="url(#clip2_4000_10540)">
<path d="M17.2344 26.8452L17.494 27.371L18.0743 27.4558L17.6544 27.8648L17.7535 28.4427L17.2344 28.1697L16.7154 28.4427L16.8145 27.8648L16.3945 27.4558L16.9749 27.371L17.2344 26.8452Z" fill="#7EB530"/>
</g>
<g clip-path="url(#clip3_4000_10540)">
<path d="M21.7696 26.8452L22.0291 27.371L22.6095 27.4558L22.1895 27.8648L22.2886 28.4427L21.7696 28.1697L21.2505 28.4427L21.3496 27.8648L20.9297 27.4558L21.5101 27.371L21.7696 26.8452Z" fill="#7EB530"/>
</g>
<path d="M13.5888 13.5513L13.9283 11.1013H14.2958L14.8943 12.2178L15.4893 11.1013H15.8568L16.1963 13.5513H15.7308L15.4963 11.7103L15.6188 11.7348L14.8943 13.0368L14.1663 11.7383L14.2888 11.7138L14.0543 13.5513H13.5888ZM17.6598 13.6003C17.4265 13.6003 17.2188 13.5478 17.0368 13.4428C16.8548 13.3366 16.7119 13.1884 16.6081 12.9983C16.5043 12.8069 16.4523 12.5829 16.4523 12.3263C16.4523 12.0696 16.5043 11.8462 16.6081 11.656C16.7119 11.4647 16.8548 11.3165 17.0368 11.2115C17.2188 11.1054 17.4265 11.0523 17.6598 11.0523C17.8932 11.0523 18.1008 11.1054 18.2828 11.2115C18.4648 11.3165 18.6078 11.4647 18.7116 11.656C18.8154 11.8462 18.8673 12.0696 18.8673 12.3263C18.8673 12.5829 18.8154 12.8069 18.7116 12.9983C18.6078 13.1884 18.4648 13.3366 18.2828 13.4428C18.1008 13.5478 17.8932 13.6003 17.6598 13.6003ZM17.6598 13.1663C17.8232 13.1663 17.9597 13.1301 18.0693 13.0578C18.179 12.9854 18.2613 12.8863 18.3161 12.7603C18.3709 12.6331 18.3983 12.4884 18.3983 12.3263C18.3983 12.1641 18.3709 12.02 18.3161 11.894C18.2613 11.7669 18.179 11.6671 18.0693 11.5948C17.9597 11.5224 17.8232 11.4863 17.6598 11.4863C17.4965 11.4863 17.36 11.5224 17.2503 11.5948C17.1407 11.6671 17.0584 11.7669 17.0036 11.894C16.9488 12.02 16.9213 12.1641 16.9213 12.3263C16.9213 12.4884 16.9488 12.6331 17.0036 12.7603C17.0584 12.8863 17.1407 12.9854 17.2503 13.0578C17.36 13.1301 17.4965 13.1663 17.6598 13.1663ZM19.2585 13.5513V11.1013H19.6995L20.746 12.6833V11.1013H21.194V13.5513H20.8265L19.7065 11.8713V13.5513H19.2585ZM21.7331 13.5513V11.1013H23.3011V11.5353H22.1916V12.0568H23.0526V12.4908H22.1916V13.1173H23.3361V13.5513H21.7331ZM24.2859 13.5513V12.5608L23.4249 11.1013H23.9149L24.6149 12.3438H24.4049L25.1049 11.1013H25.5949L24.7339 12.5608V13.5513H24.2859ZM15.4355 16.5513V14.1013H16.3595C16.5963 14.1013 16.7719 14.152 16.8863 14.2535C17.0018 14.3539 17.0595 14.5003 17.0595 14.6928C17.0595 14.8363 17.0268 14.9564 16.9615 15.0533C16.8973 15.1489 16.8005 15.2189 16.671 15.2633V15.1793C16.867 15.2213 17.0134 15.2983 17.1103 15.4103C17.2071 15.5223 17.2555 15.6704 17.2555 15.8548C17.2555 16.0753 17.1843 16.2468 17.042 16.3693C16.8997 16.4906 16.7048 16.5513 16.4575 16.5513H15.4355ZM15.8835 16.1523H16.391C16.5135 16.1523 16.6109 16.1272 16.6833 16.077C16.7568 16.0269 16.7935 15.9364 16.7935 15.8058C16.7935 15.6728 16.755 15.5824 16.678 15.5345C16.601 15.4867 16.5053 15.4628 16.391 15.4628H15.8835V16.1523ZM15.8835 15.0638H16.293C16.4015 15.0638 16.4826 15.0416 16.5363 14.9973C16.5911 14.9529 16.6185 14.8818 16.6185 14.7838C16.6185 14.6823 16.5911 14.6099 16.5363 14.5668C16.4826 14.5224 16.4015 14.5003 16.293 14.5003H15.8835V15.0638ZM18.9634 15.9703H17.9379V15.5783H18.9634V15.9703ZM18.3929 14.5388H18.5084L17.8014 16.5513H17.3674L18.2389 14.1013H18.6624L19.5339 16.5513H19.0999L18.3929 14.5388ZM20.8858 16.6003C20.6373 16.6003 20.4186 16.5478 20.2296 16.4428C20.0406 16.3366 19.893 16.1884 19.7868 15.9983C19.6818 15.8069 19.6293 15.5829 19.6293 15.3263C19.6293 15.0696 19.6836 14.8462 19.7921 14.656C19.9018 14.4647 20.0523 14.3165 20.2436 14.2115C20.4349 14.1054 20.6537 14.0523 20.8998 14.0523C21.0293 14.0523 21.1478 14.0663 21.2551 14.0943C21.3624 14.1211 21.4552 14.1549 21.5333 14.1958L21.4843 14.6228C21.3957 14.5819 21.3041 14.5487 21.2096 14.523C21.1163 14.4962 21.0118 14.4828 20.8963 14.4828C20.7248 14.4828 20.5813 14.5189 20.4658 14.5913C20.3515 14.6636 20.2652 14.7634 20.2068 14.8905C20.1485 15.0177 20.1193 15.1629 20.1193 15.3263C20.1193 15.4896 20.1479 15.6349 20.2051 15.762C20.2623 15.8892 20.3474 15.9889 20.4606 16.0613C20.5749 16.1336 20.7167 16.1698 20.8858 16.1698C21.0037 16.1698 21.1093 16.1569 21.2026 16.1313C21.2959 16.1056 21.3898 16.0718 21.4843 16.0298L21.5333 16.4568C21.4412 16.4999 21.3397 16.5344 21.2288 16.56C21.1192 16.5869 21.0048 16.6003 20.8858 16.6003ZM23.2986 16.5513L22.3921 15.2563L23.2986 14.1013H23.8236L22.9101 15.2563L23.8236 16.5513H23.2986ZM21.9091 16.5513V14.1013H22.3571V16.5513H21.9091Z" fill="#0082D2"/>
<path d="M9.77466 24.1234C9.47866 24.1234 9.22532 24.0634 9.01466 23.9434C8.80399 23.822 8.64266 23.652 8.53066 23.4334C8.41866 23.2147 8.36266 22.958 8.36266 22.6634C8.36266 22.3714 8.42466 22.1167 8.54866 21.8994C8.67399 21.6807 8.84666 21.5114 9.06666 21.3914C9.28666 21.2714 9.53999 21.2114 9.82666 21.2114C9.97466 21.2114 10.116 21.2267 10.2507 21.2574C10.3867 21.288 10.5027 21.3274 10.5987 21.3754L10.5427 21.8634C10.4427 21.8167 10.332 21.7787 10.2107 21.7494C10.0907 21.7187 9.96266 21.7034 9.82666 21.7034C9.61866 21.7034 9.44799 21.7454 9.31466 21.8294C9.18132 21.912 9.08266 22.0254 9.01866 22.1694C8.95466 22.312 8.92266 22.474 8.92266 22.6554C8.92266 22.846 8.95466 23.0147 9.01866 23.1614C9.08399 23.308 9.18132 23.4234 9.31066 23.5074C9.43999 23.59 9.60132 23.6314 9.79466 23.6314C9.85332 23.6314 9.91466 23.6274 9.97866 23.6194C10.044 23.6114 10.1107 23.6007 10.1787 23.5874V23.0874H9.79466V22.6634H10.6907V23.9114C10.5933 23.9687 10.464 24.0187 10.3027 24.0614C10.1427 24.1027 9.96666 24.1234 9.77466 24.1234ZM12.3149 24.1234C12.0522 24.1234 11.8349 24.0714 11.6629 23.9674C11.4922 23.8634 11.3649 23.7174 11.2809 23.5294C11.1969 23.3414 11.1549 23.1207 11.1549 22.8674V21.2674H11.6669V22.7354C11.6669 22.8687 11.6756 22.9907 11.6929 23.1014C11.7102 23.2107 11.7416 23.3054 11.7869 23.3854C11.8336 23.464 11.8996 23.5247 11.9849 23.5674C12.0702 23.61 12.1802 23.6314 12.3149 23.6314C12.4496 23.6314 12.5596 23.61 12.6449 23.5674C12.7302 23.5247 12.7956 23.464 12.8409 23.3854C12.8876 23.3054 12.9196 23.2107 12.9369 23.1014C12.9542 22.9907 12.9629 22.8687 12.9629 22.7354V21.2674H13.4749V22.8674C13.4749 23.1207 13.4329 23.3414 13.3489 23.5294C13.2649 23.7174 13.1369 23.8634 12.9649 23.9674C12.7942 24.0714 12.5776 24.1234 12.3149 24.1234ZM15.5196 23.4034H14.3476V22.9554H15.5196V23.4034ZM14.8676 21.7674H14.9996L14.1916 24.0674H13.6956L14.6916 21.2674H15.1756L16.1716 24.0674H15.6756L14.8676 21.7674ZM16.4916 24.0674V21.2674H17.5156C17.7089 21.2674 17.8776 21.298 18.0216 21.3594C18.1669 21.4207 18.2796 21.514 18.3596 21.6394C18.4396 21.7647 18.4796 21.9234 18.4796 22.1154C18.4796 22.3207 18.4356 22.484 18.3476 22.6054C18.2609 22.7254 18.1463 22.8207 18.0036 22.8914L18.6356 24.0674H18.0636L17.5236 23.0274C17.5196 23.0274 17.5163 23.0274 17.5136 23.0274C17.5109 23.0274 17.5076 23.0274 17.5036 23.0274H17.0036V24.0674H16.4916ZM17.0036 22.5994H17.3796C17.5903 22.5994 17.7369 22.5567 17.8196 22.4714C17.9023 22.3847 17.9436 22.2754 17.9436 22.1434C17.9436 22.0034 17.9029 21.894 17.8216 21.8154C17.7403 21.7354 17.5996 21.6954 17.3996 21.6954H17.0036V22.5994ZM20.5235 23.4034H19.3515V22.9554H20.5235V23.4034ZM19.8715 21.7674H20.0035L19.1955 24.0674H18.6995L19.6955 21.2674H20.1795L21.1755 24.0674H20.6795L19.8715 21.7674ZM21.4955 24.0674V21.2674H21.9995L23.1955 23.0754V21.2674H23.7075V24.0674H23.2875L22.0075 22.1474V24.0674H21.4955ZM24.8676 24.0674V21.7634H24.0756V21.2674H26.1716V21.7634H25.3796V24.0674H24.8676ZM26.5385 24.0674V21.2674H28.3305V21.7634H27.0625V22.3594H28.0465V22.8554H27.0625V23.5714H28.3705V24.0674H26.5385ZM28.8119 24.0674V21.2674H30.6039V21.7634H29.3359V22.3594H30.3199V22.8554H29.3359V23.5714H30.6439V24.0674H28.8119Z" fill="white"/>
</g>
<path d="M51.8525 18.5H50.2393V12.0674C50.2393 11.8532 50.2415 11.639 50.2461 11.4248C50.2507 11.2106 50.2552 11.001 50.2598 10.7959C50.2689 10.5908 50.2803 10.3949 50.2939 10.208C50.1982 10.3128 50.0798 10.4268 49.9385 10.5498C49.8018 10.6729 49.6559 10.8005 49.501 10.9326L48.3525 11.8486L47.5459 10.8301L50.5127 8.50586H51.8525V18.5ZM61.9082 13.4961C61.9082 14.3027 61.8444 15.0251 61.7168 15.6631C61.5938 16.2965 61.3978 16.8343 61.1289 17.2764C60.86 17.7184 60.5091 18.0557 60.0762 18.2881C59.6432 18.5205 59.1191 18.6367 58.5039 18.6367C57.7337 18.6367 57.098 18.4339 56.5967 18.0283C56.0954 17.6182 55.724 17.0303 55.4824 16.2646C55.2409 15.4945 55.1201 14.5716 55.1201 13.4961C55.1201 12.4206 55.2295 11.5 55.4482 10.7344C55.6715 9.96419 56.0316 9.37402 56.5283 8.96387C57.0251 8.55371 57.6836 8.34863 58.5039 8.34863C59.2786 8.34863 59.9167 8.55371 60.418 8.96387C60.9238 9.36947 61.2975 9.95736 61.5391 10.7275C61.7852 11.4932 61.9082 12.416 61.9082 13.4961ZM56.7402 13.4961C56.7402 14.3392 56.7949 15.0433 56.9043 15.6084C57.0182 16.1735 57.2051 16.5973 57.4648 16.8799C57.7246 17.1579 58.071 17.2969 58.5039 17.2969C58.9368 17.2969 59.2832 17.1579 59.543 16.8799C59.8027 16.6019 59.9896 16.1803 60.1035 15.6152C60.222 15.0501 60.2812 14.3438 60.2812 13.4961C60.2812 12.6576 60.2243 11.9557 60.1104 11.3906C59.9964 10.8255 59.8096 10.4017 59.5498 10.1191C59.29 9.83203 58.9414 9.68848 58.5039 9.68848C58.0664 9.68848 57.7178 9.83203 57.458 10.1191C57.2028 10.4017 57.0182 10.8255 56.9043 11.3906C56.7949 11.9557 56.7402 12.6576 56.7402 13.4961ZM69.9199 13.4961C69.9199 14.3027 69.8561 15.0251 69.7285 15.6631C69.6055 16.2965 69.4095 16.8343 69.1406 17.2764C68.8717 17.7184 68.5208 18.0557 68.0879 18.2881C67.6549 18.5205 67.1309 18.6367 66.5156 18.6367C65.7454 18.6367 65.1097 18.4339 64.6084 18.0283C64.1071 17.6182 63.7357 17.0303 63.4941 16.2646C63.2526 15.4945 63.1318 14.5716 63.1318 13.4961C63.1318 12.4206 63.2412 11.5 63.46 10.7344C63.6833 9.96419 64.0433 9.37402 64.54 8.96387C65.0368 8.55371 65.6953 8.34863 66.5156 8.34863C67.2904 8.34863 67.9284 8.55371 68.4297 8.96387C68.9355 9.36947 69.3092 9.95736 69.5508 10.7275C69.7969 11.4932 69.9199 12.416 69.9199 13.4961ZM64.752 13.4961C64.752 14.3392 64.8066 15.0433 64.916 15.6084C65.0299 16.1735 65.2168 16.5973 65.4766 16.8799C65.7363 17.1579 66.0827 17.2969 66.5156 17.2969C66.9486 17.2969 67.2949 17.1579 67.5547 16.8799C67.8145 16.6019 68.0013 16.1803 68.1152 15.6152C68.2337 15.0501 68.293 14.3438 68.293 13.4961C68.293 12.6576 68.236 11.9557 68.1221 11.3906C68.0081 10.8255 67.8213 10.4017 67.5615 10.1191C67.3018 9.83203 66.9531 9.68848 66.5156 9.68848C66.0781 9.68848 65.7295 9.83203 65.4697 10.1191C65.2145 10.4017 65.0299 10.8255 64.916 11.3906C64.8066 11.9557 64.752 12.6576 64.752 13.4961ZM73.2969 8.3623C74.0306 8.3623 74.5866 8.63574 74.9648 9.18262C75.3431 9.72493 75.5322 10.4928 75.5322 11.4863C75.5322 12.4753 75.3499 13.2477 74.9854 13.8037C74.6253 14.3597 74.0625 14.6377 73.2969 14.6377C72.5814 14.6377 72.0368 14.3597 71.6631 13.8037C71.2894 13.2477 71.1025 12.4753 71.1025 11.4863C71.1025 10.4928 71.278 9.72493 71.6289 9.18262C71.9844 8.63574 72.5404 8.3623 73.2969 8.3623ZM73.3037 9.4834C73.0075 9.4834 72.7887 9.64974 72.6475 9.98242C72.5107 10.3151 72.4424 10.8187 72.4424 11.4932C72.4424 12.1631 72.5107 12.6689 72.6475 13.0107C72.7887 13.348 73.0075 13.5166 73.3037 13.5166C73.6045 13.5166 73.8278 13.348 73.9736 13.0107C74.124 12.6735 74.1992 12.1676 74.1992 11.4932C74.1992 10.8232 74.1263 10.3219 73.9805 9.98926C73.8346 9.65202 73.609 9.4834 73.3037 9.4834ZM80.0098 8.50586L74.4658 18.5H73.1465L78.6904 8.50586H80.0098ZM79.8252 12.3613C80.5589 12.3613 81.1149 12.6348 81.4932 13.1816C81.876 13.724 82.0674 14.4919 82.0674 15.4854C82.0674 16.4697 81.8851 17.2399 81.5205 17.7959C81.1605 18.3519 80.5954 18.6299 79.8252 18.6299C79.1097 18.6299 78.5651 18.3519 78.1914 17.7959C77.8177 17.2399 77.6309 16.4697 77.6309 15.4854C77.6309 14.4919 77.8063 13.724 78.1572 13.1816C78.5127 12.6348 79.0687 12.3613 79.8252 12.3613ZM79.832 13.4824C79.5358 13.4824 79.3171 13.6488 79.1758 13.9814C79.0391 14.3141 78.9707 14.8177 78.9707 15.4922C78.9707 16.1621 79.0391 16.668 79.1758 17.0098C79.3171 17.347 79.5358 17.5156 79.832 17.5156C80.1374 17.5156 80.363 17.3493 80.5088 17.0166C80.6546 16.6794 80.7275 16.1712 80.7275 15.4922C80.7275 14.8223 80.6546 14.321 80.5088 13.9883C80.363 13.651 80.1374 13.4824 79.832 13.4824Z" fill="#868583"/>
<path d="M49.5127 24.3613C50.4339 24.3613 51.1061 24.5501 51.5293 24.9277C51.9525 25.3053 52.1641 25.8343 52.1641 26.5146C52.1641 26.8239 52.1152 27.1185 52.0176 27.3984C51.9232 27.6751 51.7669 27.9209 51.5488 28.1357C51.3307 28.3473 51.0426 28.515 50.6846 28.6387C50.3298 28.7624 49.8919 28.8242 49.3711 28.8242H48.6094V31.5H47.4375V24.3613H49.5127ZM49.4346 25.333H48.6094V27.8477H49.249C49.6169 27.8477 49.9294 27.8053 50.1865 27.7207C50.4437 27.6328 50.639 27.4945 50.7725 27.3057C50.9059 27.1169 50.9727 26.8678 50.9727 26.5586C50.9727 26.1452 50.8473 25.8376 50.5967 25.6357C50.3493 25.4339 49.9619 25.333 49.4346 25.333ZM55.5918 25.9922C56.2754 25.9922 56.7913 26.1436 57.1396 26.4463C57.4912 26.749 57.667 27.221 57.667 27.8623V31.5H56.8516L56.6318 30.7334H56.5928C56.4398 30.9287 56.2819 31.0898 56.1191 31.2168C55.9564 31.3438 55.7676 31.4382 55.5527 31.5C55.3411 31.5651 55.0824 31.5977 54.7764 31.5977C54.4541 31.5977 54.166 31.5391 53.9121 31.4219C53.6582 31.3014 53.458 31.1191 53.3115 30.875C53.165 30.6309 53.0918 30.3216 53.0918 29.9473C53.0918 29.3906 53.2985 28.9723 53.7119 28.6924C54.1286 28.4124 54.7568 28.2578 55.5967 28.2285L56.5342 28.1943V27.9111C56.5342 27.5368 56.4463 27.2699 56.2705 27.1104C56.098 26.9508 55.8538 26.8711 55.5381 26.8711C55.2679 26.8711 55.0059 26.9102 54.752 26.9883C54.498 27.0664 54.2507 27.1624 54.0098 27.2764L53.6387 26.4658C53.9023 26.3258 54.2018 26.2119 54.5371 26.124C54.8757 26.0361 55.2272 25.9922 55.5918 25.9922ZM56.5293 28.917L55.8311 28.9414C55.2581 28.9609 54.8561 29.0586 54.625 29.2344C54.3939 29.4102 54.2783 29.651 54.2783 29.957C54.2783 30.224 54.3581 30.4193 54.5176 30.543C54.6771 30.6634 54.887 30.7236 55.1475 30.7236C55.5446 30.7236 55.8734 30.6113 56.1338 30.3867C56.3975 30.1589 56.5293 29.8252 56.5293 29.3857V28.917ZM62.9062 29.957C62.9062 30.3118 62.82 30.6113 62.6475 30.8555C62.4749 31.0996 62.2227 31.2852 61.8906 31.4121C61.5618 31.5358 61.1582 31.5977 60.6797 31.5977C60.3021 31.5977 59.9766 31.57 59.7031 31.5146C59.4329 31.4626 59.1774 31.3812 58.9365 31.2705V30.2793C59.1937 30.3997 59.4818 30.5039 59.8008 30.5918C60.123 30.6797 60.4274 30.7236 60.7139 30.7236C61.0915 30.7236 61.3633 30.665 61.5293 30.5479C61.6953 30.4274 61.7783 30.2679 61.7783 30.0693C61.7783 29.9521 61.7441 29.848 61.6758 29.7568C61.6107 29.6624 61.487 29.5664 61.3047 29.4688C61.1257 29.3678 60.862 29.2474 60.5137 29.1074C60.1719 28.9707 59.8838 28.834 59.6494 28.6973C59.415 28.5605 59.2376 28.3962 59.1172 28.2041C58.9967 28.0088 58.9365 27.7598 58.9365 27.457C58.9365 26.9785 59.1253 26.6156 59.5029 26.3682C59.8838 26.1175 60.3867 25.9922 61.0117 25.9922C61.3438 25.9922 61.6562 26.0264 61.9492 26.0947C62.2454 26.1598 62.5352 26.2559 62.8184 26.3828L62.457 27.2471C62.2129 27.1396 61.9671 27.0518 61.7197 26.9834C61.4756 26.9118 61.2266 26.876 60.9727 26.876C60.6764 26.876 60.4502 26.9215 60.2939 27.0127C60.141 27.1038 60.0645 27.234 60.0645 27.4033C60.0645 27.5303 60.1019 27.6377 60.1768 27.7256C60.2516 27.8135 60.3802 27.9014 60.5625 27.9893C60.748 28.0771 61.0052 28.1862 61.334 28.3164C61.6562 28.4401 61.9346 28.5703 62.1689 28.707C62.4066 28.8405 62.5889 29.0049 62.7158 29.2002C62.8428 29.3955 62.9062 29.6478 62.9062 29.957ZM67.7793 29.957C67.7793 30.3118 67.693 30.6113 67.5205 30.8555C67.348 31.0996 67.0957 31.2852 66.7637 31.4121C66.4349 31.5358 66.0312 31.5977 65.5527 31.5977C65.1751 31.5977 64.8496 31.57 64.5762 31.5146C64.306 31.4626 64.0505 31.3812 63.8096 31.2705V30.2793C64.0667 30.3997 64.3548 30.5039 64.6738 30.5918C64.9961 30.6797 65.3005 30.7236 65.5869 30.7236C65.9645 30.7236 66.2363 30.665 66.4023 30.5479C66.5684 30.4274 66.6514 30.2679 66.6514 30.0693C66.6514 29.9521 66.6172 29.848 66.5488 29.7568C66.4837 29.6624 66.36 29.5664 66.1777 29.4688C65.9987 29.3678 65.735 29.2474 65.3867 29.1074C65.0449 28.9707 64.7568 28.834 64.5225 28.6973C64.2881 28.5605 64.1107 28.3962 63.9902 28.2041C63.8698 28.0088 63.8096 27.7598 63.8096 27.457C63.8096 26.9785 63.9984 26.6156 64.376 26.3682C64.7568 26.1175 65.2598 25.9922 65.8848 25.9922C66.2168 25.9922 66.5293 26.0264 66.8223 26.0947C67.1185 26.1598 67.4082 26.2559 67.6914 26.3828L67.3301 27.2471C67.0859 27.1396 66.8402 27.0518 66.5928 26.9834C66.3486 26.9118 66.0996 26.876 65.8457 26.876C65.5495 26.876 65.3232 26.9215 65.167 27.0127C65.014 27.1038 64.9375 27.234 64.9375 27.4033C64.9375 27.5303 64.9749 27.6377 65.0498 27.7256C65.1247 27.8135 65.2533 27.9014 65.4355 27.9893C65.6211 28.0771 65.8783 28.1862 66.207 28.3164C66.5293 28.4401 66.8076 28.5703 67.042 28.707C67.2796 28.8405 67.4619 29.0049 67.5889 29.2002C67.7158 29.3955 67.7793 29.6478 67.7793 29.957ZM74.6152 27.623H77.2812V31.207C76.9069 31.3307 76.5195 31.4268 76.1191 31.4951C75.7188 31.5635 75.2695 31.5977 74.7715 31.5977C74.0456 31.5977 73.4303 31.4544 72.9258 31.168C72.4245 30.8783 72.0436 30.46 71.7832 29.9131C71.5228 29.363 71.3926 28.7005 71.3926 27.9258C71.3926 27.1803 71.5374 26.5342 71.8271 25.9873C72.1169 25.4372 72.5384 25.0124 73.0918 24.7129C73.6452 24.4102 74.3158 24.2588 75.1035 24.2588C75.4909 24.2588 75.8652 24.2979 76.2266 24.376C76.5911 24.4508 76.9248 24.555 77.2275 24.6885L76.8174 25.6553C76.5765 25.5413 76.3063 25.4453 76.0068 25.3672C75.7074 25.2891 75.3965 25.25 75.0742 25.25C74.5632 25.25 74.1221 25.3607 73.751 25.582C73.3831 25.8034 73.0999 26.1159 72.9014 26.5195C72.7028 26.9199 72.6035 27.3936 72.6035 27.9404C72.6035 28.471 72.6833 28.9365 72.8428 29.3369C73.0023 29.7373 73.2513 30.0498 73.5898 30.2744C73.9316 30.4958 74.3727 30.6064 74.9131 30.6064C75.1833 30.6064 75.4128 30.5918 75.6016 30.5625C75.7904 30.5332 75.9645 30.5007 76.124 30.4648V28.624H74.6152V27.623ZM83.585 26.0947V31.5H82.6816L82.5254 30.7725H82.4619C82.348 30.958 82.2031 31.1126 82.0273 31.2363C81.8516 31.3568 81.6562 31.4463 81.4414 31.5049C81.2266 31.5667 81.0003 31.5977 80.7627 31.5977C80.3558 31.5977 80.0075 31.5293 79.7178 31.3926C79.4313 31.2526 79.2116 31.0378 79.0586 30.748C78.9056 30.4583 78.8291 30.084 78.8291 29.625V26.0947H79.9814V29.4102C79.9814 29.8301 80.0661 30.1442 80.2354 30.3525C80.4079 30.5609 80.6748 30.665 81.0361 30.665C81.3844 30.665 81.6611 30.5934 81.8662 30.4502C82.0713 30.307 82.2161 30.0954 82.3008 29.8154C82.3887 29.5355 82.4326 29.1921 82.4326 28.7852V26.0947H83.585ZM87.3496 25.9922C88.0332 25.9922 88.5492 26.1436 88.8975 26.4463C89.249 26.749 89.4248 27.221 89.4248 27.8623V31.5H88.6094L88.3896 30.7334H88.3506C88.1976 30.9287 88.0397 31.0898 87.877 31.2168C87.7142 31.3438 87.5254 31.4382 87.3105 31.5C87.099 31.5651 86.8402 31.5977 86.5342 31.5977C86.2119 31.5977 85.9238 31.5391 85.6699 31.4219C85.416 31.3014 85.2158 31.1191 85.0693 30.875C84.9229 30.6309 84.8496 30.3216 84.8496 29.9473C84.8496 29.3906 85.0563 28.9723 85.4697 28.6924C85.8864 28.4124 86.5146 28.2578 87.3545 28.2285L88.292 28.1943V27.9111C88.292 27.5368 88.2041 27.2699 88.0283 27.1104C87.8558 26.9508 87.6117 26.8711 87.2959 26.8711C87.0257 26.8711 86.7637 26.9102 86.5098 26.9883C86.2559 27.0664 86.0085 27.1624 85.7676 27.2764L85.3965 26.4658C85.6602 26.3258 85.9596 26.2119 86.2949 26.124C86.6335 26.0361 86.985 25.9922 87.3496 25.9922ZM88.2871 28.917L87.5889 28.9414C87.016 28.9609 86.6139 29.0586 86.3828 29.2344C86.1517 29.4102 86.0361 29.651 86.0361 29.957C86.0361 30.224 86.1159 30.4193 86.2754 30.543C86.4349 30.6634 86.6449 30.7236 86.9053 30.7236C87.3024 30.7236 87.6312 30.6113 87.8916 30.3867C88.1553 30.1589 88.2871 29.8252 88.2871 29.3857V28.917ZM93.7705 25.9922C93.8617 25.9922 93.9609 25.9971 94.0684 26.0068C94.1758 26.0166 94.2686 26.0296 94.3467 26.0459L94.2393 27.1201C94.1709 27.1006 94.0863 27.0859 93.9854 27.0762C93.8877 27.0664 93.7998 27.0615 93.7217 27.0615C93.5166 27.0615 93.3213 27.0957 93.1357 27.1641C92.9502 27.2292 92.7858 27.3301 92.6426 27.4668C92.4993 27.6003 92.387 27.7679 92.3057 27.9697C92.2243 28.1715 92.1836 28.4059 92.1836 28.6729V31.5H91.0312V26.0947H91.9297L92.0859 27.0469H92.1396C92.2471 26.8548 92.3805 26.679 92.54 26.5195C92.6995 26.36 92.8818 26.2331 93.0869 26.1387C93.2952 26.041 93.5231 25.9922 93.7705 25.9922ZM97.4668 25.9922C98.1504 25.9922 98.6663 26.1436 99.0146 26.4463C99.3662 26.749 99.542 27.221 99.542 27.8623V31.5H98.7266L98.5068 30.7334H98.4678C98.3148 30.9287 98.1569 31.0898 97.9941 31.2168C97.8314 31.3438 97.6426 31.4382 97.4277 31.5C97.2161 31.5651 96.9574 31.5977 96.6514 31.5977C96.3291 31.5977 96.041 31.5391 95.7871 31.4219C95.5332 31.3014 95.333 31.1191 95.1865 30.875C95.04 30.6309 94.9668 30.3216 94.9668 29.9473C94.9668 29.3906 95.1735 28.9723 95.5869 28.6924C96.0036 28.4124 96.6318 28.2578 97.4717 28.2285L98.4092 28.1943V27.9111C98.4092 27.5368 98.3213 27.2699 98.1455 27.1104C97.973 26.9508 97.7288 26.8711 97.4131 26.8711C97.1429 26.8711 96.8809 26.9102 96.627 26.9883C96.373 27.0664 96.1257 27.1624 95.8848 27.2764L95.5137 26.4658C95.7773 26.3258 96.0768 26.2119 96.4121 26.124C96.7507 26.0361 97.1022 25.9922 97.4668 25.9922ZM98.4043 28.917L97.7061 28.9414C97.1331 28.9609 96.7311 29.0586 96.5 29.2344C96.2689 29.4102 96.1533 29.651 96.1533 29.957C96.1533 30.224 96.2331 30.4193 96.3926 30.543C96.5521 30.6634 96.762 30.7236 97.0225 30.7236C97.4196 30.7236 97.7484 30.6113 98.0088 30.3867C98.2725 30.1589 98.4043 29.8252 98.4043 29.3857V28.917ZM103.966 25.9922C104.575 25.9922 105.048 26.1501 105.387 26.4658C105.729 26.7783 105.899 27.2812 105.899 27.9746V31.5H104.752V28.1895C104.752 27.7695 104.666 27.4554 104.493 27.2471C104.321 27.0355 104.054 26.9297 103.692 26.9297C103.168 26.9297 102.804 27.0908 102.599 27.4131C102.397 27.7354 102.296 28.2025 102.296 28.8145V31.5H101.148V26.0947H102.042L102.203 26.8271H102.267C102.384 26.6383 102.529 26.4837 102.701 26.3633C102.877 26.2396 103.072 26.1468 103.287 26.085C103.505 26.0231 103.731 25.9922 103.966 25.9922ZM109.518 30.6699C109.667 30.6699 109.815 30.6569 109.962 30.6309C110.108 30.6016 110.242 30.5674 110.362 30.5283V31.3975C110.235 31.4528 110.071 31.5 109.869 31.5391C109.667 31.5781 109.457 31.5977 109.239 31.5977C108.933 31.5977 108.658 31.5472 108.414 31.4463C108.17 31.3421 107.976 31.1647 107.833 30.9141C107.69 30.6634 107.618 30.3167 107.618 29.874V26.9688H106.881V26.4561L107.672 26.0508L108.048 24.8936H108.771V26.0947H110.318V26.9688H108.771V29.8594C108.771 30.1328 108.839 30.3363 108.976 30.4697C109.112 30.6032 109.293 30.6699 109.518 30.6699ZM113.614 25.9922C114.096 25.9922 114.509 26.0915 114.854 26.29C115.2 26.4886 115.465 26.7702 115.65 27.1348C115.836 27.4993 115.929 27.9355 115.929 28.4434V29.0586H112.32C112.333 29.5827 112.473 29.9863 112.74 30.2695C113.01 30.5527 113.388 30.6943 113.873 30.6943C114.218 30.6943 114.527 30.6618 114.801 30.5967C115.077 30.5283 115.362 30.429 115.655 30.2988V31.2314C115.385 31.3584 115.11 31.4512 114.83 31.5098C114.55 31.5684 114.215 31.5977 113.824 31.5977C113.294 31.5977 112.826 31.4951 112.423 31.29C112.022 31.0817 111.708 30.7725 111.48 30.3623C111.256 29.9521 111.144 29.4427 111.144 28.834C111.144 28.2285 111.246 27.7142 111.451 27.291C111.656 26.8678 111.944 26.5456 112.315 26.3242C112.687 26.1029 113.119 25.9922 113.614 25.9922ZM113.614 26.8564C113.253 26.8564 112.96 26.9736 112.735 27.208C112.514 27.4424 112.384 27.7858 112.345 28.2383H114.806C114.802 27.9681 114.757 27.7288 114.669 27.5205C114.584 27.3122 114.454 27.1494 114.278 27.0322C114.106 26.915 113.884 26.8564 113.614 26.8564ZM119.376 25.9922C119.858 25.9922 120.271 26.0915 120.616 26.29C120.961 26.4886 121.227 26.7702 121.412 27.1348C121.598 27.4993 121.69 27.9355 121.69 28.4434V29.0586H118.082C118.095 29.5827 118.235 29.9863 118.502 30.2695C118.772 30.5527 119.15 30.6943 119.635 30.6943C119.98 30.6943 120.289 30.6618 120.562 30.5967C120.839 30.5283 121.124 30.429 121.417 30.2988V31.2314C121.147 31.3584 120.872 31.4512 120.592 31.5098C120.312 31.5684 119.977 31.5977 119.586 31.5977C119.055 31.5977 118.588 31.4951 118.185 31.29C117.784 31.0817 117.47 30.7725 117.242 30.3623C117.018 29.9521 116.905 29.4427 116.905 28.834C116.905 28.2285 117.008 27.7142 117.213 27.291C117.418 26.8678 117.706 26.5456 118.077 26.3242C118.448 26.1029 118.881 25.9922 119.376 25.9922ZM119.376 26.8564C119.015 26.8564 118.722 26.9736 118.497 27.208C118.276 27.4424 118.146 27.7858 118.106 28.2383H120.567C120.564 27.9681 120.519 27.7288 120.431 27.5205C120.346 27.3122 120.216 27.1494 120.04 27.0322C119.868 26.915 119.646 26.8564 119.376 26.8564Z" fill="#868583"/>
<defs>
<clipPath id="clip0_4000_10540">
<rect width="38" height="32" fill="white" transform="translate(0.5 4)"/>
</clipPath>
<clipPath id="clip1_4000_10540">
<rect width="2.51968" height="2.51969" fill="white" transform="translate(18.2422 27.6851)"/>
</clipPath>
<clipPath id="clip2_4000_10540">
<rect width="2.01575" height="2.01575" fill="white" transform="translate(16.2266 26.6772)"/>
</clipPath>
<clipPath id="clip3_4000_10540">
<rect width="2.01575" height="2.01575" fill="white" transform="translate(20.7617 26.6772)"/>
</clipPath>
</defs>
</svg>
