<svg width="160" height="44" viewBox="0 0 160 44" fill="none" xmlns="http://www.w3.org/2000/svg">
<g clip-path="url(#clip0_4261_4519)">
<path d="M9.78125 21.0096C22.9548 18.8367 36.0987 18.8263 49.2129 21.0096L47.0789 30.9335C35.0405 29.4588 23.3519 29.3588 12.0846 30.9335L9.78125 21.0096Z" fill="#7EB530"/>
<path d="M49.3105 24.1348C50.8266 24.275 52.659 24.4444 54.6512 24.6285L51.659 29.4957L53.104 34.6725L43.4336 33.6989L47.599 31.4128L49.3105 24.1348Z" fill="#7EB530"/>
<path d="M9.68453 24.1348C8.16842 24.275 6.336 24.4444 4.34375 24.6285L7.33601 29.4957L5.89093 34.6725L15.5614 33.6989L11.396 31.4128L9.68453 24.1348Z" fill="#7EB530"/>
<path d="M16.582 32.5264C19.6597 36.1159 24.0144 39.0652 29.4529 41.4714C36.8033 37.9533 40.0839 35.402 42.0767 32.5264L36.84 31.9544C34.7922 33.8527 32.5695 35.3988 30.1697 36.5854C29.6235 36.7817 28.9952 36.7369 28.5991 36.5576C28.2018 36.3784 27.2983 35.8075 26.8816 35.5749C26.2414 35.2174 25.3724 34.7245 25.0961 34.4481L21.4474 31.9534L16.582 32.5264Z" fill="#0082D2"/>
<path d="M17.3444 18.1701V9.93996C25.4098 4.55749 33.3953 4.74486 41.3053 10.1366L41.2067 18.1701L45.8168 18.8898V8.20414C44.2276 4.73354 34.4766 1.24749 29.3303 1.74785C22.1416 1.60268 16.9919 4.0005 12.8438 7.96838V18.8661L17.3444 18.1701Z" fill="#0082D2"/>
<path d="M29.4945 32.2366L29.9322 33.1232L30.9109 33.2663L30.2027 33.956L30.3698 34.9305L29.4945 34.4702L28.6192 34.9305L28.7863 33.956L28.0781 33.2663L29.0568 33.1232L29.4945 32.2366Z" fill="#7EB530"/>
<g clip-path="url(#clip1_4261_4519)">
<path d="M26.4378 30.8201L26.7879 31.5294L27.5709 31.6438L27.0043 32.1956L27.138 32.9752L26.4378 32.607L25.7375 32.9752L25.8712 32.1956L25.3047 31.6438L26.0877 31.5294L26.4378 30.8201Z" fill="#7EB530"/>
</g>
<g clip-path="url(#clip2_4261_4519)">
<path d="M32.5589 30.8201L32.909 31.5294L33.692 31.6438L33.1254 32.1956L33.2591 32.9752L32.5589 32.607L31.8586 32.9752L31.9923 32.1956L31.4258 31.6438L32.2087 31.5294L32.5589 30.8201Z" fill="#7EB530"/>
</g>
<path d="M21.3641 12.8381L21.8314 9.46607H22.3372L23.1609 11.0028L23.9799 9.46607H24.4857L24.953 12.8381H24.3123L23.9895 10.3043L24.1581 10.338L23.1609 12.13L22.159 10.3428L22.3276 10.3091L22.0048 12.8381H21.3641ZM26.9673 12.9056C26.6461 12.9056 26.3603 12.8333 26.1098 12.6888C25.8593 12.5427 25.6626 12.3387 25.5197 12.077C25.3768 11.8137 25.3053 11.5054 25.3053 11.1521C25.3053 10.7988 25.3768 10.4913 25.5197 10.2296C25.6626 9.96626 25.8593 9.76233 26.1098 9.61781C26.3603 9.47169 26.6461 9.39862 26.9673 9.39862C27.2884 9.39862 27.5743 9.47169 27.8247 9.61781C28.0752 9.76233 28.2719 9.96626 28.4149 10.2296C28.5578 10.4913 28.6292 10.7988 28.6292 11.1521C28.6292 11.5054 28.5578 11.8137 28.4149 12.077C28.2719 12.3387 28.0752 12.5427 27.8247 12.6888C27.5743 12.8333 27.2884 12.9056 26.9673 12.9056ZM26.9673 12.3082C27.1921 12.3082 27.38 12.2585 27.5309 12.1589C27.6818 12.0593 27.795 11.9229 27.8705 11.7494C27.946 11.5744 27.9837 11.3753 27.9837 11.1521C27.9837 10.9289 27.946 10.7306 27.8705 10.5572C27.795 10.3821 27.6818 10.2449 27.5309 10.1453C27.38 10.0457 27.1921 9.99596 26.9673 9.99596C26.7425 9.99596 26.5546 10.0457 26.4037 10.1453C26.2527 10.2449 26.1395 10.3821 26.064 10.5572C25.9886 10.7306 25.9508 10.9289 25.9508 11.1521C25.9508 11.3753 25.9886 11.5744 26.064 11.7494C26.1395 11.9229 26.2527 12.0593 26.4037 12.1589C26.5546 12.2585 26.7425 12.3082 26.9673 12.3082ZM29.1676 12.8381V9.46607H29.7746L31.215 11.6435V9.46607H31.8316V12.8381H31.3258L29.7842 10.5259V12.8381H29.1676ZM32.5736 12.8381V9.46607H34.7317V10.0634H33.2046V10.7812H34.3897V11.3785H33.2046V12.2408H34.7799V12.8381H32.5736ZM36.0871 12.8381V11.4749L34.902 9.46607H35.5764L36.5399 11.1762H36.2509L37.2143 9.46607H37.8887L36.7037 11.4749V12.8381H36.0871ZM23.9058 17.8381V14.4661H25.1776C25.5035 14.4661 25.7452 14.5359 25.9026 14.6756C26.0615 14.8137 26.141 15.0152 26.141 15.2802C26.141 15.4777 26.0961 15.6431 26.0061 15.7764C25.9178 15.908 25.7846 16.0044 25.6063 16.0654V15.9498C25.8761 16.0076 26.0776 16.1136 26.2109 16.2677C26.3442 16.4219 26.4108 16.6258 26.4108 16.8795C26.4108 17.183 26.3128 17.419 26.1169 17.5876C25.921 17.7546 25.6529 17.8381 25.3125 17.8381H23.9058ZM24.5224 17.289H25.2209C25.3895 17.289 25.5236 17.2544 25.6232 17.1854C25.7243 17.1164 25.7749 16.9919 25.7749 16.8121C25.7749 16.629 25.7219 16.5046 25.6159 16.4387C25.51 16.3729 25.3783 16.34 25.2209 16.34H24.5224V17.289ZM24.5224 15.7908H25.0861C25.2354 15.7908 25.347 15.7603 25.4209 15.6993C25.4963 15.6383 25.5341 15.5403 25.5341 15.4054C25.5341 15.2657 25.4963 15.1662 25.4209 15.1068C25.347 15.0457 25.2354 15.0152 25.0861 15.0152H24.5224V15.7908ZM28.7615 17.0385H27.35V16.4989H28.7615V17.0385ZM27.9763 15.0682H28.1353L27.1622 17.8381H26.5648L27.7643 14.4661H28.3472L29.5467 17.8381H28.9494L27.9763 15.0682ZM31.4074 17.9056C31.0654 17.9056 30.7643 17.8333 30.5042 17.6888C30.244 17.5427 30.0409 17.3387 29.8948 17.077C29.7503 16.8137 29.678 16.5054 29.678 16.1521C29.678 15.7988 29.7527 15.4913 29.902 15.2296C30.053 14.9663 30.2601 14.7623 30.5234 14.6178C30.7868 14.4717 31.0879 14.3986 31.4267 14.3986C31.6049 14.3986 31.7679 14.4179 31.9156 14.4564C32.0633 14.4934 32.191 14.5399 32.2986 14.5961L32.2311 15.1838C32.1091 15.1276 31.9831 15.0819 31.853 15.0465C31.7245 15.0096 31.5808 14.9911 31.4219 14.9911C31.1858 14.9911 30.9883 15.0409 30.8293 15.1405C30.672 15.24 30.5531 15.3773 30.4729 15.5524C30.3926 15.7274 30.3524 15.9273 30.3524 16.1521C30.3524 16.3769 30.3918 16.5768 30.4704 16.7518C30.5491 16.9269 30.6663 17.0642 30.8221 17.1637C30.9795 17.2633 31.1746 17.3131 31.4074 17.3131C31.5696 17.3131 31.7149 17.2954 31.8434 17.2601C31.9718 17.2247 32.1011 17.1782 32.2311 17.1204L32.2986 17.7081C32.1717 17.7675 32.032 17.8149 31.8795 17.8502C31.7286 17.8871 31.5712 17.9056 31.4074 17.9056ZM34.7283 17.8381L33.4806 16.0558L34.7283 14.4661H35.4509L34.1936 16.0558L35.4509 17.8381H34.7283ZM32.8158 17.8381V14.4661H33.4324V17.8381H32.8158Z" fill="#0082D2"/>
<path d="M17.5299 26.8228C17.1734 26.8228 16.8683 26.7506 16.6146 26.606C16.3609 26.4599 16.1666 26.2552 16.0317 25.9918C15.8968 25.7285 15.8294 25.4194 15.8294 25.0645C15.8294 24.7129 15.904 24.4062 16.0534 24.1444C16.2043 23.8811 16.4123 23.6772 16.6772 23.5326C16.9422 23.3881 17.2472 23.3159 17.5925 23.3159C17.7707 23.3159 17.9409 23.3343 18.1031 23.3713C18.2669 23.4082 18.4066 23.4556 18.5222 23.5134L18.4548 24.1011C18.3343 24.0449 18.2011 23.9991 18.0549 23.9638C17.9104 23.9268 17.7563 23.9084 17.5925 23.9084C17.342 23.9084 17.1364 23.959 16.9759 24.0601C16.8153 24.1597 16.6965 24.2962 16.6194 24.4696C16.5423 24.6414 16.5038 24.8365 16.5038 25.0549C16.5038 25.2845 16.5423 25.4876 16.6194 25.6643C16.6981 25.8409 16.8153 25.9798 16.9711 26.081C17.1268 26.1805 17.3211 26.2303 17.5539 26.2303C17.6246 26.2303 17.6985 26.2255 17.7755 26.2158C17.8542 26.2062 17.9345 26.1934 18.0164 26.1773V25.5751H17.5539V25.0645H18.633V26.5675C18.5158 26.6365 18.36 26.6968 18.1657 26.7481C17.973 26.7979 17.7611 26.8228 17.5299 26.8228ZM20.5891 26.8228C20.2728 26.8228 20.011 26.7602 19.8039 26.6349C19.5984 26.5097 19.445 26.3339 19.3438 26.1075C19.2427 25.881 19.1921 25.6153 19.1921 25.3102V23.3833H19.8087V25.1512C19.8087 25.3118 19.8192 25.4587 19.84 25.592C19.8609 25.7237 19.8986 25.8377 19.9532 25.934C20.0094 26.0288 20.0889 26.1018 20.1917 26.1532C20.2945 26.2046 20.4269 26.2303 20.5891 26.2303C20.7513 26.2303 20.8838 26.2046 20.9865 26.1532C21.0893 26.1018 21.168 26.0288 21.2226 25.934C21.2788 25.8377 21.3173 25.7237 21.3382 25.592C21.3591 25.4587 21.3695 25.3118 21.3695 25.1512V23.3833H21.9861V25.3102C21.9861 25.6153 21.9355 25.881 21.8344 26.1075C21.7332 26.3339 21.579 26.5097 21.3719 26.6349C21.1664 26.7602 20.9054 26.8228 20.5891 26.8228ZM24.4485 25.9557H23.0371V25.4162H24.4485V25.9557ZM23.6633 23.9855H23.8223L22.8492 26.7554H22.2519L23.4514 23.3833H24.0343L25.2338 26.7554H24.6364L23.6633 23.9855ZM25.6191 26.7554V23.3833H26.8523C27.0852 23.3833 27.2883 23.4202 27.4617 23.4941C27.6368 23.568 27.7724 23.6804 27.8688 23.8313C27.9651 23.9822 28.0133 24.1733 28.0133 24.4046C28.0133 24.6518 27.9603 24.8485 27.8543 24.9947C27.75 25.1392 27.6119 25.254 27.4401 25.3391L28.2012 26.7554H27.5123L26.862 25.5029C26.8572 25.5029 26.8532 25.5029 26.8499 25.5029C26.8467 25.5029 26.8427 25.5029 26.8379 25.5029H26.2357V26.7554H25.6191ZM26.2357 24.9874H26.6886C26.9423 24.9874 27.1189 24.9361 27.2185 24.8333C27.318 24.7289 27.3678 24.5972 27.3678 24.4383C27.3678 24.2697 27.3188 24.138 27.2209 24.0433C27.1229 23.9469 26.9535 23.8987 26.7126 23.8987H26.2357V24.9874ZM30.4748 25.9557H29.0633V25.4162H30.4748V25.9557ZM29.6896 23.9855H29.8486L28.8755 26.7554H28.2781L29.4776 23.3833H30.0605L31.26 26.7554H30.6627L29.6896 23.9855ZM31.6454 26.7554V23.3833H32.2524L33.6927 25.5607V23.3833H34.3093V26.7554H33.8035L32.262 24.4431V26.7554H31.6454ZM35.7065 26.7554V23.9806H34.7527V23.3833H37.2769V23.9806H36.3231V26.7554H35.7065ZM37.7187 26.7554V23.3833H39.8768V23.9806H38.3497V24.6984H39.5348V25.2957H38.3497V26.158H39.925V26.7554H37.7187ZM40.4566 26.7554V23.3833H42.6147V23.9806H41.0877V24.6984H42.2727V25.2957H41.0877V26.158H42.6629V26.7554H40.4566Z" fill="white"/>
</g>
<path d="M73.0674 20.5854H70.5322V10.4771C70.5322 10.1405 70.5358 9.80387 70.543 9.46729C70.5501 9.1307 70.5573 8.80127 70.5645 8.479C70.5788 8.15674 70.5967 7.8488 70.6182 7.55518C70.4678 7.71989 70.2816 7.89893 70.0596 8.09229C69.8447 8.28564 69.6156 8.48617 69.3721 8.69385L67.5674 10.1333L66.2998 8.53271L70.9619 4.88037H73.0674V20.5854ZM88.8691 12.7222C88.8691 13.9897 88.7689 15.1248 88.5684 16.1274C88.375 17.1229 88.0671 17.9679 87.6445 18.6626C87.222 19.3573 86.6706 19.8872 85.9902 20.2524C85.3099 20.6177 84.4863 20.8003 83.5195 20.8003C82.3092 20.8003 81.3102 20.4816 80.5225 19.8442C79.7347 19.1997 79.151 18.2759 78.7715 17.0728C78.3919 15.8625 78.2021 14.4123 78.2021 12.7222C78.2021 11.0321 78.374 9.58545 78.7178 8.38232C79.0687 7.17204 79.6344 6.24463 80.415 5.6001C81.1956 4.95557 82.2305 4.6333 83.5195 4.6333C84.737 4.6333 85.7396 4.95557 86.5273 5.6001C87.3223 6.23747 87.9095 7.1613 88.2891 8.37158C88.6758 9.57471 88.8691 11.0249 88.8691 12.7222ZM80.748 12.7222C80.748 14.047 80.834 15.1535 81.0059 16.0415C81.1849 16.9295 81.4785 17.5955 81.8867 18.0396C82.2949 18.4764 82.8392 18.6948 83.5195 18.6948C84.1999 18.6948 84.7441 18.4764 85.1523 18.0396C85.5605 17.6027 85.8542 16.9403 86.0332 16.0522C86.2194 15.1642 86.3125 14.0542 86.3125 12.7222C86.3125 11.4045 86.223 10.3016 86.0439 9.41357C85.8649 8.52555 85.5713 7.85954 85.1631 7.41553C84.7549 6.96436 84.207 6.73877 83.5195 6.73877C82.832 6.73877 82.2842 6.96436 81.876 7.41553C81.4749 7.85954 81.1849 8.52555 81.0059 9.41357C80.834 10.3016 80.748 11.4045 80.748 12.7222ZM101.459 12.7222C101.459 13.9897 101.359 15.1248 101.158 16.1274C100.965 17.1229 100.657 17.9679 100.234 18.6626C99.8118 19.3573 99.2604 19.8872 98.5801 20.2524C97.8997 20.6177 97.0762 20.8003 96.1094 20.8003C94.8991 20.8003 93.9001 20.4816 93.1123 19.8442C92.3245 19.1997 91.7409 18.2759 91.3613 17.0728C90.9818 15.8625 90.792 14.4123 90.792 12.7222C90.792 11.0321 90.9639 9.58545 91.3076 8.38232C91.6585 7.17204 92.2243 6.24463 93.0049 5.6001C93.7855 4.95557 94.8203 4.6333 96.1094 4.6333C97.3268 4.6333 98.3294 4.95557 99.1172 5.6001C99.9121 6.23747 100.499 7.1613 100.879 8.37158C101.266 9.57471 101.459 11.0249 101.459 12.7222ZM93.3379 12.7222C93.3379 14.047 93.4238 15.1535 93.5957 16.0415C93.7747 16.9295 94.0684 17.5955 94.4766 18.0396C94.8848 18.4764 95.429 18.6948 96.1094 18.6948C96.7897 18.6948 97.334 18.4764 97.7422 18.0396C98.1504 17.6027 98.444 16.9403 98.623 16.0522C98.8092 15.1642 98.9023 14.0542 98.9023 12.7222C98.9023 11.4045 98.8128 10.3016 98.6338 9.41357C98.4548 8.52555 98.1611 7.85954 97.7529 7.41553C97.3447 6.96436 96.7969 6.73877 96.1094 6.73877C95.4219 6.73877 94.874 6.96436 94.4658 7.41553C94.0648 7.85954 93.7747 8.52555 93.5957 9.41357C93.4238 10.3016 93.3379 11.4045 93.3379 12.7222ZM106.766 4.65479C107.919 4.65479 108.792 5.08447 109.387 5.94385C109.981 6.79606 110.278 8.00277 110.278 9.56396C110.278 11.118 109.992 12.3319 109.419 13.2056C108.853 14.0793 107.969 14.5161 106.766 14.5161C105.641 14.5161 104.785 14.0793 104.198 13.2056C103.611 12.3319 103.317 11.118 103.317 9.56396C103.317 8.00277 103.593 6.79606 104.145 5.94385C104.703 5.08447 105.577 4.65479 106.766 4.65479ZM106.776 6.4165C106.311 6.4165 105.967 6.6779 105.745 7.20068C105.53 7.72347 105.423 8.51481 105.423 9.57471C105.423 10.6274 105.53 11.4224 105.745 11.9595C105.967 12.4894 106.311 12.7544 106.776 12.7544C107.249 12.7544 107.6 12.4894 107.829 11.9595C108.065 11.4295 108.184 10.6346 108.184 9.57471C108.184 8.52197 108.069 7.73421 107.84 7.21143C107.611 6.68148 107.256 6.4165 106.776 6.4165ZM117.314 4.88037L108.603 20.5854H106.529L115.241 4.88037H117.314ZM117.024 10.939C118.177 10.939 119.051 11.3687 119.646 12.228C120.247 13.0802 120.548 14.2869 120.548 15.8481C120.548 17.395 120.261 18.6053 119.688 19.479C119.123 20.3527 118.235 20.7896 117.024 20.7896C115.9 20.7896 115.044 20.3527 114.457 19.479C113.87 18.6053 113.576 17.395 113.576 15.8481C113.576 14.2869 113.852 13.0802 114.403 12.228C114.962 11.3687 115.836 10.939 117.024 10.939ZM117.035 12.7007C116.57 12.7007 116.226 12.9621 116.004 13.4849C115.789 14.0076 115.682 14.799 115.682 15.8589C115.682 16.9116 115.789 17.7065 116.004 18.2437C116.226 18.7736 116.57 19.0386 117.035 19.0386C117.515 19.0386 117.869 18.7772 118.099 18.2544C118.328 17.7244 118.442 16.9259 118.442 15.8589C118.442 14.8062 118.328 14.0184 118.099 13.4956C117.869 12.9657 117.515 12.7007 117.035 12.7007Z" fill="#868583"/>
<path d="M68.2715 28.019C69.377 28.019 70.1836 28.2456 70.6914 28.6987C71.1992 29.1519 71.4531 29.7866 71.4531 30.603C71.4531 30.9741 71.3945 31.3276 71.2773 31.6636C71.1641 31.9956 70.9766 32.2905 70.7148 32.5483C70.4531 32.8022 70.1074 33.0034 69.6777 33.1519C69.252 33.3003 68.7266 33.3745 68.1016 33.3745H67.1875V36.5854H65.7812V28.019H68.2715ZM68.1777 29.1851H67.1875V32.2026H67.9551C68.3965 32.2026 68.7715 32.1519 69.0801 32.0503C69.3887 31.9448 69.623 31.7788 69.7832 31.5522C69.9434 31.3257 70.0234 31.0269 70.0234 30.6558C70.0234 30.1597 69.873 29.7905 69.5723 29.5483C69.2754 29.3062 68.8105 29.1851 68.1777 29.1851ZM75.5664 29.9761C76.3867 29.9761 77.0059 30.1577 77.4238 30.521C77.8457 30.8843 78.0566 31.4507 78.0566 32.2202V36.5854H77.0781L76.8145 35.6655H76.7676C76.584 35.8999 76.3945 36.0933 76.1992 36.2456C76.0039 36.3979 75.7773 36.5112 75.5195 36.5854C75.2656 36.6636 74.9551 36.7026 74.5879 36.7026C74.2012 36.7026 73.8555 36.6323 73.5508 36.4917C73.2461 36.3472 73.0059 36.1284 72.8301 35.8354C72.6543 35.5425 72.5664 35.1714 72.5664 34.7222C72.5664 34.0542 72.8145 33.5522 73.3105 33.2163C73.8105 32.8804 74.5645 32.6948 75.5723 32.6597L76.6973 32.6187V32.2788C76.6973 31.8296 76.5918 31.5093 76.3809 31.3179C76.1738 31.1265 75.8809 31.0308 75.502 31.0308C75.1777 31.0308 74.8633 31.0776 74.5586 31.1714C74.2539 31.2651 73.957 31.3804 73.668 31.5171L73.2227 30.5444C73.5391 30.3765 73.8984 30.2397 74.3008 30.1343C74.707 30.0288 75.1289 29.9761 75.5664 29.9761ZM76.6914 33.4858L75.8535 33.5151C75.166 33.5386 74.6836 33.6558 74.4062 33.8667C74.1289 34.0776 73.9902 34.3667 73.9902 34.7339C73.9902 35.0542 74.0859 35.2886 74.2773 35.437C74.4688 35.5815 74.7207 35.6538 75.0332 35.6538C75.5098 35.6538 75.9043 35.519 76.2168 35.2495C76.5332 34.9761 76.6914 34.5757 76.6914 34.0483V33.4858ZM84.3438 34.7339C84.3438 35.1597 84.2402 35.519 84.0332 35.812C83.8262 36.105 83.5234 36.3276 83.125 36.48C82.7305 36.6284 82.2461 36.7026 81.6719 36.7026C81.2188 36.7026 80.8281 36.6694 80.5 36.603C80.1758 36.5405 79.8691 36.4429 79.5801 36.3101V35.1206C79.8887 35.2651 80.2344 35.3901 80.6172 35.4956C81.0039 35.6011 81.3691 35.6538 81.7129 35.6538C82.166 35.6538 82.4922 35.5835 82.6914 35.4429C82.8906 35.2983 82.9902 35.1069 82.9902 34.8687C82.9902 34.728 82.9492 34.603 82.8672 34.4937C82.7891 34.3804 82.6406 34.2651 82.4219 34.1479C82.207 34.0269 81.8906 33.8823 81.4727 33.7144C81.0625 33.5503 80.7168 33.3862 80.4355 33.2222C80.1543 33.0581 79.9414 32.8608 79.7969 32.6304C79.6523 32.396 79.5801 32.0972 79.5801 31.7339C79.5801 31.1597 79.8066 30.7241 80.2598 30.4272C80.7168 30.1265 81.3203 29.9761 82.0703 29.9761C82.4688 29.9761 82.8438 30.0171 83.1953 30.0991C83.5508 30.1772 83.8984 30.2925 84.2383 30.4448L83.8047 31.4819C83.5117 31.353 83.2168 31.2476 82.9199 31.1655C82.627 31.0796 82.3281 31.0366 82.0234 31.0366C81.668 31.0366 81.3965 31.0913 81.209 31.2007C81.0254 31.3101 80.9336 31.4663 80.9336 31.6694C80.9336 31.8218 80.9785 31.9507 81.0684 32.0562C81.1582 32.1616 81.3125 32.2671 81.5312 32.3726C81.7539 32.478 82.0625 32.6089 82.457 32.7651C82.8438 32.9136 83.1777 33.0698 83.459 33.2339C83.7441 33.394 83.9629 33.5913 84.1152 33.8257C84.2676 34.0601 84.3438 34.3628 84.3438 34.7339ZM90.1914 34.7339C90.1914 35.1597 90.0879 35.519 89.8809 35.812C89.6738 36.105 89.3711 36.3276 88.9727 36.48C88.5781 36.6284 88.0938 36.7026 87.5195 36.7026C87.0664 36.7026 86.6758 36.6694 86.3477 36.603C86.0234 36.5405 85.7168 36.4429 85.4277 36.3101V35.1206C85.7363 35.2651 86.082 35.3901 86.4648 35.4956C86.8516 35.6011 87.2168 35.6538 87.5605 35.6538C88.0137 35.6538 88.3398 35.5835 88.5391 35.4429C88.7383 35.2983 88.8379 35.1069 88.8379 34.8687C88.8379 34.728 88.7969 34.603 88.7148 34.4937C88.6367 34.3804 88.4883 34.2651 88.2695 34.1479C88.0547 34.0269 87.7383 33.8823 87.3203 33.7144C86.9102 33.5503 86.5645 33.3862 86.2832 33.2222C86.002 33.0581 85.7891 32.8608 85.6445 32.6304C85.5 32.396 85.4277 32.0972 85.4277 31.7339C85.4277 31.1597 85.6543 30.7241 86.1074 30.4272C86.5645 30.1265 87.168 29.9761 87.918 29.9761C88.3164 29.9761 88.6914 30.0171 89.043 30.0991C89.3984 30.1772 89.7461 30.2925 90.0859 30.4448L89.6523 31.4819C89.3594 31.353 89.0645 31.2476 88.7676 31.1655C88.4746 31.0796 88.1758 31.0366 87.8711 31.0366C87.5156 31.0366 87.2441 31.0913 87.0566 31.2007C86.873 31.3101 86.7812 31.4663 86.7812 31.6694C86.7812 31.8218 86.8262 31.9507 86.916 32.0562C87.0059 32.1616 87.1602 32.2671 87.3789 32.3726C87.6016 32.478 87.9102 32.6089 88.3047 32.7651C88.6914 32.9136 89.0254 33.0698 89.3066 33.2339C89.5918 33.394 89.8105 33.5913 89.9629 33.8257C90.1152 34.0601 90.1914 34.3628 90.1914 34.7339ZM98.3945 31.9331H101.594V36.2339C101.145 36.3823 100.68 36.4976 100.199 36.5796C99.7188 36.6616 99.1797 36.7026 98.582 36.7026C97.7109 36.7026 96.9727 36.5308 96.3672 36.187C95.7656 35.8394 95.3086 35.3374 94.9961 34.6812C94.6836 34.021 94.5273 33.2261 94.5273 32.2964C94.5273 31.4019 94.7012 30.6265 95.0488 29.9702C95.3965 29.3101 95.9023 28.8003 96.5664 28.4409C97.2305 28.0776 98.0352 27.896 98.9805 27.896C99.4453 27.896 99.8945 27.9429 100.328 28.0366C100.766 28.1265 101.166 28.2515 101.529 28.4116L101.037 29.5718C100.748 29.4351 100.424 29.3198 100.064 29.2261C99.7051 29.1323 99.332 29.0854 98.9453 29.0854C98.332 29.0854 97.8027 29.2183 97.3574 29.4839C96.916 29.7495 96.5762 30.1245 96.3379 30.6089C96.0996 31.0894 95.9805 31.6577 95.9805 32.314C95.9805 32.9507 96.0762 33.5093 96.2676 33.9897C96.459 34.4702 96.7578 34.8452 97.1641 35.1147C97.5742 35.3804 98.1035 35.5132 98.752 35.5132C99.0762 35.5132 99.3516 35.4956 99.5781 35.4604C99.8047 35.4253 100.014 35.3862 100.205 35.3433V33.1343H98.3945V31.9331ZM109.158 30.0991V36.5854H108.074L107.887 35.7124H107.811C107.674 35.9351 107.5 36.1206 107.289 36.269C107.078 36.4136 106.844 36.521 106.586 36.5913C106.328 36.6655 106.057 36.7026 105.771 36.7026C105.283 36.7026 104.865 36.6206 104.518 36.4565C104.174 36.2886 103.91 36.0308 103.727 35.6831C103.543 35.3354 103.451 34.8862 103.451 34.3354V30.0991H104.834V34.0776C104.834 34.5815 104.936 34.9585 105.139 35.2085C105.346 35.4585 105.666 35.5835 106.1 35.5835C106.518 35.5835 106.85 35.4976 107.096 35.3257C107.342 35.1538 107.516 34.8999 107.617 34.564C107.723 34.228 107.775 33.8159 107.775 33.3276V30.0991H109.158ZM113.676 29.9761C114.496 29.9761 115.115 30.1577 115.533 30.521C115.955 30.8843 116.166 31.4507 116.166 32.2202V36.5854H115.188L114.924 35.6655H114.877C114.693 35.8999 114.504 36.0933 114.309 36.2456C114.113 36.3979 113.887 36.5112 113.629 36.5854C113.375 36.6636 113.064 36.7026 112.697 36.7026C112.311 36.7026 111.965 36.6323 111.66 36.4917C111.355 36.3472 111.115 36.1284 110.939 35.8354C110.764 35.5425 110.676 35.1714 110.676 34.7222C110.676 34.0542 110.924 33.5522 111.42 33.2163C111.92 32.8804 112.674 32.6948 113.682 32.6597L114.807 32.6187V32.2788C114.807 31.8296 114.701 31.5093 114.49 31.3179C114.283 31.1265 113.99 31.0308 113.611 31.0308C113.287 31.0308 112.973 31.0776 112.668 31.1714C112.363 31.2651 112.066 31.3804 111.777 31.5171L111.332 30.5444C111.648 30.3765 112.008 30.2397 112.41 30.1343C112.816 30.0288 113.238 29.9761 113.676 29.9761ZM114.801 33.4858L113.963 33.5151C113.275 33.5386 112.793 33.6558 112.516 33.8667C112.238 34.0776 112.1 34.3667 112.1 34.7339C112.1 35.0542 112.195 35.2886 112.387 35.437C112.578 35.5815 112.83 35.6538 113.143 35.6538C113.619 35.6538 114.014 35.519 114.326 35.2495C114.643 34.9761 114.801 34.5757 114.801 34.0483V33.4858ZM121.381 29.9761C121.49 29.9761 121.609 29.9819 121.738 29.9937C121.867 30.0054 121.979 30.021 122.072 30.0405L121.943 31.3296C121.861 31.3062 121.76 31.2886 121.639 31.2769C121.521 31.2651 121.416 31.2593 121.322 31.2593C121.076 31.2593 120.842 31.3003 120.619 31.3823C120.396 31.4604 120.199 31.5815 120.027 31.7456C119.855 31.9058 119.721 32.1069 119.623 32.3491C119.525 32.5913 119.477 32.8726 119.477 33.1929V36.5854H118.094V30.0991H119.172L119.359 31.2417H119.424C119.553 31.0112 119.713 30.8003 119.904 30.6089C120.096 30.4175 120.314 30.2651 120.561 30.1519C120.811 30.0347 121.084 29.9761 121.381 29.9761ZM125.816 29.9761C126.637 29.9761 127.256 30.1577 127.674 30.521C128.096 30.8843 128.307 31.4507 128.307 32.2202V36.5854H127.328L127.064 35.6655H127.018C126.834 35.8999 126.645 36.0933 126.449 36.2456C126.254 36.3979 126.027 36.5112 125.77 36.5854C125.516 36.6636 125.205 36.7026 124.838 36.7026C124.451 36.7026 124.105 36.6323 123.801 36.4917C123.496 36.3472 123.256 36.1284 123.08 35.8354C122.904 35.5425 122.816 35.1714 122.816 34.7222C122.816 34.0542 123.064 33.5522 123.561 33.2163C124.061 32.8804 124.814 32.6948 125.822 32.6597L126.947 32.6187V32.2788C126.947 31.8296 126.842 31.5093 126.631 31.3179C126.424 31.1265 126.131 31.0308 125.752 31.0308C125.428 31.0308 125.113 31.0776 124.809 31.1714C124.504 31.2651 124.207 31.3804 123.918 31.5171L123.473 30.5444C123.789 30.3765 124.148 30.2397 124.551 30.1343C124.957 30.0288 125.379 29.9761 125.816 29.9761ZM126.941 33.4858L126.104 33.5151C125.416 33.5386 124.934 33.6558 124.656 33.8667C124.379 34.0776 124.24 34.3667 124.24 34.7339C124.24 35.0542 124.336 35.2886 124.527 35.437C124.719 35.5815 124.971 35.6538 125.283 35.6538C125.76 35.6538 126.154 35.519 126.467 35.2495C126.783 34.9761 126.941 34.5757 126.941 34.0483V33.4858ZM133.615 29.9761C134.346 29.9761 134.914 30.1655 135.32 30.5444C135.73 30.9194 135.936 31.5229 135.936 32.355V36.5854H134.559V32.6128C134.559 32.1089 134.455 31.7319 134.248 31.4819C134.041 31.228 133.721 31.1011 133.287 31.1011C132.658 31.1011 132.221 31.2944 131.975 31.6812C131.732 32.0679 131.611 32.6284 131.611 33.3628V36.5854H130.234V30.0991H131.307L131.5 30.978H131.576C131.717 30.7515 131.891 30.5659 132.098 30.4214C132.309 30.2729 132.543 30.1616 132.801 30.0874C133.062 30.0132 133.334 29.9761 133.615 29.9761ZM140.277 35.5894C140.457 35.5894 140.635 35.5737 140.811 35.5425C140.986 35.5073 141.146 35.4663 141.291 35.4194V36.4624C141.139 36.5288 140.941 36.5854 140.699 36.6323C140.457 36.6792 140.205 36.7026 139.943 36.7026C139.576 36.7026 139.246 36.6421 138.953 36.521C138.66 36.396 138.428 36.1831 138.256 35.8823C138.084 35.5815 137.998 35.1655 137.998 34.6343V31.1479H137.113V30.5327L138.062 30.0464L138.514 28.6577H139.381V30.0991H141.238V31.1479H139.381V34.6167C139.381 34.9448 139.463 35.189 139.627 35.3491C139.791 35.5093 140.008 35.5894 140.277 35.5894ZM145.193 29.9761C145.771 29.9761 146.268 30.0952 146.682 30.3335C147.096 30.5718 147.414 30.9097 147.637 31.3472C147.859 31.7847 147.971 32.3081 147.971 32.9175V33.6558H143.641C143.656 34.2847 143.824 34.769 144.145 35.1089C144.469 35.4487 144.922 35.6187 145.504 35.6187C145.918 35.6187 146.289 35.5796 146.617 35.5015C146.949 35.4194 147.291 35.3003 147.643 35.144V36.2632C147.318 36.4155 146.988 36.5269 146.652 36.5972C146.316 36.6675 145.914 36.7026 145.445 36.7026C144.809 36.7026 144.248 36.5796 143.764 36.3335C143.283 36.0835 142.906 35.7124 142.633 35.2202C142.363 34.728 142.229 34.1167 142.229 33.3862C142.229 32.6597 142.352 32.0425 142.598 31.5347C142.844 31.0269 143.189 30.6401 143.635 30.3745C144.08 30.1089 144.6 29.9761 145.193 29.9761ZM145.193 31.0132C144.76 31.0132 144.408 31.1538 144.139 31.4351C143.873 31.7163 143.717 32.1284 143.67 32.6714H146.623C146.619 32.3472 146.564 32.0601 146.459 31.8101C146.357 31.5601 146.201 31.3647 145.99 31.2241C145.783 31.0835 145.518 31.0132 145.193 31.0132ZM152.107 29.9761C152.686 29.9761 153.182 30.0952 153.596 30.3335C154.01 30.5718 154.328 30.9097 154.551 31.3472C154.773 31.7847 154.885 32.3081 154.885 32.9175V33.6558H150.555C150.57 34.2847 150.738 34.769 151.059 35.1089C151.383 35.4487 151.836 35.6187 152.418 35.6187C152.832 35.6187 153.203 35.5796 153.531 35.5015C153.863 35.4194 154.205 35.3003 154.557 35.144V36.2632C154.232 36.4155 153.902 36.5269 153.566 36.5972C153.23 36.6675 152.828 36.7026 152.359 36.7026C151.723 36.7026 151.162 36.5796 150.678 36.3335C150.197 36.0835 149.82 35.7124 149.547 35.2202C149.277 34.728 149.143 34.1167 149.143 33.3862C149.143 32.6597 149.266 32.0425 149.512 31.5347C149.758 31.0269 150.104 30.6401 150.549 30.3745C150.994 30.1089 151.514 29.9761 152.107 29.9761ZM152.107 31.0132C151.674 31.0132 151.322 31.1538 151.053 31.4351C150.787 31.7163 150.631 32.1284 150.584 32.6714H153.537C153.533 32.3472 153.479 32.0601 153.373 31.8101C153.271 31.5601 153.115 31.3647 152.904 31.2241C152.697 31.0835 152.432 31.0132 152.107 31.0132Z" fill="#868583"/>
<defs>
<clipPath id="clip0_4261_4519">
<rect width="50.3094" height="43.1709" fill="white" transform="translate(4.34375)"/>
</clipPath>
<clipPath id="clip1_4261_4519">
<rect width="2.71943" height="2.71943" fill="white" transform="translate(25.0781 30.5935)"/>
</clipPath>
<clipPath id="clip2_4261_4519">
<rect width="2.71943" height="2.71943" fill="white" transform="translate(31.1992 30.5935)"/>
</clipPath>
</defs>
</svg>
