<svg width="40" height="41" viewBox="0 0 40 41" fill="none" xmlns="http://www.w3.org/2000/svg">
<rect y="0.170898" width="40" height="40" rx="8" fill="#0082D2" fill-opacity="0.1"/>
<g clip-path="url(#clip0_3922_9313)">
<path d="M12.395 24.2319C12.594 24.1909 12.797 24.1709 13 24.1709H14V8.2709C11.672 8.7459 10 10.7949 10 13.1709V25.1959C10.699 24.6689 11.525 24.3359 12.395 24.2319ZM30 26.1709H13C11.343 26.1709 10 27.5139 10 29.1709C10 30.8279 11.343 32.1709 13 32.1709H25C27.761 32.1709 30 29.9319 30 27.1709V26.1709ZM30 13.1709V24.1709H16V8.1709H21V18.5189C21 19.1419 21.791 19.4089 22.169 18.9139L23.5 17.1709L24.831 18.9139C25.209 19.4089 26 19.1419 26 18.5189V8.2719C28.282 8.7349 30 10.7519 30 13.1709Z" fill="#0082D2"/>
</g>
<defs>
<clipPath id="clip0_3922_9313">
<rect width="24" height="24" fill="white" transform="translate(8 8.1709)"/>
</clipPath>
</defs>
</svg>
