<svg width="40" height="41" viewBox="0 0 40 41" fill="none" xmlns="http://www.w3.org/2000/svg">
<rect y="0.170898" width="40" height="40" rx="8" fill="#0082D2" fill-opacity="0.1"/>
<g clip-path="url(#clip0_3922_9310)">
<path d="M16 20.1709C16 20.7229 15.553 21.1709 15 21.1709H13V23.1709C13 23.7229 12.553 24.1709 12 24.1709C11.447 24.1709 11 23.7229 11 23.1709V21.1709H9C8.447 21.1709 8 20.7229 8 20.1709C8 19.6189 8.447 19.1709 9 19.1709H11V17.1709C11 16.6189 11.447 16.1709 12 16.1709C12.553 16.1709 13 16.6189 13 17.1709V19.1709H15C15.553 19.1709 16 19.6189 16 20.1709ZM11 29.1709C11 30.8279 12.343 32.1709 14 32.1709H16V27.1709H11V29.1709ZM11 11.1709V13.1709H16V8.1709H14C12.343 8.1709 11 9.5139 11 11.1709ZM18 25.1709H23V15.1709H18V25.1709ZM18 32.1709H20C21.657 32.1709 23 30.8279 23 29.1709V27.1709H18V32.1709ZM28.941 14.2619L23.34 15.3259L25.509 26.1849L31.11 25.1209L28.941 14.2619ZM31.965 29.4789L31.486 27.0859L25.885 28.1499L26.365 30.5459C26.572 31.6299 27.619 32.3419 28.703 32.1359L30.375 31.8189C31.461 31.6129 32.172 30.5649 31.965 29.4789ZM28.566 12.2979L28.089 9.7979C27.883 8.7129 26.836 8.0009 25.751 8.2069L24.079 8.5239C23.395 8.6539 22.86 9.1189 22.609 9.7169C22.096 8.7989 21.127 8.1709 20 8.1709H18V13.1709H23.967L28.566 12.2979Z" fill="#0082D2"/>
</g>
<defs>
<clipPath id="clip0_3922_9310">
<rect width="24" height="24" fill="white" transform="translate(8 8.1709)"/>
</clipPath>
</defs>
</svg>
