<svg width="40" height="41" viewBox="0 0 40 41" fill="none" xmlns="http://www.w3.org/2000/svg">
<rect y="0.170898" width="40" height="40" rx="8" fill="#0082D2" fill-opacity="0.1"/>
<g clip-path="url(#clip0_3922_9319)">
<path d="M25 29.1709C25.2 29.1709 25.392 29.1579 25.592 29.1409C24.803 30.9769 22.998 32.1679 21 32.1709H15C12.24 32.1679 10.003 29.9309 10 27.1709V17.1709C10.003 15.1729 11.194 13.3679 13.03 12.5789C13.013 12.7709 13 12.9709 13 13.1709V22.1709C13.004 26.0349 16.136 29.1669 20 29.1709H25ZM25 12.1709C25 12.7229 25.448 13.1709 26 13.1709H29.966C29.892 12.5219 29.607 11.9149 29.155 11.4429L26.871 9.0839C26.371 8.5779 25.709 8.2639 25 8.1999V12.1709ZM30 15.1709V22.1709C29.997 24.9309 27.76 27.1679 25 27.1709H20C17.24 27.1679 15.003 24.9309 15 22.1709V13.1709C15.003 10.4109 17.24 8.1739 20 8.1709H23V12.1709C23 13.8279 24.343 15.1709 26 15.1709H30ZM26 20.6709C26 20.1189 25.552 19.6709 25 19.6709H23.5V18.1709C23.5 17.6189 23.052 17.1709 22.5 17.1709C21.948 17.1709 21.5 17.6189 21.5 18.1709V19.6709H20C19.448 19.6709 19 20.1189 19 20.6709C19 21.2229 19.448 21.6709 20 21.6709H21.5V23.1709C21.5 23.7229 21.948 24.1709 22.5 24.1709C23.052 24.1709 23.5 23.7229 23.5 23.1709V21.6709H25C25.552 21.6709 26 21.2229 26 20.6709Z" fill="#0082D2"/>
</g>
<defs>
<clipPath id="clip0_3922_9319">
<rect width="24" height="24" fill="white" transform="translate(8 8.1709)"/>
</clipPath>
</defs>
</svg>
