<svg width="188" height="161" viewBox="0 0 188 161" fill="none" xmlns="http://www.w3.org/2000/svg">
<g clip-path="url(#clip0_3922_8746)">
<path d="M20.2188 78.1087C69.1953 70.0303 118.061 69.9917 166.817 78.1087L158.883 115.004C114.127 109.521 70.6716 109.15 28.7823 115.004L20.2188 78.1087Z" fill="#7EB530"/>
<path d="M167.185 89.7283C172.821 90.2495 179.634 90.8794 187.041 91.5639L175.916 109.659L181.289 128.905L145.336 125.286L160.822 116.787L167.185 89.7283Z" fill="#7EB530"/>
<path d="M19.8559 89.7283C14.2193 90.2495 7.40674 90.8794 0 91.5639L11.1246 109.659L5.75209 128.905L41.7047 125.286L26.2186 116.787L19.8559 89.7283Z" fill="#7EB530"/>
<path d="M45.4961 120.925C56.9382 134.271 73.1281 145.235 93.3473 154.181C120.674 141.102 132.871 131.617 140.28 120.925L120.811 118.799C113.197 125.856 104.934 131.605 96.0122 136.016C93.9815 136.746 91.6457 136.579 90.1728 135.913C88.6959 135.246 85.3367 133.124 83.7875 132.259C81.4076 130.93 78.1769 129.098 77.1494 128.07L63.5843 118.795L45.4961 120.925Z" fill="#0082D2"/>
<path d="M48.326 67.5522V36.9543C78.3114 16.9434 108 17.6401 137.407 37.6854L137.041 67.5522L154.18 70.2277V30.5009C148.272 17.598 112.02 4.6376 92.8871 6.49783C66.161 5.95813 47.0158 14.8727 31.5938 29.6244V70.1397L48.326 67.5522Z" fill="#0082D2"/>
<g clip-path="url(#clip1_3922_8746)">
<path d="M93.5197 119.848L95.1468 123.145L98.7854 123.676L96.1525 126.241L96.7739 129.864L93.5197 128.152L90.2654 129.864L90.8868 126.241L88.2539 123.676L91.8925 123.145L93.5197 119.848Z" fill="#0082D2" stroke="#0082D2" stroke-width="0.657976" stroke-linecap="round" stroke-linejoin="round"/>
</g>
<g clip-path="url(#clip2_3922_8746)">
<path d="M82.1462 114.583L83.4479 117.22L86.3588 117.645L84.2525 119.697L84.7496 122.595L82.1462 121.226L79.5428 122.595L80.0399 119.697L77.9336 117.645L80.8445 117.22L82.1462 114.583Z" fill="#0082D2" stroke="#0082D2" stroke-width="0.501315" stroke-linecap="round" stroke-linejoin="round"/>
</g>
<g clip-path="url(#clip3_3922_8746)">
<path d="M104.896 114.583L106.198 117.22L109.109 117.645L107.002 119.697L107.5 122.595L104.896 121.226L102.293 122.595L102.79 119.697L100.684 117.645L103.594 117.22L104.896 114.583Z" fill="#0082D2" stroke="#0082D2" stroke-width="0.501315" stroke-linecap="round" stroke-linejoin="round"/>
</g>
<path d="M65.6552 46.8583L67.2072 35.6583H68.8872L71.6232 40.7623L74.3432 35.6583H76.0232L77.5752 46.8583H75.4472L74.3752 38.4423L74.9352 38.5543L71.6232 44.5063L68.2952 38.5703L68.8552 38.4583L67.7832 46.8583H65.6552ZM84.2656 47.0823C83.1989 47.0823 82.2496 46.8423 81.4176 46.3623C80.5856 45.8769 79.9322 45.1996 79.4576 44.3303C78.9829 43.4556 78.7456 42.4316 78.7456 41.2583C78.7456 40.0849 78.9829 39.0636 79.4576 38.1943C79.9322 37.3196 80.5856 36.6423 81.4176 36.1623C82.2496 35.6769 83.1989 35.4343 84.2656 35.4343C85.3322 35.4343 86.2816 35.6769 87.1136 36.1623C87.9456 36.6423 88.5989 37.3196 89.0736 38.1943C89.5482 39.0636 89.7856 40.0849 89.7856 41.2583C89.7856 42.4316 89.5482 43.4556 89.0736 44.3303C88.5989 45.1996 87.9456 45.8769 87.1136 46.3623C86.2816 46.8423 85.3322 47.0823 84.2656 47.0823ZM84.2656 45.0983C85.0122 45.0983 85.6362 44.9329 86.1376 44.6023C86.6389 44.2716 87.0149 43.8183 87.2656 43.2423C87.5162 42.6609 87.6416 41.9996 87.6416 41.2583C87.6416 40.5169 87.5162 39.8583 87.2656 39.2823C87.0149 38.7009 86.6389 38.2449 86.1376 37.9143C85.6362 37.5836 85.0122 37.4183 84.2656 37.4183C83.5189 37.4183 82.8949 37.5836 82.3936 37.9143C81.8922 38.2449 81.5162 38.7009 81.2656 39.2823C81.0149 39.8583 80.8896 40.5169 80.8896 41.2583C80.8896 41.9996 81.0149 42.6609 81.2656 43.2423C81.5162 43.8183 81.8922 44.2716 82.3936 44.6023C82.8949 44.9329 83.5189 45.0983 84.2656 45.0983ZM91.5738 46.8583V35.6583H93.5898L98.3738 42.8903V35.6583H100.422V46.8583H98.7418L93.6218 39.1783V46.8583H91.5738ZM102.886 46.8583V35.6583H110.054V37.6423H104.982V40.0263H108.918V42.0103H104.982V44.8743H110.214V46.8583H102.886ZM114.556 46.8583V42.3303L110.62 35.6583H112.86L116.06 41.3383H115.1L118.3 35.6583H120.54L116.604 42.3303V46.8583H114.556ZM74.0972 62.8583V51.6583H78.3212C79.4039 51.6583 80.2066 51.8903 80.7292 52.3543C81.2572 52.8129 81.5212 53.4823 81.5212 54.3623C81.5212 55.0183 81.3719 55.5676 81.0732 56.0103C80.7799 56.4476 80.3372 56.7676 79.7452 56.9703V56.5863C80.6412 56.7783 81.3106 57.1303 81.7532 57.6423C82.1959 58.1543 82.4172 58.8316 82.4172 59.6743C82.4172 60.6823 82.0919 61.4663 81.4412 62.0263C80.7906 62.5809 79.8999 62.8583 78.7692 62.8583H74.0972ZM76.1452 61.0343H78.4652C79.0252 61.0343 79.4706 60.9196 79.8012 60.6903C80.1372 60.4609 80.3052 60.0476 80.3052 59.4503C80.3052 58.8423 80.1292 58.4289 79.7772 58.2103C79.4252 57.9916 78.9879 57.8823 78.4652 57.8823H76.1452V61.0343ZM76.1452 56.0583H78.0172C78.5132 56.0583 78.8839 55.9569 79.1292 55.7543C79.3799 55.5516 79.5052 55.2263 79.5052 54.7783C79.5052 54.3143 79.3799 53.9836 79.1292 53.7863C78.8839 53.5836 78.5132 53.4823 78.0172 53.4823H76.1452V56.0583ZM90.2249 60.2023H85.5369V58.4103H90.2249V60.2023ZM87.6169 53.6583H88.1449L84.9129 62.8583H82.9289L86.9129 51.6583H88.8489L92.8329 62.8583H90.8489L87.6169 53.6583ZM99.013 63.0823C97.877 63.0823 96.877 62.8423 96.013 62.3623C95.149 61.8769 94.4743 61.1996 93.989 60.3303C93.509 59.4556 93.269 58.4316 93.269 57.2583C93.269 56.0849 93.517 55.0636 94.013 54.1943C94.5143 53.3196 95.2023 52.6423 96.077 52.1623C96.9517 51.6769 97.9517 51.4343 99.077 51.4343C99.669 51.4343 100.21 51.4983 100.701 51.6263C101.192 51.7489 101.616 51.9036 101.973 52.0903L101.749 54.0423C101.344 53.8556 100.925 53.7036 100.493 53.5863C100.066 53.4636 99.589 53.4023 99.061 53.4023C98.277 53.4023 97.621 53.5676 97.093 53.8983C96.5703 54.2289 96.1757 54.6849 95.909 55.2663C95.6423 55.8476 95.509 56.5116 95.509 57.2583C95.509 58.0049 95.6397 58.6689 95.901 59.2503C96.1623 59.8316 96.5517 60.2876 97.069 60.6183C97.5917 60.9489 98.2397 61.1143 99.013 61.1143C99.5517 61.1143 100.034 61.0556 100.461 60.9383C100.888 60.8209 101.317 60.6663 101.749 60.4743L101.973 62.4263C101.552 62.6236 101.088 62.7809 100.581 62.8983C100.08 63.0209 99.557 63.0823 99.013 63.0823ZM110.043 62.8583L105.899 56.9383L110.043 51.6583H112.443L108.267 56.9383L112.443 62.8583H110.043ZM103.691 62.8583V51.6583H105.739V62.8583H103.691Z" fill="#0082D2"/>
<path d="M55.459 96.106C54.275 96.106 53.2617 95.866 52.419 95.386C51.5763 94.9006 50.931 94.2206 50.483 93.346C50.035 92.4713 49.811 91.4446 49.811 90.266C49.811 89.098 50.059 88.0793 50.555 87.21C51.0563 86.3353 51.747 85.658 52.627 85.178C53.507 84.698 54.5203 84.458 55.667 84.458C56.259 84.458 56.8243 84.5193 57.363 84.642C57.907 84.7646 58.371 84.922 58.755 85.114L58.531 87.066C58.131 86.8793 57.6883 86.7273 57.203 86.61C56.723 86.4873 56.211 86.426 55.667 86.426C54.835 86.426 54.1523 86.594 53.619 86.93C53.0857 87.2606 52.691 87.714 52.435 88.29C52.179 88.8606 52.051 89.5086 52.051 90.234C52.051 90.9966 52.179 91.6713 52.435 92.258C52.6963 92.8446 53.0857 93.306 53.603 93.642C54.1203 93.9726 54.7657 94.138 55.539 94.138C55.7737 94.138 56.019 94.122 56.275 94.09C56.5363 94.058 56.803 94.0153 57.075 93.962V91.962H55.539V90.266H59.123V95.258C58.7337 95.4873 58.2163 95.6873 57.571 95.858C56.931 96.0233 56.227 96.106 55.459 96.106ZM65.62 96.106C64.5693 96.106 63.7 95.898 63.012 95.482C62.3293 95.066 61.82 94.482 61.484 93.73C61.148 92.978 60.98 92.0953 60.98 91.082V84.682H63.028V90.554C63.028 91.0873 63.0627 91.5753 63.132 92.018C63.2013 92.4553 63.3267 92.834 63.508 93.154C63.6947 93.4686 63.9587 93.7113 64.3 93.882C64.6413 94.0526 65.0813 94.138 65.62 94.138C66.1587 94.138 66.5987 94.0526 66.94 93.882C67.2813 93.7113 67.5427 93.4686 67.724 93.154C67.9107 92.834 68.0387 92.4553 68.108 92.018C68.1773 91.5753 68.212 91.0873 68.212 90.554V84.682H70.26V91.082C70.26 92.0953 70.092 92.978 69.756 93.73C69.42 94.482 68.908 95.066 68.22 95.482C67.5373 95.898 66.6707 96.106 65.62 96.106ZM78.4388 93.226H73.7508V91.434H78.4388V93.226ZM75.8308 86.682H76.3588L73.1268 95.882H71.1428L75.1268 84.682H77.0628L81.0468 95.882H79.0628L75.8308 86.682ZM82.3268 95.882V84.682H86.4228C87.1961 84.682 87.8708 84.8046 88.4468 85.05C89.0281 85.2953 89.4788 85.6686 89.7988 86.17C90.1188 86.6713 90.2788 87.306 90.2788 88.074C90.2788 88.8953 90.1028 89.5486 89.7508 90.034C89.4041 90.514 88.9454 90.8953 88.3748 91.178L90.9028 95.882H88.6148L86.4548 91.722C86.4388 91.722 86.4254 91.722 86.4148 91.722C86.4041 91.722 86.3908 91.722 86.3748 91.722H84.3748V95.882H82.3268ZM84.3748 90.01H85.8788C86.7214 90.01 87.3081 89.8393 87.6388 89.498C87.9694 89.1513 88.1348 88.714 88.1348 88.186C88.1348 87.626 87.9721 87.1886 87.6468 86.874C87.3214 86.554 86.7588 86.394 85.9588 86.394H84.3748V90.01ZM98.4544 93.226H93.7664V91.434H98.4544V93.226ZM95.8464 86.682H96.3744L93.1424 95.882H91.1584L95.1424 84.682H97.0784L101.062 95.882H99.0784L95.8464 86.682ZM102.342 95.882V84.682H104.358L109.142 91.914V84.682H111.19V95.882H109.51L104.39 88.202V95.882H102.342ZM115.831 95.882V86.666H112.663V84.682H121.047V86.666H117.879V95.882H115.831ZM122.514 95.882V84.682H129.682V86.666H124.61V89.05H128.546V91.034H124.61V93.898H129.842V95.882H122.514ZM131.608 95.882V84.682H138.776V86.666H133.704V89.05H137.64V91.034H133.704V93.898H138.936V95.882H131.608Z" fill="white"/>
</g>
<defs>
<clipPath id="clip0_3922_8746">
<rect width="187.039" height="160.5" fill="white"/>
</clipPath>
<clipPath id="clip1_3922_8746">
<rect width="12.6378" height="12.6378" fill="white" transform="translate(87.1992 118.795)"/>
</clipPath>
<clipPath id="clip2_3922_8746">
<rect width="10.1102" height="10.1102" fill="white" transform="translate(77.0898 113.74)"/>
</clipPath>
<clipPath id="clip3_3922_8746">
<rect width="10.1102" height="10.1102" fill="white" transform="translate(99.8398 113.74)"/>
</clipPath>
</defs>
</svg>
