<svg width="132" height="29" viewBox="0 0 132 29" fill="none" xmlns="http://www.w3.org/2000/svg">
<path d="M39.9987 2.50427L43.6037 9.80761L51.6654 10.9859L45.832 16.6676L47.2087 24.6943L39.9987 20.9026L32.7887 24.6943L34.1654 16.6676L28.332 10.9859L36.3937 9.80761L39.9987 2.50427Z" fill="#FFBA34" stroke="#FFBA34" stroke-linecap="round" stroke-linejoin="round"/>
<path d="M13.9987 2.50427L17.6037 9.80761L25.6654 10.9859L19.832 16.6676L21.2087 24.6943L13.9987 20.9026L6.7887 24.6943L8.16537 16.6676L2.33203 10.9859L10.3937 9.80761L13.9987 2.50427Z" fill="#FFBA34" stroke="#FFBA34" stroke-linecap="round" stroke-linejoin="round"/>
<path d="M65.9987 2.50427L69.6037 9.80761L77.6654 10.9859L71.832 16.6676L73.2087 24.6943L65.9987 20.9026L58.7887 24.6943L60.1654 16.6676L54.332 10.9859L62.3937 9.80761L65.9987 2.50427Z" fill="#FFBA34" stroke="#FFBA34" stroke-linecap="round" stroke-linejoin="round"/>
<path d="M91.9987 2.50427L95.6037 9.80761L103.665 10.9859L97.832 16.6676L99.2087 24.6943L91.9987 20.9026L84.7887 24.6943L86.1654 16.6676L80.332 10.9859L88.3937 9.80761L91.9987 2.50427Z" fill="#FFBA34" stroke="#FFBA34" stroke-linecap="round" stroke-linejoin="round"/>
<path d="M117.999 2.50427L121.604 9.80761L129.665 10.9859L123.832 16.6676L125.209 24.6943L117.999 20.9026L110.789 24.6943L112.165 16.6676L106.332 10.9859L114.394 9.80761L117.999 2.50427Z" fill="#FFBA34" stroke="#FFBA34" stroke-linecap="round" stroke-linejoin="round"/>
</svg>
