<svg width="24" height="24" viewBox="0 0 24 24" fill="none" xmlns="http://www.w3.org/2000/svg">
<g id="User">
<path id="Vector" d="M23.5 12C23.5 18.3513 18.3513 23.5 12 23.5C5.64872 23.5 0.5 18.3513 0.5 12C0.5 5.64872 5.64872 0.5 12 0.5C18.3513 0.5 23.5 5.64872 23.5 12Z" fill="#F2FAFF" stroke="#3DB1E7"/>
<g id="Group">
<path id="Vector_2" d="M17.1608 16.0449C18.6508 16.792 19.9595 17.8526 20.9982 19.1523C19.9627 20.4575 18.6546 21.523 17.1637 22.2734C15.5605 23.0803 13.7906 23.5003 11.9958 23.4997C10.2011 23.4991 8.4314 23.078 6.82874 22.2702C5.33831 21.5189 4.03088 20.4525 2.99616 19.1467C4.03564 17.8476 5.34509 16.7878 6.83548 16.0416C8.43826 15.2392 10.2061 14.8217 11.9985 14.8223C13.791 14.8228 15.5586 15.2415 17.1608 16.0449Z" fill="#3DB1E7" stroke="#3DB1E7"/>
<path id="Vector_3" d="M16.1438 8.12905C16.1438 10.4184 14.288 12.2742 11.9987 12.2742C9.70937 12.2742 7.85352 10.4184 7.85352 8.12905C7.85352 5.83974 9.70937 3.98389 11.9987 3.98389C14.288 3.98389 16.1438 5.83974 16.1438 8.12905Z" fill="#3DB1E7" stroke="#3DB1E7"/>
</g>
</g>
</svg>
